<svg xmlns="http://www.w3.org/2000/svg" id="a" viewBox="0 0 900 320"><defs><style>.aa,.ab,.ac,.ad,.ae,.af,.ag,.ah,.aj,.ak,.al,.am,.an,.ap,.aq,.ar,.at,.au,.av,.aw,.ax,.ay,.az,.ba,.bb,.bd,.be,.bf,.bg,.bh,.bi,.bj,.bk,.bl,.bm,.bn,.bp,.bq,.br,.bs,.bu,.bv,.bw,.bx,.k,.l,.m,.p,.r,.s,.t,.u,.v,.w,.x,.y,.z{stroke-width:0}.aa,.ab,.ac,.ae,.af,.ag,.ah,.aj,.ak,.am,.an,.ap,.aq,.ar,.at,.au,.av,.aw,.ax,.ay,.az,.ba,.bb,.bd,.be,.bg,.bh,.bi,.bj,.bk,.bl,.bm,.bp,.bq,.br,.bs,.bu,.bv,.bw,.bx,.k,.l,.m,.p,.s,.t,.u,.v,.x,.y{fill-rule:evenodd}.k,.r{fill:#ccae2d}.l{fill:#51596a}.m{fill:#5f5044}.bb{fill:#545c6d}.p{fill:#f4deb0}.s{fill:#9d8d56}.t{fill:#71561c}.u{fill:#c3987b}.v,.w{fill:#ac923b}.x{fill:#3d4554}.ad,.y{fill:#7d5f1f}.ae,.z{fill:#68707f}.aa{fill:#74665b}.ab{fill:#e4ae3a}.ac{fill:#8e7e73}.af{fill:#9b6533}.ag{fill:#787f8d}.ah{fill:#e9be61}.bw{fill:#b68b2e}.aj{fill:#5f6878}.ak{fill:#bbbfc6}.al,.bs{fill:#947125}.am{fill:#ecc675}.an,.bn{fill:#8d7c2f}.bj{fill:#fefcf8}.ap{fill:#576071}.aq{fill:#cc9262}.ar{fill:#eece88}.az{fill:#9f7928}.at{fill:#f4d75c}.au{fill:#886822}.av{fill:#7c4f24}.aw{fill:#af7546}.ax{fill:#ccad14}.ay{fill:#abafb8}.ba{fill:#d8a537}.bd{fill:#dfbda5}.be{fill:#f1d69c}.bf,.bm{fill:#e4c824}.bg{fill:#aa822b}.bh{fill:#f6e6c4}.bi{fill:#f9eed7}.bk{fill:#cc9c34}.bl{fill:#8b6651}.bp{fill:#1d2432;opacity:.1}.bq{fill:#fcf7eb}.br{fill:#c29431}.bu{fill:#9a9fa9}.bv{fill:#e5c828}.bx{fill:#fff7ae}</style></defs><g id="b"><path d="m47.14 276.39 32.09-7.32 37.2-2.86 43.06 9.13 8.4 8.56-7-2.61-4.08 3.9-21.72 2.56-5.48-2.95-5.58 4.58-45.71.71-31.18-13.7zM166.23 286.43l71.44-5.2 63.72 9.77-4.73 5.36-42.87 6.03-2.38-6.27-9.99 8.6-39.81 2.65-28.06-7.09-7.32-13.85zM306.46 294.73l16.78-2.93 30.43-.7 12.51 3.2 15.98 4.75 33.23 3.91-76.6 11.83-52.17-5.29 19.84-14.77zM480.39 291.81l-48.27-2.88-11.52 3.91 9.22 1.64 9.19-1.83 8.07 6.03 40.42 7.19 9.05-4.44 10.73 7.47 39.66 2.2 16.9-12.51-21.36-4.11-19.34-4.79-42.75 2.12zM574.81 297.67l-2.55-5.51 7.12-6.02 79.17-7.14 43.2-2.95 31.25 7.04 3.66 3.68 30.35 1.15 20.17 7.6-57.84 16.81L693 298l-82.77 4.21-2.89-5.92-7.96 4.17-24.57-2.79zM810.88 270.7l41.64 4.36-16.27 11.08-32.91.86-3.43-10.34 10.97-5.96z" class="bp"/></g><g id="c"><path d="m784.78 97.93-25.6-28.35 6.24 1.15 24.42 25.71-1.1 3.09-3.96-1.6z" class="bg"/><path d="m815.35 93.82 20.9 21.85 14.63-7.77-38.75-18.33 3.22 4.25z" class="k"/><path d="m791.89 122.82-7.11-24.89 5.06-1.49 6.95 30.95-4.9-4.57z" class="bg"/><path d="m837.62 207.49-28.31-8.13-5.89 14.94 23.47 3.49 10.73-10.3z" class="bk"/><path d="m776.74 207.49 33.11-6.42-3.66 15.41-20.08.17-9.37-9.16z" class="bw"/><path d="m783.02 163.79 14.03 54.44 9.14-1.75-18-52.69h-5.17z" class="az"/><path d="m805.75 139.3-2.41 58.08-5.33-2.97-6.12-61.29 13.86 6.18z" class="bg"/><path d="m800.72 139.8-.92 45.68-3.01-49.62 3.93 3.94z" class="bk"/><path d="m817.26 214.39 9.63-40.45-7.25.75-12.99 43.1 10.61-3.4z" class="az"/><path d="m776.74 207.49 30.55 3.88 6.76 33.7L803.34 287l-22.16-16.97-1.86-28.21 4.24-7.98-5.37-7.14-1.45-19.21z" class="ba"/><path d="m807.29 211.37 30.33-3.88-2.92 19.85-5.45 6.91 3.41 6.97-3.58 27.03L803.34 287l3.67-70.35.28-5.28z" class="bw"/><path d="M778.64 232.74h10.97l16.24 6.11 2.66 2.97-3.02 3.95-26.17-3.95-.68-9.08z" class="bg"/><path d="m805.85 238.85 15.44-5.79 12.61-.32-1.24 8.48-27.17 4.55.36-6.92z" class="au"/><path d="m778.19 226.7 28.05 4.71 3.61 2.06-4 5.38-27.21-6.11-.45-6.04z" class="af"/><path d="m806.24 231.41 28.46-4.07-.8 5.4-28.05 6.11.39-7.44z" class="av"/><path d="m775.85 154.79 4.26 2.01-.03 2.85 3.45-1.23 11.43 5.42-22.19 14.08-27.94 5.67 3.32-20.51 27.7-8.29zM770.2 122.51l8.08 14.05 33.85 16.67 24.12-21.16-11.11-19.67-19.73 7.62-1.91 2.47-2.78-2.14-30.52 2.16zM804.3 175.68l14.53-7.87 3.24.5.9-2.74 10.93-5.92 15.21 8.92 2.8 26.91-47.61-19.8z" class="bm"/><path d="m792.66 176.87 11.64-1.19 2.13 1.88 2.05-2.31 8.34-.85 7.65 9.67-17.46 32.58-17.39-27.24 3.04-12.54z" class="at"/><path d="m783.53 158.42-38.7 25.17 35.28-26.79 3.42 1.62zM818.83 167.81l33.08 27.67-28.94-29.91-4.14 2.24zM805.41 120.02l6.72 33.21-11.41-32.88 4.69-.33zM804.3 175.68l2.71 40.97 1.47-41.4-4.18.43z" class="k"/><path d="m789.84 96.44 13.38-14.02 36.01 7.78 11.65 17.7-35.53-14.08-25.51 2.62zM757.78 65.19l-18.39-8.64-16.3 16.53 8.79 22.79 23.82-18 26.13-8.32-24.05-4.36z" class="bm"/><path d="m757.78 65.19-14.06 7.1-11.84 23.58 9.74-26.6 16.16-4.08z" class="k"/><path d="m781.18 270.03 22.87 3.38 4.43 5.59-5.14 8-21.25-3.27-.91-13.7z" class="ag"/><path d="m804.05 273.41 25.03-5.16-1.98 14.93-23.76 3.82.71-13.59z" class="aj"/></g><g id="d"><path d="m651.18 296.64-15.42-3.33-1.56-6.21 9.54 1.14 8.38 5.56-.94 2.84z" class="ag"/><path d="m650.54 293.8.64 2.84 11.6-2.31v-3.65l-9.24.99-3 2.13z" class="bu"/><path d="m636.3 287.83 14.24 5.97 12.24-3.12-12.24-4.54-14.24 1.69z" class="ak"/><path d="m693.17 290.42-9.47-1.56-4.97-9.02 10.24-.84 8.07 2.12-3.87 9.3z" class="ag"/><path d="m705.11 279-.45 9.67-11.49 1.75-4.2-11.42h16.14zM610.23 302.21l10.67-2.23 3.42-14.12-13.08 6.3-3.9 5.84 2.89 4.21z" class="ap"/><path d="m611.24 292.16-1.01 10.05-10.85-1.75-2.06-14.32 7.72-.28 6.2 6.3z" class="ag"/><path d="m574.81 297.67 8.31-1.38 2.61-11.5-3.85-1.7-7.17 5.15.1 9.43z" class="ap"/><path d="m567.06 284.71-.89 11.3 8.64 1.66 5.03-14.33-12.78 1.37z" class="ag"/><path d="m707.21 212.64-2.1 66.36-93.87 13.16-9.05-69.86 67.24-8.11 37.78-1.55z" class="bs"/><path d="m577.51 137.42 27.53.66v59.09l34.06 8.45 1.52 14.9-7.58 12.11-16.1-4.96-5.7 64.49-44.18-7.45 9.21-130.94 1.24-16.35z" class="bg"/><path d="m596.41 141.4 35.23-7.32 46.19-1.04 7 53.47-35.23 9.15-44.56 1.51-8.63-55.77z" class="bs"/><path d="m577.51 137.42 65.56-10.66 34.76 6.28-81.42 8.36-18.9-3.98z" class="br"/><path d="m606.03 137.42-12.99-2.53 12.99-2.11 37.04-6.02 34.76 6.28-37.18.91-34.62 3.47z" class="bp"/><path d="m627.67 243.9 69.53-16.23-2.8 42.82-70.93 10.63 4.2-37.22zM614.25 180.27l2.13 15.39 26.81-1.01 28.3-6.35-2.41-16.76-54.83 8.73z" class="bg"/><path d="m605.04 197.17 79.79-10.66 35.7 10.66-57.75 14.65-31.14-.7-26.6-13.95z" class="br"/><path d="m633.04 232.63 90.03-16.09-2.54-19.37-88.89 13.95 1.4 21.51z" class="af"/><path d="m606.03 149.28 9.45-1.4 3.32 22.39-9.27 1.4-3.5-22.39zM622.3 147.18l29.4-3.68 2.98 22.05-29.58 3.67-2.8-22.04z" class="p"/><path d="m657.71 142.99 4.94-.45.45 2.91-4.82.63-.57-3.09zM658.56 149.24l4.88-.57.36 2.63-4.88.61-.36-2.67zM659.47 155.48l4.72-.76.45 2.54-4.81.82-.36-2.6zM660.43 161.65l4.7-.55.45 2.73-4.78.67-.37-2.85z" class="at"/><path d="m665.87 142.16 5.08-.58.47 2.68-5.25.52-.3-2.62zM666.63 148.52l5.02-.76.41 2.33-5.08.64-.35-2.21zM667.45 154.41l4.96-.64.46 2.33-5.01.58-.41-2.27zM668.38 160.65l4.9-.7.47 2.86-5.02.64-.35-2.8z" class="aq"/><path d="m624.05 200.25 17.4 9.33 40-2.44 26.35-7.97-22.97-7.2-6.92.94-.21.33-1.29-.12-5.5.75-.66.81-4.32-.13-4.55.62-.36 1.22-3.89-.64-3.63.49-.71 1.22-3.55-.64-5.17.71-.2.36-1.25-.17-5.43.74-.67.9-3.46-.33-9.01 1.22z" class="bq"/><path d="m641.45 209.58 66.35-10.41.6 4.64-9.66 1.54-.55-.75-.69.95-9.9 1.57-.76-.77-.64 1-8.05 1.28-.78-1.24-.51 1.44-7.27 1.16-.77-1.02-.26 1.19-8.24 1.31-.89-.75-.2.92-7.71 1.23-.44-.75-.47.9-8.65 1.37-.51-4.81z" class="p"/><path d="m635.59 199.27 13.97 9.04 1.1.71.42-.95-14.93-9.46-.56.66zM642.62 197.72l15.93 9.18.84.48.49-.69-15.81-9.16-1.45.19zM651.52 196.85l16.15 8.62 1.29.52.15-.75-16.7-8.85-.89.46zM659.23 196.09l16.84 8.06 1.57.45.25-.74-17.82-8.51-.84.74zM668.72 194.64l16.77 8.03 1.51.37.2-.64-17.67-8.34-.81.58zM676.41 193.12l20.21 7.8 1.37.53.38-.8-20.46-7.74-1.5.21z" class="be"/><path d="m633.06 199.03 7.56 4.78 4.74-.81-8.17-4.54-4.13.57zM649.24 196.82l7.89 4.32 4.86-.7-8.49-4.2-4.26.58zM657.13 195.75l8.26 4.01 4.86-.79-8.87-3.8-4.25.58zM665.93 194.55l8.08 3.77 5.5-.94-8.6-3.51-4.98.68z" class="ap"/><path d="m651.08 208.07.44 4.8-.91.15-1.05-4.71 1.52-.24zM658.55 206.9l.68 4.74 1.09-.17-.44-4.78-1.33.21zM667.67 205.47l.89 4.69 1.03-.17-.48-4.75-1.44.23zM676.07 204.15l.79 4.68 1.29-.2-.26-4.77-1.82.29zM685.49 202.67l.71 4.71 1.4-.26-.4-4.72-1.71.27zM696.62 200.92l.88 4.63 1.24-.2-.37-4.7-1.75.27z" class="ah"/><path d="m584.97 220.33 19.37 4.67-6.53 54.83-17.97-2.1 5.13-57.4z" class="ba"/></g><g id="e"><path d="m586.32 65.19 2.47 12.37 4.03.72-4.03-18.07-2.47 4.98zM634.81 52.94l-11.02-21.66-1.58 2.33 9.61 20.42 2.99-1.09zM614.08 71.25l-10.99-16.04-2.22 2.08 11.19 16.92 2.02-2.96zM609.35 74.21l-10.67-12.37-2.28 2.35 6.48 12.82 6.47-2.8zM660.01 61.84l9.4-20.65-4.39-2.27-7.37 22.92h2.36zM653.42 59.6l9.33-24.01h-3.99l-9.45 21.87 4.11 2.14z" class="al"/><path d="m664.73 119.4-27.48-2.98-3.36 8.02 9.23 2.4 21.61-7.44z" class="z"/><path d="m610.03 119.4 25.83-2.98 1.69 8.02-15.07 1.12-12.45-6.16z" style="fill:#545c6d;stroke-width:0"/><path d="m631.49 121.19-12.7-14.3-.07-4.17 13.64 13.73-.87 4.74z" class="ad"/><path d="m632.2 95.15-3.34 32.84 11.55 1.33 5.23-34.17H632.2z" class="al"/><path d="m651.58 91.69-7.12 22.15-2.77 15.63-4.44-.51 6.19-33.81 8.14-3.46zM638.43 104.12l-3.19 24.6h-1.94l5.13-24.6zM637.25 95.15l-4.89 32.84 2.45-32.84h2.44z" class="ad"/><path d="m640.65 110.43 12.42-16.1 4.58 4.72-13.19 14.79-3.81-3.41z" class="al"/><path d="m666.66 85.42-9.01 11.27-38.96 6.92-20.04-11.36-18.43-1.86 8.57-12.83 16.51.11 8.78-6.42 5.8-5.01 1.26-11.1 19.51-2.2 12.77 6.66 10.36 7.69 10.37-4.76 20.74 19.27-12.72 4.62-15.51-1z" class="r"/><path d="m591.07 89.47 8.4-4.85 26.24 7.63 16.8-6.83 10.91 3.09 8.16-10.84 33.31 4.13-9.86 11.55-15.51-2.05-5.74.95-2.37 8.64-22.98 3.23-11.97-3.5-7.67 6.27-21.44-12.56-6.28-4.86z" class="w"/><path d="m621.14 55.14 11.22 18.1-18.28-1.99 7.06-16.11zM653.42 59.6h-14.99l-1.18-5.57 5.26-5.57 10.91 11.14z" class="bn"/><path d="m632.36 73.24 6.07-13.64 23.15 18.07-29.22-4.43z" class="bn"/><path d="m674.15 62.53-12.57 15.14-8.16-18.07 20.73 2.93zM632.36 73.24l-12.48 6.88 22.63 5.3-10.15-12.18zM614.08 71.25l-25.29 6.31 10.68 7.06 20.41-4.5-5.8-8.87zM642.51 48.46l-21.37 6.68 17.29 4.46 4.08-11.14z" class="bf"/><path d="m661.58 77.67 7.94 13.63-8.11 9.59-18.9-15.47 19.07-7.75zM625.71 92.25l12.72 11.87-19.64 2.77 6.92-14.64zM599.47 84.62l-2.12 9.71-17.13-3.94 19.25-5.77z" class="bn"/><path d="m610.03 119.4 28.4 3.14 6.91 4.3-4.69 7.11-26.81-2.44-3.81-12.11z" class="z"/><path d="m638.43 122.54 26.3-3.14-8.71 11.58-15.37 2.97-2.22-11.41z" style="fill:#4b5464;stroke-width:0"/><path d="m610.77 37.76 32.21 4.6h15.98l8.63 1.28 17.27-5.3-26.1-11.26-7.89-4.29 1.34-4.28-11.8 3.82-14.87.9-14.77 14.53zM617.15 52.19l-14.06 9.65-15.52.84-8.17-9.74-15.86-2.56 16.68-12.86 7.35 4.84 13.3-2.22 16.28 12.05z" class="r"/><path d="m609.35 56.39-12.68 1.72-10.35-4.08-2.6-6.43-20.18 2.78 13.29 3.65 7.15 3.17 2.34 7.99 18.75-1.55 4.28-7.25zM675.85 39.51l-14.27-3.92-17.84 3.94-6.98-1.4-3.46-5.86-22.53 5.49 19.02 5.3 6.97-1.05 5.75 6.45 16.71-3.77 10.19-.26 6.44-4.92z" class="w"/><path d="m652.21 18.51-6.87 3.82-2.36 3.81 15.78.94-6.55-8.57z" class="bn"/><path d="m642.98 26.14-9.68 6.13 28.28 3.32-18.6-9.45zM625.54 23.23l17.44 2.91 9.23-7.63-26.67 4.72zM600.87 40.14l-17.15 7.46-3.5-10.08 20.65 2.62z" class="bf"/><path d="m633.3 32.27-3.51 10.79 12.72 5.4 1.23-8.93-10.44-7.26zM661.58 35.59l23.28 2.75-12.8 11.44-12.84-5.09 2.36-9.1zM617.15 52.19l-20.48 5.92 8.4 5.53 12.08-11.45z" class="bn"/><path d="m583.72 47.6-6.89 6.43 9.49 11.16 10.35-7.08-12.95-10.51z" class="bn"/></g><g id="f"><path d="m729.34 274.65 1.26 14.44 1.86 1.34 2.22-2.77 1.98-17.8-7.32 4.79z" class="ap"/><path d="M696.26 251.99 713 270.77l16.34 3.88 6.27-19.82-18.72-.53-20.63-2.31z" class="br"/><path d="m729.34 274.65 20.27-4.79 11.28-20.81-32.8 11.9 1.25 13.7z" class="bg"/><path d="m683.42 240.04 52.19 1.84-4.2 9.54-3.32 9.53-47.6-8.05 2.93-12.86z" class="ae"/><path d="m726.69 249.05 10.32-7.17 33.19-2.93 2.44 14.93-44.55 7.07-1.4-11.9z" class="l"/><path d="m683.42 240.04 41.07-8.7 45.71 7.61-43.51 10.1-43.27-9.01z" class="ay"/><path d="m730.6 289.09-16.33 6.14 16.88 6.69 1.85-7.61-2.4-5.22z" class="aw"/><path d="m734.68 287.66 12.83 9.07-11.9 3.95-6.27-1.15 1.26-10.44 4.08-1.43zM714.27 295.23l-1.4 5.03 15.22 4.37 3.06-2.71-1.81-2.39-15.07-4.3z" class="af"/><path d="m728.09 304.63 20.82-3.23-1.4-4.67-18.17 2.8-1.25 5.1z" class="av"/></g><g id="g"><path d="m125.47 152.43 7.6-15.09h-2.01l-6.73 13.69 1.14 1.4zM126.16 154.7l14.88-17.07 5.58-.29-19.07 19.56-1.39-2.2z" class="ag"/><path d="m97.78 139.16 15.4 17.74-.84-3.66-9.19-14.08h-5.37z" class="ae"/><path d="m156.81 285.19-6.42-.94-2.68-16.37 9.92 1.63 1.86 5.83-2.68 9.85zM124.03 289.38l-8.63-1.63-3.04-16.6 14 2.1.82 6.29-3.15 9.84z" class="bb"/><path d="m87.4 281.62 9.68-.05 5.25-12.99-11.08-3.85-4.67 5.48.82 11.41zM168.62 271.32l-.73 12.58-11.08 1.29-.7-15.09 12.51 1.22zM123.92 277.63l.11 11.75 11.06-1.63 1.64-14.62-12.81 4.5z" class="ag"/><path d="m79.16 265.57.31 13.76 7.93 2.29 3.73-14.21-11.97-1.84z" class="bb"/><path d="m123.92 277.63-44.76-12.06-1.33-64.35 50.63 8.46v25.45l-4.54 42.5z" class="bs"/><path d="m173.67 203.68-5.05 67.64-44.7 6.31-1.54-62.74 14.25-7.74 37.04-3.47z" class="bg"/><path d="m181.91 187.71-2.13 19.54-57.4 7.64-5.95-8.49 1.05-12.88 64.43-5.81z" class="bk"/><path d="m124.83 199.4-15.63-6.78-48.24-1.91 4.08 14.25 57.34 9.93 2.45-15.49z" class="bw"/><path d="m181.91 187.71-65.48-5.69-55.47 8.69 63.87 8.69 57.08-11.69z" class="at"/><path d="m124.83 190.71-8.4-8.69-22.97 3.6L78.27 188l23.05 3.69 23.51-.98z" class="bp"/><path d="m88.33 219.03 12.84 7.38 12.83-2.88-4.38 15.9 5.29 25.88-27.49-4.99 4-20.89-3.09-20.4z" class="y"/><path d="m114 223.53-8.93 6.11-3.9 11.22-1.87-13.23-10.97-8.6-.91 41.29 13.75-19.46 13.74 24.45-.91-41.78z" class="bg"/><path d="m88.33 219.03 12.84 21.83L114 223.53l-25.67-4.5zM130.62 222.02l32.2-3.65-1.4 19.94-29.84 3.23-.96-19.52zM132.46 250.77l28.43-2.76-1.22 14.78-26.6 2.52-.61-14.54z" class="ba"/><path d="m143.57 228.86 2.97-3.33 3.24 3.24-3.15 3.06-3.06-2.97zM144.09 256.24l2.98-2.8 2.8 2.72-2.98 2.79-2.8-2.71z" class="af"/><path d="m153.03 185.2-2.94-9.98-33.66 5.62 2.29 5.53 6.11 4.34 28.2-5.51z" class="bu"/><path d="m122.38 182.12-5.95-3.27-20.87-1.14-2.1 7.91 31.37 5.09-2.45-8.59z" class="ae"/><path d="m95.56 177.71 17.21-3.67 12.06-2.58 25.26 3.76-27.71 6.9-26.82-4.41z" class="ak"/><path d="m135.59 173.06-13.21-33.9-12.07 3.97 3.69 27.46 7.58 6.2 6.88-1.83.82-2 2.62 1.09 3.69-.99z" class="bu"/><path d="m110.31 143.13 11.27 33.66-8.81-2.75-2.46-30.91z" class="ae"/><path d="m114.91 144.41 9.92 31.52-7.02-35.26-2.9 3.74zM131.9 174.05l-10.23-30.74 6.79 31.65 3.44-.91z" class="ag"/><path d="m114.91 144.41 44.56-6.06 5.54-14.7-54.7 6.3v9.21l4.6 5.25z" class="v"/><path d="m114 134.03-3.69-5.71-24.72-1.75-3.45 11.68 32.77 6.16-.91-10.38z" class="an"/><path d="m85.59 126.57 30.84-8.4 22.13 2.21 26.45 3.27L114 134.03l-28.41-7.46z" class="at"/><path d="m85.59 126.57 30.84-8.4 22.13 2.21 16.8 2.08-37.12 8.17-32.65-4.06z" class="bp"/><path d="m122.32 127.01-1.25-6.94 7.63-2.74 5.86 1.92-5.15 6.57-7.09 1.19z" class="bu"/><path d="m122.32 127.01-9.14-1.19-2.87-9.31 9.56 1.66 3.08 4.87-.63 3.97z" class="ae"/><path d="M122.95 123.04 189 115.2l-1.62-13.03h-72.47l-1.73 11.94 9.77 8.93z" class="v"/><path d="m122.95 123.04-43.72-5.61-2.87-11.69h38.03l5.48 2.78 3.08 14.52z" class="an"/><path d="m187.38 102.17-65-5.87-46.02 9.44 43.51 2.78 67.51-6.35z" class="at"/><path d="m159.2 99.62-36.82-3.32-27.52 5.65 23.38 4.97 40.96-7.3z" class="bp"/><path d="m135.64 101.25 6.16-13.75-15.64-2.08-6.87 7.82 1.86 9.99 5.99-.82 3.41-2.93 1.35 2.28 3.74-.51z" class="bu"/><path d="m131.9 101.76 3.69-15.08-2.62-.35-5.83 16.08 4.76-.65zM121.15 103.23l-11.69-1.06-3.98-18.5 20.68 1.75-5.01 17.81z" class="ag"/><path d="m124.51 92.18 48.56-3.26 3.5-12.59-55.42 1.42 3.36 14.43z" class="v"/><path d="m126.16 81.11-9.4-3.36-26.4.67 3.03 8.99 31.12 4.77 1.65-11.07z" class="an"/><path d="m90.36 78.42 35.8-6.29 50.41 4.2-50.41 4.78-35.8-2.69z" class="at"/><path d="m148.68 74-24.62 3.64-5.82-10.5 26-2.57 4.44 9.43z" class="v"/><path d="m124.06 77.64-14.8-2.54 3.03-8.89 8.87-.47 1.16 3.38 1.74 8.52z" class="an"/><path d="m144.24 64.57-15.23-1.31-6.69-.9-4.08 1.56-5.95 2.29 10.03 2.91 21.92-4.55z" class="at"/><path d="m134.79 63.76-8.63-14.12-5.01 10.97 2.91 5.13 10.73-1.98z" class="br"/><path d="m126.16 49.64-7.92 14.28 5.82 1.82 2.1-16.1z" class="az"/></g><g id="h"><path d="m210.28 262.19 37.51-7.81 45.53 6.23-10.35 2.91-36.12-3.21-35.61 7.12-.96-5.24z" class="y"/><path d="m198.96 296.56 8.17-2.1 5.36-54.97-10.96-3.59-4.4 27.82 1.83 32.84z" class="ac"/><path d="m193.59 235.9-4.43 58.56 9.8 2.1 4.9-58.57-10.27-2.09zM296.66 296.36l-8.85-1.9-8.59-54.97h12.13l3.74 40.03 1.57 16.84z" class="aa"/><path d="m301.6 240.58 4.86 54.15-9.8 1.63-9.28-56.41 14.22.63z" class="ac"/><path d="m201.24 269.31 9.04-7.12 29.22 5.4-2.69 5.08-35.57-3.36zM254.32 273.15l37.83-4.24-9.18-5.39-33.01 4.64 4.36 4.99z" class="bs"/><path d="m241.42 304.72-8.16-2.1 4.08-59.39 15.98 5.73-5.53 36.4-6.37 19.36z" class="aa"/><path d="m246.77 251.18-5.35 53.54 12.37-2.33 2.74-55.3-9.76 4.09z" class="ac"/><path d="m241.42 234.26 5.35 16.92 61.61-9.69 1.33-12.77-68.29 5.54z" class="ae"/><path d="m246.77 251.18-61.58-11.23-3.28-12.14 43.88 2.5 22 11.18-1.02 9.69z" class="l"/><path d="m181.91 227.81 64.86-11.5 62.94 12.41-61.92 12.77-65.88-13.68z" class="ay"/><path d="m181.91 227.81 14.6-2.59 48.4-.13 16.52-1.08 9.38 7.46-25-2.75-26.8 1.3-23.83.55-13.27-2.76z" class="bp"/><path d="m248.98 209.82-11.36-2.31-15.22 5.07 7.52 4.44 11.5-2.4 7.56-4.8z" class="av"/><path d="m203.86 202.36 1.47 5.43 13.29 4.35-4.65-12.35-4.41.1-5.7 2.47z" class="ar"/><path d="m211.46 206-6.13 1.79 2.16 8.01 12.22-3.66-2.14-6.14h-6.11z" class="aw"/><path d="m203.86 202.36 2.55-3.54 2.21-2.34 2.62.94 2.73 2.37-10.11 2.57z" class="bj"/><path d="m206.41 198.82-.4-5.25 2.91-.96 2.32 4.81-4.83 1.4z" class="aw"/><path d="m208.92 212.14-3.63-4.32-3.54-.84-.64-4.15-2.86-3.41-3.99 1.57-5.4 6.99 2.97 4.16 5.19 3.18 11.9.8v-3.98z" class="ar"/><path d="m205.33 207.79-8.31 7.53-5.19-3.18 9.28-9.31 4.22 4.96z" class="au"/><path d="m198.25 199.42-9.39 8.56.5-6.06.96-2.5 2.43-.55 5.5.55z" class="bj"/><path d="m189.36 201.92-2.43-3.77 1.93-1.99 3.89 2.71-3.39 3.05z" class="au"/><path d="m222.4 215.8 1.47-5.52-1.07-3.94 2.98-3.19 1.87-6.99-4.47-3.55h-6.3l-2.91 7.18-.03 3.75-2.48 2.46-3.97 9.8 7.36 1.65 7.55-1.65z" class="p"/><path d="m225.78 203.15-11.81-3.36-2.51 6.21 12.41 4.28 1.91-7.13z" class="aa"/><path d="m216.88 192.61 4.6-2.02 2.84-.81 1.46 1.92 1.87 4.46-10.77-3.55z" class="bj"/><path d="m221.48 190.59 2.57-5.05 3.07 1.09-1.34 5.07-4.3-1.11z" class="aa"/><path d="m225.78 203.15-6.31 5.62-3.84 6.32 12.42 3.5 6.67-5.56 2.9-5.52-5.92-4.36h-5.92z" class="ar"/><path d="m225.78 203.15 5.92-3.36h3.41l1.4 1.68 1.11 6.04-11.84-4.36z" class="bj"/><path d="m219.47 208.77 15.25 4.26-5.03 9.59-18.23-6.71 8.01-7.14zM231.7 199.79l3.63-4.97 3.08.98-1.9 5.67-4.81-1.68z" class="au"/><path d="m248.98 209.82-1.76 6.58-1.41 1.2.89.75-1.79 6.74-25.9 4.93-4.16-8.94 7.55-5.28 26.58-5.98z" class="aw"/><path d="m222.4 215.8-30.57-3.66 2.14 5.98 1.36 1.05-.62 1.03 1.8 5.02 22.5 4.8 3.39-14.22z" class="af"/><path d="m247.22 216.4-26.21 5.23-1.82 1.34 1.25 1.04 26.26-5.66.52-1.95z" class="bm"/><path d="m221.01 221.63-27.04-3.51.74 2.08 25.73 3.81.57-2.38z" class="k"/><path d="m252.17 199.79 17.59-3.31 4.86 9.75-9.45 7.93-13-14.37z" class="bh"/><path d="m286.05 198.48-16.29-2-3.26 12.29 9.11 2.1 10.44-12.39z" class="am"/><path d="m269.18 213.41-12.4-36.28 1.99-3.38h4.21l7.83 36.45-1.63 3.21z" class="ap"/><path d="m256.78 177.13 6.2-3.38-4.41-4.59-1.79-.6-1.31 2.59 1.31 5.98z" class="bs"/><path d="m258.57 169.16-1-9.99h-4.2l-3.99 3.73 6.09 8.25 3.1-1.99z" class="bm"/><path d="m257.57 159.17-8.98-7.88.79 11.61 8.19-3.73z" class="bx"/><path d="m268.28 203.15-1.78-29.4 2.68-1.69 3.85.99-1.4 43.97-3.35-13.87z" class="ae"/><path d="m266.5 173.75 6.53-.7-2.35-6.08-2.23-2.41-.96 3.15-.99 6.04z" class="bs"/><path d="m270.68 166.97 1.71-9.14-4.64-1.31-4.37 3.06 4.11 8.13 3.19-.74z" class="at"/><path d="m272.39 157.83-4.51-4.2-2.05-6.52-2.45 12.47 9.01-1.75z" class="bx"/><path d="m268.28 203.15 17.77-4.67-1.13 6.84-3.87 3.76 2.74 3.06-2.74 16.58-10.24 2.75-5.64-16.49 3.11-11.83z" class="bh"/><path d="m268.28 203.15-16.11-3.36 1.35 6.44 3.26 3.92-1.88 2.69 3.41 16.27 12.5 2.36-2.53-28.32z" class="am"/><path d="m284.92 205.32-16.04 4.5-2.38 2.32 2.84 2.84 14.45-2.84 1.13-6.82z" class="bm"/><path d="m268.88 209.82-15.36-3.59 1.38 6.61 14.44 2.14-.46-5.16z" class="k"/></g><g id="i"><path d="m535.51 296.58 6.97-2.1-19.57-64.86-4.2 2.56-.24 14.47 6.77 23.1 10.27 26.83z" class="t"/><path d="m521.97 245.35 13.54 51.23-12.14-1.64-22.39-61.36 10.26-1.63 10.73 13.4z" class="bs"/><path d="m507.28 308.9 8.16-2.06-8.63-80.26-11.43 4.2.93 45.26 10.97 32.86zM447.08 298.68l8.63-2.34 26.14-84.46-10.04-3.96-15.16 41.99-9.57 48.77z" class="t"/><path d="m452.08 226.68-22.26 67.8 17.26 4.2 24.5-77.7-19.5 5.7z" class="bs"/><path d="m452.08 226.68-3.19 9.7 14.14 11.7 8.55-27.1-19.5 5.7z" class="bp"/><path d="m483.24 236.98 4.26 68.89 19.78 3.03-7.51-78.12-16.53 6.2z" class="bs"/><path d="m483.24 236.98.78 12.53 17.71 1.67-1.96-20.4-16.53 6.2z" class="bp"/><path d="m505.57 32.36 6.7-2.28 4.55 14.35-10.36 37.44-.89-49.51z" class="ac"/><path d="m510.47 46.35 6.35-1.92-34.66 216.71-8.89 6.6-9.81 3.58 9.81-14.06L504.05 48.1l6.42-1.75z" class="m"/><path d="m463.46 271.32 14.08-3.14 4.62-7.04-5.98.71-6.41 3.58-6.31 5.89z" style="fill:#46382d;fill-rule:evenodd;stroke-width:0"/><path d="m496.7 44.95 8.87-12.59 4.9 13.99-34.29 215.5-12.72 9.47-4.13-11.49L496.7 44.95z" class="aa"/><path d="m439.01 107.97 36.54-35.87 77.37 11.93-20.91 141.11-10.04 20.21-84.92-33.19-11.79-25.03 2.85-16.37 8.59-14.05-3.1-17.59 5.41-31.15z" class="p"/><path d="m425.26 187.13 13.75-10.58 13.9 8.96-5.36 4.52 1.4 2.41 26.36 11.93 25.43-4.43 13.77 9.58 4.96-1.14 2.5-5.41 10.04 3.12-7.44 23.41-16.83 2.93-50.39-11.83-25.72.91-8.56-21.77 2.19-12.61z" class="bj"/><path d="m452.91 185.51-13.9 5.1 9.94 1.83 3.96-6.93zM423.07 199.74l18.65 9.78 4.24 5.6-14.33 6.39h-12.34l3.78-21.77zM521.97 202.97l4.62 14.16-12.08-7.61 7.46-6.55zM526.59 217.13l-14.05 10.16 2.79 2.64 9 1.05 2.26-5.45v-8.4z" class="bi"/><circle cx="524.86" cy="149.59" r="7.12" style="fill:#fefcf8;stroke-width:0"/><path d="m493.78 210.05-6.16-38.09-4.38-3.43-6.53 4.58-6.94 2.39v32.88l24.01 1.67z" class="ah"/><path d="M483.24 168.53v3.89l1.83 31.95-4.62 5.33-1.46-22.12.99-14.82 3.26-4.23z" class="ab"/><path d="m483.24 207.92-5.7 1.6 1.45-21.94 4.25 20.34z" class="br"/><path d="m472.08 176.36 3.47 32.44-5.78-.42-1.25-29.53 3.56-2.49zM512.54 156.71l-1.21-11.32-4.03 2.8 2.62 11.46 2.62-2.94z" class="ab"/><path d="m487.62 171.96 25.35-11.71-.43-3.54-24.8 8.4-.12 6.85z" class="ah"/><path d="m477.54 167.02-19.03-38.43 2.94-1.86 18.53 34.68-2.44 5.61z" class="ab"/><path d="m454.78 156.71 6.35-7.12.21 3.56-4.44 6.5-2.12-2.94z" class="ah"/><path d="m476.71 173.11-.9-2.83-2.54.26-18.49-13.83-6.65-1.04-2.17 2.59 20.95 17.24 5.17.86 4.63-3.25z" class="ab"/><path d="m468.52 178.85 3.56-2.49-23.95-20.69-6.41-.99 1.05 2.84 25.75 21.33z" class="br"/><path d="m490.71 208.38-3.08-20.8.11 20.8h2.97zM500.98 177.7l3.38-6.18 1.05.44-1.98 7.67-2.45-1.93zM483.95 184.66l12.6-5.15 6.88.12-15.8 7.95-3.68-2.92z" class="ab"/><path d="m500.98 177.7 14.35 6.27h-6.3l-12.48-4.46 4.43-1.81z" class="ah"/><path d="m481.78 153.68 2.44-20.89 5.67 3.46-1.32 9.14-6.79 8.29z" class="ab"/><path d="m487.62 171.96-4.38.46-.81-1.83-2.45 2.17-3.27.35v-5.68l13.36-26.44 5.11-1.87 3.58 11.87-11.14 20.97z" class="ab"/><path d="m476.71 173.11-3.44-2.57 16.62-34.29 5.29 2.87-18.47 33.99zM496.58 143.75l-16.6 29.01 3.26-.34 13.93-26.7-.59-1.97z" class="br"/><path d="m444.41 107.15 12.49 7.44-4.01 13.13 21.08.17 26.25 18.29 19.95.69 5.25-15.04 14.97.96 6.37-17.06 3.09-12.71 1.99-19.94-66-9.4-40.47-1.38-3.65 20.11 2.69 14.74z" class="aw"/><path d="m441.72 92.41 13.79 6.29 3 6.29 13.52 10.13 3.17 7.09 15.51-2.44 16.59 16.19 9.19-2.89 3.07-7.83 25.51-3.99-4.68 11.54-11.3 3.17-4.23 13.63-26.1 1.4-26.73-17.92-6.2-5.09-18.41 1.43 5.49-12.88-2.82-5.77-11.08-2.79 2.71-15.56z" class="af"/><path d="m495.18 92.94-16.39 3.68 11.92 23.15 12.48-8.42 9.35-3.15 14.05 4.91 18.48-8.97-34.6-14.63-15.29 3.43z" class="af"/><path d="m503.19 111.35-24.4-14.73 5.43-5.04 10.96 1.36 31.41 20.17-11.7 2.01-11.7-3.77zM519.56 125.24l9.53 10.72-30.33 15.03 8.54-15.03 12.26-10.72zM490.71 119.77l-18.68 13.3-24.61-3.66 24.61-14.29 18.68 4.65zM452.91 116.53l5.6-11.54-19.5 2.98 13.9 8.56z" class="av"/><path d="m519.56 125.24-16.37-13.89 23.4 1.76-7.03 12.13zM458.51 104.99l20.28-8.37-1.25-6.56-11.16-3.33-11.26-1.75-13.4 7.43 16.79 12.58z" class="aq"/><path d="m467.53 138.12 11.26 10.33-12.41 3.25-7.87-6.97-8.25-5.61 11.08.76 6.19-1.76z" class="aw"/><path d="m450.26 139.12 12.77 3.47 3.77 6.13 11.99-.27-7.36 6.23-5.05-2.16-5.04.63-4.44-6.28-.95-1.48-3.94-.52-1.75-5.75z" class="af"/><path d="m466.8 148.72-5.46 4.43 10.09 1.53-4.63-5.96zM463.03 142.59l-6.13 4.28-4.89-2 11.02-2.28z" class="av"/><path d="m463.03 142.59 4.5-4.47-17.27 1 12.77 3.47z" class="aq"/><path d="m433.6 139.12 7.07 8.6 3.77-3.16 5.82 7.14-5.86 6.56-5.39 3.93-4.85 1.57-3.09-10.08 2.53-14.56z" class="aw"/><path d="m450.26 151.7-13.56 5.01-5.63-3.03-1.31 7.55 1.6 6.2h5.69l1.96-5.24 1-2.01 6.44.39 3.81-8.87z" class="af"/><path d="m439.01 162.19-2.31-5.48 9.75 3.86-7.44 1.62zM437.05 167.43l-7.29-6.2-1.65 9.53 8.94-3.33z" class="av"/><path d="m444.44 144.56-2.72 10.12-8.12-15.56 10.84 5.44z" class="aq"/><path d="m509.03 183.97 10.53-12.01 7.03.8 7.95-4.23 1.55 9.17-4.33 7.81-7.92 2.07-8.95 3.88-5.86-7.49z" class="aw"/><path d="m509.03 183.97 8.98-.42 6.85-4.7 6.9 6.66 1.28 5.95-9.2-3.88-9.33 6.25-5.48-9.86z" class="af"/><path d="m519.56 171.96 5.3 6.89 9.68-10.32-14.98 3.43z" class="aq"/><path d="m523.84 187.58-14.81-3.61 15.83-5.12-1.02 8.73z" class="av"/><path d="m510.47 89.51-19.76-11.96h23.22l18.08 4.56-21.54 7.4zM466.38 86.73l2.14-9.18-8.27-7.05-14.88 1.8-3.65 20.11 24.66-5.68z" class="af"/><path d="m466.38 86.73 7.94-4.62 8.92 2.87 11.94 7.96-16.39 3.68-12.41-9.89z" class="af"/><path d="m466.38 86.73-6.13-16.23 30.46 7.05-7.47 7.43-16.86 1.75zM532.01 82.11l13.06 22.03 6.77-21.06-19.83-.97z" class="aq"/><path d="m465.05 260.53 1.22 3.67 3.59-2.36-2.01-3.76-2.8 2.45zM501.13 45.39l2.89-3.06 2.1 3.5-4.11 2.97-.88-3.41z" class="m"/><path d="m451.51 207.41 33.56-3.04 2.55 7.79-2.89 4.06-35.32-4.06 2.1-4.75z" class="bu"/><path d="m485.07 204.37 15.5 6.26 1.92 10.88-17.76-5.29.34-11.85zM441.72 209.52l37.5.77 4.02 8.14-44.23-4.88 2.71-4.03z" class="ag"/><path d="m479.22 210.29 32.2 8.14 1.4 11.07-35.28-11.07 1.68-8.14z" class="aj"/><path d="m439.01 213.55-19.72 7.96 56.26 7.26-3.85-14.26-32.69-.96z" class="ae"/><path d="m471.7 214.51 52.63 16.47.53 8.55-2.89 5.82-25.89-6.01-11.2-.07v-2.53l-65.59-15.23 49.23-1.56 3.18-5.44z" style="fill:#4b5464;fill-rule:evenodd;stroke-width:0"/><path d="m468.52 219.95 54.62 16.43-62.95-13.07 8.33-3.36z" class="ae"/><path d="m559.46 80.75-24.88 159.82-12.61 4.78 26.76-161.32 1.44-2.16 9.29-1.12z" class="am"/><path d="m445.37 72.3 21-6.65 93.09 15.1-10.73 3.28L445.37 72.3z" class="bj"/><path d="m527.46 235.33 2.45-2.56 1.98 1.51-2.8 2.92-1.63-1.87zM530.43 215.44l2.1-2.22 2.1 2.22s-2.57 1.63-2.92 1.98-1.28-1.98-1.28-1.98ZM534.05 195.73l2.1-2.45 1.86 1.75-2.21 2.91-1.75-2.21zM537.2 174.5l2.33-2.45 1.63 1.86-2.33 2.45-1.63-1.86zM540.76 153.62l2.1-2.69 1.4 2.1-1.64 2.8-1.86-2.21zM544.14 131.98l2.22-1.75 1.28 1.63-1.75 2.22-1.75-2.1zM547.87 109.58l1.98-1.98 1.99 1.63-2.34 2.56-1.63-2.21z" class="s"/><path d="m496.08 239.34-16.58 4.16-7.92-14.73 12.86-.43 1.4 8.62 10.24 2.38z" class="an"/><path d="m479.5 243.5-30.61-7.12-5.31-15.64 21.47 3.97 11.66 6.27 2.79 12.52z" class="v"/><path d="m484.44 228.34-35.03-9.91-5.83 2.31 33.13 10.24 7.73-2.64z" class="at"/></g><g id="j"><path d="m354.37 297.35 5.72 3.79 5.75-.99 2.85-2.8 1.34-7.62-6.58-5.58-7.08-3.74-3.56 9.93v2.2l1.56 4.81zM330.1 290.34l4.65 5.89 1.58 9.36-2.92 1.96-10.17-1.08-3.78-4.67.86-4.94 2.92-5.06 6.86-1.46z" class="bd"/><path d="m360.69 281.81-4.32-1.4-3.56 2.34v7.59l10.64-6.19-2.76-2.34zM333.46 288.55l-3.02-2.78-4.37 1.13-2.83 4.9 11.51 4.44-1.29-7.69z" class="bl"/><path d="m352.81 292.54 8.88 6.69-4.83.92-4.05-1.1v-6.51z" class="u"/><path d="m370.03 289.73-11.9 9.32.92 1.1h3.85l10.66-7.44-3.53-2.98z" class="bs"/><path d="m362.21 299.05 15.87-8.93 4.08 8.93-16.74 1.95-3.21-1.95z" class="u"/><path d="M352.81 299.05h29.34v3.91h-29.34z" class="ad"/><path d="m320.32 296.86 16.01 8.73-5.45 1.69-10.94-8.23.38-2.19z" class="bs"/><path d="m320.32 296.86-8.21 8.73 15.25 1.96 3.52-1.96-10.56-8.73z" class="u"/><path d="M312.11 305.59h24.22v3.91h-24.22z" class="ad"/><path d="m392.39 184.25-8.83-10.84-26.99 10.87 18.04 15.15 14.63-9.71 3.15-5.47z" class="bd"/><path d="m383.56 173.41-10.79-13.23-12.98 30.25 14.16-1.53 9.61-15.49z" class="x"/><path d="m376.59 231.09-15.9 3.15-11.76 13.08-6.56 14.62 3.55 21.63 22.88-9.24 8.48-9.99-.69-33.25z" class="bs"/><path d="m345.74 266.13.18 17.44 31.71-3.77-3.52-11.12 3.17-4.34-31.54 1.79z" class="k"/><path d="m348.93 247.32-2.14 25.72-16.88 3.11-16.74-11.12 1.92-28.58 20.17-3.48 13.67 14.35z" class="az"/><path d="m313.17 265.03 3.87 12.22-5.13 6.49 33.37 7.45 1.51-18.15-33.62-8.01z" class="bv"/><path d="m313.17 265.03-1.26 18.71 34.01-.17-32.75-18.54z" class="ax"/><path d="m356.57 156.17 7.1 1.76 3.81 8.85-1.49 26.15-45.27 5.49-2.31-34.71 2.4-2.91 7.72-4.07 15.55 6.13 12.49-6.69z" class="x"/><path d="m376.59 231.09-27.66 16.23-33.84-10.87-.17-41.2 4.63-6.2 4.89-3.31 39.84-5.42 4.93 2.12 4.74 6.46 2.64 42.19z" class="au"/><path d="m372.77 160.18 1.18 28.72-9.67-8.58-.61-22.39 9.1 2.25zM320.81 160.8l3.63 24.94-8.11 8.1-1.41 1.41-3.5-30.46 9.39-3.99z" class="bw"/><path d="M332.53 191.68h27.1v27.62h-27.1z" style="fill:#9f7928;stroke-width:0" transform="rotate(-4.6 345.994 205.42)"/><path d="m292.41 103.87 14.48 4.92-.97-7.18-.02-6.06-8.72 3.36-4.77 4.96z" class="t"/><path d="m291.53 89.64-4.97 16.38 16.45-5.82-1.71-15.9-4.28-.47-5.49 5.81z" class="au"/><path d="m375.3 57.42-15.65-12.98-6.72 8.14 1.19 5.08 3.56 8.95 7.2.38 10.42-9.57z" class="bg"/><path d="m376.98 74.73 6 .66 6.03 7.65-9.13 11.44-6.47-7.75 3.57-12zM334.02 68.53l-4.47 14.2 10.23-.23 5.56-2.43-11.32-11.54z" class="t"/><path d="m376.98 74.73-2.37-6.2 4.67-8.1 10.74 14.3-1.01 8.31-12.03-8.31z" class="ax"/><path d="m379.28 60.43 19.15 15.06-9.42 7.55-9.73-22.61z" class="bg"/><path d="m376.98 74.73 2.3-14.3 1.3-7.86-15.7 14.42-3.75 3.88.48 9.15 15.37-5.29z" class="au"/><path d="m364.88 66.99-10.76-9.33-7.17 7.77-1.61 14.64 10.26 1.13 7.58-4.14 1.7-10.07z" class="ax"/><path d="m359.65 44.44-24.96 9.92 10.62 6.26 8.81-2.96 5.53-13.22z" class="bm"/><path d="m354.12 57.66-19.43-3.3.71 10.91 9.94 14.8 8.78-22.41z" class="bg"/><path d="m345.34 80.07-10.51-7.39-7.41-1.93-3.1-5.46-1.04-7.1 6.97-4.68 2.26-4.49 2.18 5.34 10.65 25.71z" class="ax"/><path d="m324.32 65.29-6.21-2.75-5.87-5.78-.63-6.84 18.64 3.59-5.93 11.78z" class="bg"/><path d="m324.32 65.29-12.08-8.53-7.42 7.91.66 11.01 8.82 9.62 9.68-10.53.34-9.48z" class="au"/><path d="m304.82 64.67-9.48 4.85.29 5.93 4.62 5.42 14.05 4.43-9.48-20.63z" class="bg"/><path d="m304.82 64.67-21.32 4.64 12.13 6.14 9.19-10.78z" class="bm"/><path d="m295.63 75.45-13.2 15.42 15.22-2.76 9.06 1.04 7.59-3.85-18.67-9.85z" class="ax"/><path d="m379.1 88.5 6.94 53.29-23.91 5.66-3.64 5.13-17.5 1.85-16.85-28.7-3.62-35.84 58.58-1.39z" class="bd"/><path d="m333.15 95.56 14.18 55.29 8.22.86 1.02 4.46-7.98 12.51-20.06-11.95-2.96-6.56-.91-4.66-2.12-2.06-5.27-20.14 2.51-13.86 6.33-12.8 7.04-1.09zM344.3 104.65l7.04.72 6.85 11.82-.13-13.05-3.74-7.03-7.6 3.96-2.42 3.58zM363.85 95.45l1.32 17.4 4.66-11.55 6.21-2.92-4.99-2.34-7.2-.59z" class="u"/><path d="m354.32 97.11-11.46 2.92 1.44 4.62 10.02-7.54zM363.85 95.45l11.68-1.87.51 4.8-12.19-2.93z" class="au"/><path d="m354.72 129.07 9.58-5.06 9.49 1.7-8.27 4.88-10.8-1.52z" class="t"/><path d="m376.61 124.31-11.34 5.61-14.18-1.14 14.69 5.4 10.83-9.87z" class="bw"/><path d="m326.11 96.65 6.85 15.72-7.77 3.48-3.53-2.68-11.83 2.14-6.82-15.11 12.81-5.85 10.29 2.3z" class="au"/><path d="m362.13 147.45-20.15 4.62 14.59 4.1 5.56-8.72zM328.54 127.54l-4.24 11.3-6.07-8.39 8.95-4.09 1.36 1.18zM336.67 137.03l-11.1 13.14-2.99-6.74 4.92-4.24 9.17-2.16z" class="bl"/><path d="m363.85 95.45-9.53 1.66 3.87 20.08 4.53.5 4.83-2.24-3.7-20z" style="fill:#e8cab6;fill-rule:evenodd;stroke-width:0"/><path d="m367.55 115.45-3.82 5.55-5.54-3.81 9.36-1.74z" class="bl"/><circle cx="351.28" cy="110.85" r="2.85" style="fill:#232a38;stroke-width:0"/><path d="M373.92 106.93c-.17 1.56-1.58 2.69-3.14 2.52s-2.69-1.58-2.52-3.14 1.58-2.69 3.14-2.52 2.69 1.58 2.52 3.14Z" style="fill:#232a38;fill-rule:evenodd;stroke-width:0"/><path d="m303.01 100.2 76.09-11.7-2.12-13.77-39.42 10.8-34.55 14.67z" class="ax"/><path d="m376.98 74.73-79.33 13.38 5.36 12.09 73.97-25.47z" class="bv"/><path d="M324.32 65.29 314.3 85.3l7.54 12 7.71-14.57 5.28-10.05-10.51-7.39z" class="bg"/><path d="m309.83 115.31 13.26-5.77 5.97 13.95-12.88 5.85-6.35-14.03z" class="bd"/><path d="m322.12 122 .18-2.43-1.93-4.25-6.73 2.59 5.24 3.22 3.24.87z" class="bl"/><path d="m330.27 122.94 6.4 14.09-14.09 6.4-6.4-14.09 14.09-6.4Zm-9.5 8.13 3.53 7.77 7.77-3.53-3.53-7.77-7.77 3.53Z" class="t"/><path d="M321.16 119.82h3.76v11.86h-3.76z" style="fill:#b68b2e;stroke-width:0" transform="rotate(-24.43 323.084 125.747)"/><path d="m346.79 273.04 30.49-8.7.35 15.46-30.84-6.76z" class="bm"/><path d="m418.74 182.28 6.52 4.85-2.94 6.67h-6.93l.72-9.52.57-2.47 2.06.47z" class="at"/><path d="m374.58 198.96 16.48-30.43 11.39-2.29-3.37 11.53-4.35 18.02-13.66 4.81-6.49-1.64z" class="u"/><path d="m397.49 163.74-1.68 10.27 3.27 3.76 6.28-3.54-1.85-13.03-6.02 2.54z" class="bl"/><path d="m414.09 160.06 4.83 12.07-2.13 1.88-9.23-6.59-5.67-11.06 12.2 3.7z" class="u"/><path d="m381.03 131.66-2.32 2.14 18.64 27.97 10.23 7.6-5.76-7.46.07-5.55-20.86-24.7z" class="bb"/><path d="m416.11 184.28-7.48-4.34 1.24-5.36 6.92-.57 1.95 8.27-2.63 2z" class="au"/><path d="m400.46 166.44 8.17 13.5 8.16-5.93-6.53-7.73-9.8.16z" class="ag"/><path d="m395.81 174.01 4.65-7.57 7.36 2.22 2.44-2.38-8.37-9.92-10.83 12.17 4.75 5.48z" class="bd"/><path d="m425.26 187.13-3.22 4.63-6.65 2.04 15.26 4.78-4.02-6.14-1.37-5.31z" class="af"/><path d="m316.33 193.83-4.97 10.01-11.88 5.1 2.91-25.1 8.18-6.05 4.92 11.11.84 4.93z" class="bd"/><path d="m311.42 164.79-9.03 19.05 13.1 5.06-4.07-24.11z" class="x"/><path d="m316.33 193.83 15.68 5.8-2.39 7.96-4.73 2.43-25.41-1.08 16.85-15.11z" class="u"/><path d="m324.89 210.02-.95 6.2 7.16 14.7 10.83-5.59-17.04-15.31z" class="v"/><path d="m333.87 225.33 56.35-1.83-6.82 13.48-52.3-6.06 2.77-5.59z" class="k"/><path d="m383.4 236.98 28.63-20.15-1.43-6.81-20.38 4.86-6.97 15.26.15 6.84z" class="v"/><path d="m324.89 210.02 7.12-10.39 18.94 3.05 43.78-6.89 15.87 14.23-27.35 20.12-49.38-4.81-8.98-15.31z" class="at"/><path d="m338.13 208.6 6.62-4.74 5.56 1.46 1.28 6.01-13.46-2.73z" class="bl"/><path d="m344.75 203.86 4.86-4.19 5.99 8.32-4.01 3.34-6.84-7.47z" class="u"/><path d="m338.13 216.07 5.47-1.64 5.46 4.37-8.38 1.67-2.55-4.4z" class="aw"/><path d="m355.23 220.37 5.07-2.95 5.79 2.46-3.22 3.64-7.64-3.15z" class="k"/><path d="m375.69 219.71 5.14-3.78 4.5 4.51-5.92 3.05-3.72-3.78z" class="ac"/><path d="m389.89 205.75 6.43 1.21-1.64 5.19-8.15-2.13 3.36-4.27z" class="ba"/><path d="m370.49 205.3 4.4-2.06 4.83 2.06-5.41 4.74-3.82-4.74z" class="bq"/><path d="m359.15 210.53 3.65-2.54 5.55 2.54-4.6 3.9-4.6-3.9z" class="ap"/></g></svg>