<svg xmlns="http://www.w3.org/2000/svg" id="a" viewBox="0 0 900 320"><defs><style>.o{fill:#576071}.aa,.ab,.ac,.ad,.ag,.ah,.ai,.aj,.ak,.am,.an,.ao,.ap,.ar,.as,.at,.au,.av,.aw,.ax,.ay,.ba,.bc,.bd,.be,.bg,.bh,.bi,.bk,.bl,.bm,.bn,.bo,.bp,.bq,.br,.o,.p,.r,.s,.u,.v,.w,.x,.y,.z{stroke-width:0}.p{fill:#4b9db7}.r{fill:#89909b}.s{fill:#1d2432;opacity:.1}.u{fill:#72cbcc}.v{fill:#4298b4}.w{fill:#359496}.x{fill:#317186}.y{fill:#8b6651}.z{fill:#68707f}.aa{fill:#dfbda5}.ab{fill:#8dc1d2}.ac{fill:#7bb7ca}.ad{fill:#9a9fa9}.ag{fill:#4fa9aa}.ah{fill:#c3987b}.ai{fill:#2e6a7d}.aj{fill:#185e60}.ak{fill:#347990}.am{fill:#94d5d5}.an{fill:#fff}.ao{fill:#b3d5e1}.ap{fill:#51596a}.ar{fill:#2e3544}.as{fill:#a0cbd9}.at{fill:#404857}.au{fill:#3e90aa}.av{fill:#67acc3}.aw{fill:#4b5464}.ax{fill:#e8cab6}.ay{fill:#2a6275}.ba{fill:#3b88a1}.bc{fill:#c6e0e8}.bd{fill:#388199}.be{fill:#5f5044}.bg{fill:#787f8d}.bh{fill:#5f6878}.bi{fill:#8e7e73}.bk{fill:#165e60}.bl{fill:#1e7678}.bm{fill:#3d4554}.bn{fill:#232a38}.bo{fill:#74665b}.bp{fill:#f5f9fb}.bq{fill:#d9eaf0}.br{fill:#55a2bb}</style></defs><g id="b"><path d="m90.72 285.33 28.48-7.16 32.73 6.57-9.42 10.66-30.84 1.94-20.95-12.01zM187.66 279.02l23.96-3.52-12.37-6.92-31.54 2.75-8.22 3.4 28.17 4.29zM52.49 262.56l54-8.31-18.61 23.48-28.38-.18-7.01-14.99zM198.36 303.99l7.65-1.61 7.4 2.63-8.21 2.28-6.84-3.3zM218.19 293.39l8.33-1.32 6.83 2.07-7.12 1.94-8.04-2.69zM226.45 276.4l23.39-5.81 9.3-3.21 28-3.38 69.62 3.46 21.9 2.06 52.11 8.09-48.65 15.7-66.07 6.71-75.39-9.53-14.21-14.09zM398.02 295.74l7.77-1.77 13.25 3.37-15.17 1.48-5.85-3.08zM574.97 302.34l-30.12-6.78-19.64 5.35 2.96 11.07 39.39-3.36 7.41-6.28zM593.63 239.05l-88.05 5.18-45.45 8.55 21.58 12.9-15.42 1.53-11.35 8.52 39.66-2.85 7.64-3.75 39.45 5.45 8.12-5.21 3.44 5.21 14.31-2.94 38.64 6.57 50.47-4.73 42.09-16.43-105.13-18zM569.73 285.36l9.06-2.43 11.68 3.15-12.18 3.44-8.56-4.16zM593.87 293.08l9.08-1.47 11.4 2.5-11.2 2.35-9.28-3.38zM642.43 286.22l8.32-1.02 11.94 2.5-13.19 3.08-7.07-4.56zM751.96 291.99l-18.38-2.68-30.19 10.35 20.56.54 23.37-2.52 4.64-5.69zM807.39 282.65l-14.6.01-9.04 6.65 15.09.71 13.02-3.5-4.47-3.87zM715 272.01l-6.21-3.14 16.27-6.62 11.35-4.65 15.49-1.61 27.07 3.83-7.72 9.23-15.87 4.8-5.59-1.63-5.58 1.63-29.21-1.84z" class="s"/></g><g id="c"><path d="m506.92 116.05 39.23-25.11 5.53 4.22-48.29 27.27 3.53-6.38z" class="ai"/><path d="m476.89 120.58 8.7-30.42 5.53 1.89-11.3 31.31-2.93-2.78z" class="bd"/><path d="m489.31 142.77-21.33-49.01-4.21 7.87L486 151.09l3.31-8.32zM505.04 93.76l-11.13 114.2-5.47-26.54V154.4l11.9-63.24 4.7 2.6zM730.62 155.22l-32.31-29.96-4.45 5.18 38.93 31.52-2.17-6.74zM752.48 135.24l-5.17-17.68-3.21 1.9 5.96 18.34 2.42-2.56zM733.52 145.69l-16.27-26.2-2.39 1.98 18.66 30.6v-6.38z" class="ai"/><path d="m736.11 148.6 24.48-25.47 2.78.55-27 32.61-.26-7.69z" class="bd"/><path d="m734.2 113.79-4.55 4.17-.61 51.57 2.85 46.84 5.04-2.97-.38-61.09-2.35-38.52z" class="bd"/><path d="m736.38 119.03 1.2 93.22-5.69.96 2.45-100 2.04 5.82z" class="ai"/><path d="m675.69 114.31 18.91 7.79 44.75-3.87 33.75 3.25 25.83-13.18-20.73-37.61-20.24 6.25-7.74-11.84-13.76-1.51.56-18.42-39.4 11.97-10.9 17.07-31.85 14.5 20.82 25.6z" class="br"/><path d="m654.87 88.71 41.81 21.4 42.37-15.69 59.88 13.88-28.41 19.99-21.85-12.99-12.29 3.73-28.18 2.45-14.34 8.96-22.26-12.71-16.73-29.02zM737.02 45.17l-14.55 28.06 27.75-8.13-13.2-19.93z" class="bd"/><path d="m686.72 74.21 35.75-.98-25.79 36.88-9.96-35.9zM778.2 70.69l-39.15 23.73 11.17-29.32 27.98 5.59z" class="ac"/><path d="m736.38 119.03-39.7-8.92-2.82 20.33 42.52-11.41zM739.05 94.42l31.47 33.87-34.14-9.26 2.67-24.61z" class="x"/><path d="m488.44 181.42 11.9-90.26-6.08 1.68-13.46 96.38 7.64-7.8z" class="bd"/><path d="m496.06 123.62 25.4-35.14 5.16 2.6-24.78 35.46-5.78-2.92z" class="ak"/><path d="m403.35 67.3 64.73 25.56 38.37-.03 54.88 4.88 42.45-35.95-11.28-22.93-42.39-8.17-35.59-21.85-17.24 12.25-26.26-3.75 3.47 21.61-16.55-4.26 3.36 16.33-46.78-9.58-11.17 25.89z" class="br"/><path d="m403.35 67.3 65.51 3.77 18.35 11.88 19.24 1.02 41.11-20.01 33.5 13.83-20.01 23.45-56.01-7.48-21.13.93-20.14 6.94-60.42-34.33zM471.02 17.31l28.51 32.32-41.59-14.97 13.08-17.35z" class="bd"/><path d="m550.11 30.66-2.55 33.3-48.03-14.33 50.58-18.97z" class="bd"/><path d="m499.53 49.63-30.67 21.44-54.34-29.66 43.42-6.75 41.59 14.97zM514.52 8.81l-14.99 40.82-28.51-32.32 43.5-8.5z" class="ac"/><path d="m506.45 83.97-1.41 9.79-41.27 7.87 5.09-30.56 37.59 12.9zM547.56 63.96l13.49 37.28 42.73-39.48-56.22 2.2z" class="x"/><path d="m172.29 153.08-21.87 5.14 1.95-4.09 16.94-6.33 2.98 1v4.28z" class="bd"/><path d="m169.31 147.8 16.23-27.69 2.03 1.25-15.28 31.72-2.98-5.28z" class="ai"/><path d="m156.7 142.97-7.75-20.76-2.62 1.79 8.79 24.13 1.58-5.16z" class="ak"/><path d="m140 176.91-43.69-52.67 4.39-.64 41.23 48.03-1.93 5.28zM139.43 160.08l-25.21-36.48 2.8-.64 25.13 33.41-2.72 3.71z" class="bd"/><path d="m141.59 133.91-7.9-3.41 7 88.94 6.3 4.11-.15-61.04-5.25-28.6z" class="ai"/><path d="m145.76 130.78 7.59 87.05-6.36 5.72-5.4-89.64 4.17-3.13z" class="bd"/><path d="m149.11 163.75 20.75-36.81-2.85-4.28-23.35 39.56 5.45 1.53z" class="ai"/><path d="m92.54 119.9 49.4 17.19 23.52-16.19 31.17-5.09 17.67-23.45-31.26-13.52-7.95-21.56-48.34 7.34-4.85 12.87-15.61 7.5-33.19 10.6 19.44 24.31z" class="br"/><path d="m73.1 95.59 37.88 13.52 11.71-12.06 27.73.67 63.88-5.36-16.35 30.26-17.41-2.11-10.68 6.43-27.75 12.44-32.6-16.07-26.69-.69-9.72-27.03z" class="bd"/><path d="M126.75 64.62 147 80.24l3.42 17.48-30.89-2.13-13.24-10.6 20.46-20.37z" class="bd"/><path d="m183.04 78.84-32.62 18.88-23.67-33.1 56.29 14.22z" class="ac"/><path d="m106.29 84.99 4.69 24.12 39.44-11.39-44.13-12.73z" class="ac"/><path d="m150.42 97.72 19.44 29.22 28.09-4.32-47.53-24.9zM110.98 109.11l31.13 30.27-59.29-16.76 28.16-13.51z" class="x"/></g><g id="d"><path d="m93.72 205.22-13.33-4.41 246.4-34.14 142.3 14.75 131.87-19.84 223.95 23.65-12.39 6.36-209.48-7.86-131.26 13.3-142.98-11.51-235.08 19.7z" class="av"/><path d="m812.52 191.59-211.56-23.15-20.38 30.44 24.64 36.49 203.54 28.65 10.2-39.5-6.44-32.93z" class="ba"/><path d="M600.96 168.44 467.3 186.95l-26.47 20.65 33.15 41.14 131.24-13.37-4.26-66.93z" class="ak"/><path d="m467.3 186.95-141.64-14.31-19.4 29.39 22.54 33.43 145.18 13.28-6.68-61.79z" class="ba"/><path d="M325.66 172.64 93.72 205.22l-8.21 22.85 2.37 49.66 240.92-42.27-3.14-62.82zM824.91 185.23l6.93 74.06-23.08 4.73 3.76-72.43 12.39-6.36z" class="ak"/><path d="m87.88 277.73-17.7-2.85 10.21-74.07 13.33 4.41-5.84 72.51zM107.14 216.09l147.99-18.83 56.31-7.23 2.05 34.81-209.97 34.31 3.62-43.06z" class="ai"/><path d="m122.79 211.5-5.13 49.42 7.01-.86 2.56-49.07-4.44.51zM140.23 209.45l-3.08 46.68 5.47-.85 2.4-46-4.79.17zM157.15 208.26l-2.73 45.99 5.47-1.71 2.74-45.82-5.48 1.54zM173.57 206.2l-1.37 44.63 4.28-1.71 3.59-44.28-6.5 1.36zM191.35 203.64l-.68 44.8 3.93-1.03 1.88-45.31-5.13 1.54zM206.91 243.65l2.05-43.43h4.45l-2.91 44.63-3.59-1.2zM225.2 198.34l-2.73 42.74 3.76.52 5.3-46.17-6.33 2.91zM242.74 195.77 240 239.2l4.24-.68 3.5-42.19-5-.56zM259.74 193.55l-1.88 43.6 4.45-1.54 2.73-43.26-5.3 1.2zM277.01 191.33l-.85 41.55 3.93-1.03 3.76-42.23-6.84 1.71zM296.33 189.28l-.68 40.35 4.96-1.37-1.2-39.67-3.08.69z" class="ak"/><path d="M453.69 198.97 341.3 188.94l2.28 33.96 112.64 9.41-2.53-33.34z" class="ai"/><path d="m439.56 195.09 2.5 41.49-4.56-1.14-3.87-41.03 5.93.68zM420.63 193.04l4.11 42.17-6.61-2.05-2.06-40.58 4.56.46zM402.08 191.56l4.42 40.92-5.93-1.14-4.73-40.81 6.24 1.03zM385.53 190.3l3.87 40.81-3.65.46-4.33-41.95 4.11.68zM371.16 189.85l2.74 38.52h-5.02l-1.82-38.98 4.1.46zM355.43 187.8l2.97 38.98-4.79.23-1.37-39.67 3.19.46z" class="ba"/><path d="m792.79 206.01-24.64-2.11-86.69-6.05-65.74-4.13 4.68 32.99 69.91 8.18 99.81 13.85 2.67-42.73z" class="ai"/><path d="m691.72 195.24 3.84 44.92 4.98.58-1.67-44.61-7.15-.89zM783 202.9l-3.77 47.29-4.53-.82 4.15-49.32 4.15 2.85z" class="ba"/><path d="m778.97 259.82 7.3-33.95-7.85-20.65 7.85-16.5-6.58-4.99-9.44 6.95-8.87 16.21-1.55 26.27-2.17 9.36-5.76 13.47 27.07 3.83z" class="s"/></g><g id="e"><path d="m521 260.14-6.84-1.19.82-8.77 9.69-4.18-1.19 6.78-2.48 7.36zM499.1 257.12l-6.36-.99 1.86-15.39 9.85 2.82-1.62 8.81-3.73 4.75z" class="av"/><path d="m522.82 174.57-15.45 6.83 10.23 19.35 10.24-11.12.99-13.35-6.01-1.71z" class="ay"/><path d="m524.47 174.69-6.87 19.39 12.8 3.83 22.85-3.96-1.57-16.19-27.21-3.07z" class="x"/><path d="m531.9 179.27 5.68 7.68 8.21-4.76-4.9-4.88-8.99 1.96z" class="y"/><path d="m517.6 131.05-7.57 44.21 35.76 6.93 4.87-10.56-.88-11.58-8.32-20.57-23.86-8.43z" class="aa"/><path d="m545.79 156.46 1.83 15.58 3.04-3.99-.88-8-2.16-6.85-1.83 3.26zM520.6 147.4l3.42-2.24 3.42 2.65.89 3.07 1.63 2.64 1.98-1.69 2.29-2.16 5.69-.29 3.28 4.74-13.24 7.12-9.36-13.84z" class="ah"/><path d="m528.33 150.88-2.61 9.44 2.12 1.23 2.12-.31 1.98-9.41-3.61-.95z" class="ax"/><path d="m525.72 160.32 1.69 2.46 2.55-1.54-4.24-.92zM519.06 164.06l17.27 3.54-4.65 4.44-10.29-2.25-2.33-5.73z" class="y"/><path d="m521.31 165.76 12.11 2.63-2.53 1.98-8.36-1.77-1.22-2.84z" class="an"/><circle cx="522.82" cy="152.74" r="1.65" class="bn"/><circle cx="536.33" cy="155.65" r="1.65" class="bn"/><path d="m520.6 147.4-.72-1.17 4.37-2.15 4.16 2.62-.97 1.11-3.65-1.85-3.19 1.44zM534.23 149.67l-.3-1.41 6.96-.45 3.36 4.93-1.05 1.38-4.05-4.22-4.92-.23z" class="be"/><path d="m517.6 131.05 6.87-2.24 8.95.88 3.05-4.79 11.64.43 16.06 4.79-10.34 10.43-4.05 19.5-32.18-29z" class="bo"/><path d="m559.57 134.75 15.7 4.86-12.04 5.04-9.4-4.1 5.74-5.8z" class="be"/><path d="m553.83 140.55-4.05 19.5 4.05 21.45 9.51-1 6.34-3.65 2.23-4.81 7.07-.55-1.3-11.17-4.28-15.9-7.27-4.41-12.3.54z" style="fill:#46382d;stroke-width:0"/><path d="m536.47 124.9 17.36 15.65 1.62 7.26-3.77 3.07-27.21-22.07 12-3.91z" class="bi"/><path d="m553.83 140.55 25.15 30.94-9.3 5.36-18-25.97 2.15-10.33z" class="be"/><path d="m548.11 125.33 11.46 9.42 4.6 1.01v-5.64l-6.5-4.45-9.56-.34z" class="bi"/><path d="m559.57 134.75 6.56 5.26 7.36 1.56 1.78-1.96-11.1-9.49-4.6 4.63z" class="bo"/><path d="m566.13 140.01 11.55 20.31-2.41-20.71-9.14.4z" class="be"/><path d="m499.1 257.12.51-5.95 9-2.73-1.24 7.63-8.27 1.05zM521 260.14l1.07-10.41 7.56-1.29 1.86 3.31-1.69 7.2-8.8 1.19z" class="p"/><path d="m563.33 256.1-8.99 1.02v-10.73l8.04-1.62.95 11.33z" class="au"/></g><g id="f"><path d="m664.45 260.86 4.87-1.08 1.37-29.95-11.03 3.05 2.48 12.82 2.31 15.16z" class="z"/><path d="m662.98 231.15 1.47 29.71-6.79-.82-4.53-28.89h9.85z" class="r"/><path d="m598.16 255.67 4.87-1.08 1.37-29.95-11.03 3.05 2.48 12.82 2.31 15.16z" class="z"/><path d="m596.69 225.96 1.47 32.71-6.79-.82-4.54-31.89h9.86z" class="r"/><path d="m478.99 264.45 4.82-.98 3.48-17.83 2.93-11.82-9.91-1.11-3.42 13.68 2.1 18.06z" class="z"/><path d="m471.77 239.34.05 24.36 7.17.75 2.41-25.64-9.63.53zM553.14 249.69l-5.3 25.92-6.15-1.03-2.74-27.01 14.19 2.12z" class="r"/><path d="m547.84 275.61 5.41-1.03 5.19-28.19-9.47 9.11-1.13 20.11z" class="z"/><path d="m681.46 197.85 8.85 37.04-19.85-1-7.48-.84-8.07 9.47-48.05 1.11-7.72-2.2-6.62 6.11-11.96-5.22-5.73 5.25-25.86 7.93-11.39-48.61 143.88-9.04z" class="ac"/><path d="m548.97 255.5-17.48-3.75-4.05-4.18-5.37 2.16-8.93.57-4.28-4.43-9.25 5.3-12.64-3.75-2.19-8.05-13 3.52-11.19-.93 8.5-42.26 72.6 4.47 11.56 9.86-4.28 41.47z" class="ab"/><path d="m469.09 199.7 126.98-15.97 7.19 3.22 7.36-.81 70.84 11.71-128.21 16.18-84.16-14.33z" class="ao"/><path d="m574.83 247.57-6.2-35.48 23.89 35.45-17.69.03z" class="ab"/><path d="m597.62 208.43 9.24 35.2-14.34 3.91 5.1-39.11z" class="av"/><path d="m670.46 233.89-9.83-33.41-5.72 42.04 15.55-8.63z" class="ab"/><path d="m522.07 249.73 10.74-39.18-1.32 41.2-9.42-2.02zM499.61 251.17l17.99-43.21-2.62 42.22-15.37.99zM486.97 247.42l7.63-43.37-22.82 38.84 15.19 4.53z" class="ac"/><path d="m577.49 186.07 4.32 5.05-15.85 7.7-6.39-2.82-7.89 4.75-20.48-.98-.85-3.77-9.04-1.25-17.17.54 73.35-9.22zM597.62 208.43l19-8.38 3.78 5.5-22.78 2.88z" class="s"/></g><g id="g"><path d="m565.96 198.82-2.62-18.32-13.56-3.19 4.05 12.58 12.13 8.93z" class="x"/><path d="m545.79 182.19 1.83 4.76h5.39l.82-5.45-3.17-2.48-4.87 3.17zM549.78 160.05l6.36-1.12 4.1 11.44-7.78 3.26-4.84-1.59 2.16-11.99z" class="aa"/><path d="m560.24 170.37-6.41 11.13-8.04.69 1.83-10.15 12.62-1.67z" class="ah"/><path d="m553.83 181.5 12.13 17.32-14.28 1.93-4.06-13.8 6.21-5.45z" class="v"/><path d="m507.37 181.4 14.7 8.23.75 2.74-5.22 3.63-13.46-.71 3.23-13.89z" class="au"/><path d="m522.07 189.63 10.74-1.97-.87 5.49-7.8 3.88-6.54-1.03 4.47-6.37z" class="aa"/><path d="m532.81 187.66 8.08 9.37-9.69 2.74-7.06-2.74 8.67-9.37z" class="ah"/></g><g id="h"><path d="m593.63 239.05-14.84 2.17 9.71 6.17 10.73 3.78 2.92-6.4-2.46-5.57-6.06-.15z" class="bl"/><path d="m604.72 214.3-10.85 22.9 9.84 5.61 12.87-16.14-11.86-12.37z" class="ar"/><path d="m578.79 241.22-1.3 2.64 20.58 9.97 1.16-2.66-20.44-9.95z" class="aj"/><path d="m620.4 205.55-10.91-6.86 1.96-6.32 15.81 5.48-6.86 7.7zM662.19 195.2l-5.83 13.23-6.86-2.97-.82-10.26 5.89-3.53 7.62 3.53z" class="ah"/><path d="m656.36 187.28 5.83 7.92-12.69 1.83-1.73-15.61 8.59 5.86z" class="aa"/><path d="m647.01 174.57 9.35 12.71-10.49 7.47 1.14-20.18z" class="x"/><path d="m658.79 267.21-6.63-.98-5.26-20.74 11.89-.38 1.67 8.28-1.67 13.82z" class="bd"/><path d="m604.11 268.1 6.87-.82 3.37-22.54h-8.9l-1.74 8.65.4 14.71z" class="ay"/><path d="m636.84 242.32-4.65 30.59-6.47-.92-1.05-18.25-18.18-2.62-2.38 16.98-7.78-1 1.75-31.43 26.47 3.19 12.29 3.46z" class="bd"/><path d="m632.19 272.91 5.7-.8 3.15-17.68 14.98-3.31 2.77 16.09 6.33-2.3-1.82-27.69-27.95 5.1-1.73 3.68-1.43 26.91z" class="ay"/><path d="m594.85 229.69-1.22 9.36 39.99 6.95 7.42-15.74-46.19-.57z" class="w"/><path d="m633.62 246 41.65-7.81-2.52-13.46-28.36 4.67-11.51 6.27.74 10.33z" class="bl"/><path d="m611.45 226.42-16.6 3.27 38.03 5.98 39.87-10.94-34.06-2.83-27.24 4.52z" class="ag"/><path d="m630.04 230.26-18.59-3.84-6.73-12.12 22.54-4.43 5.62.68-2.84 19.71z" class="at"/><path d="m609.39 116.21-8.43 45.37 22.34 5.24 9.23 7.87 11.74-3.65 14.14-24.96-16.42-31.92-32.6 2.05z" class="aa"/><path d="m629.11 171.61 3.42-2.74 7.53-35.79 11.51.12 6.84 12.88-4.52 11.29-2.43 2.1.11 3.71-4.56 11.39-5.97 4.45-9.76-.57-2.17-6.84z" class="ah"/><path d="m623.3 166.82 15.39 3.54-7.41 8.09-7.98-11.63z" class="y"/><path d="m610.42 130.97 11.37 14.79 12.57-10-2.57-5.04-6.07.42-2.22 2.48-1.71 1.2-1.2-1.79-.85-2.91-4.36-1.97-4.96 2.82z" class="ah"/><path d="m623.5 133.62-2.91-.59-4.36 11.62 2.4 1.28 3.16-.17 1.71-12.14z" class="ax"/><path d="m616.23 144.65 2.34 3.16 3.22-2.05-5.56-1.11zM653.89 157.37l-6.28-1.6 3.96 7.41 2.32-5.81zM650.75 152.52l1.39-5.56 3.16.85-4.55 4.71zM610.62 149.21l16.64 3.31-4.87 5.3-9.66-2.05-2.11-6.56z" class="y"/><path d="m612.81 151.04 11.52 2.39-1.09.97-9.97-2.05-.46-1.31z" class="an"/><circle cx="628.97" cy="140.63" r="2.14" class="bn"/><circle cx="613.58" cy="137.47" r="2.14" class="bn"/><path d="m610.42 130.97 4.7-4.36 4.62 3.51-4.45-.94-4.87 1.79zM625.72 131.14l6.07-1.45 2.57 6.07-3.85-3.59-4.79-1.03zM603.24 114.13l36.82 18.95 11.4-5.44 7.18-12.57-30.52-11.45-24.88 10.51z" class="aw"/><path d="m640.06 133.08 18.58-18.01 8.46 20.86-4.03 4.7h-3.75l-.91 5.45-7.64-2.45-4.44 8.41-1.58-11.28-4.69-7.68z" class="bm"/><path d="m617.9 107.93 33.48 14.17.08 5.54-6.98 1.15-26.58-20.86z" class="bh"/><path d="m651.38 122.1 11.69 18.53-4.66 5.45-13.93-17.29 6.9-6.69z" class="aw"/><path d="m656.36 208.43-3.33 18.24-22.99 3.59-1.54-12.83 15.98-8.21 11.88-.79z" class="ap"/><path d="m633.62 214.81.74 8.66 5.7-2.07-1.37-10.85-5.07 4.26zM646.8 209.07l-.93 10.28 4.88.82 2.38-11.74-6.33.64z" class="at"/><path d="m631.28 178.45-5.56 22.03 2.78 16.95 27.86-9-9.35-33.86-15.73 3.88z" class="ba"/><path d="m624.91 194.31 7.28-1.16 2.17 7.66-7.1 9.06-6.86-4.32 4.51-11.24z" class="aa"/><path d="m631.28 178.45 9.76 13.85-6.68 8.51-9.45-6.5 6.37-15.86z" class="x"/><path d="m611.45 192.37-.83-6.23-5.9-4.64-1.68 1.34 1.28 2.25 3.43 7.28h3.7z" class="ah"/><path d="m609.49 198.69-6.26-2.69-2.27-5.02 3.36-5.89 7.13 7.28-1.96 6.32z" class="aa"/><path d="m604.32 185.09-8.25-1.36-1.22 6.15 8.38 6.12 1.09-10.91z" class="ah"/></g><g id="i"><path d="m783.33 156.37 10.71-9.12-6.83 21.86-3.88-12.74zM768.15 203.9l22.5-14.7-6.41-13.94-24.41 27.64 8.32 1z" class="o"/><path d="m800.38 182.64-17.05-26.27-11.85 9.92 19.17 22.91 9.73-6.56z" class="z"/><path d="m732.01 241.63-2.52 13.64 3.12 3.49 3.8-1.16 5.98-15.97h-10.38zM750.74 236.95l9.49 7.64 6.09-.12 5.7-5.7-6.27-6.62-4.37-1.89-10.64 6.69z" class="av"/><path d="m768.15 203.9-10.66 25.47-6.75 7.58-3.91-11.88 1.15-18.18 8.14-3.99 12.03 1z" class="av"/><path d="m749.42 209.66 2.87 53.48-2.5 4.07h-4.67l-6.99-22.1-1.67-14.85 12.96-20.6zM706.92 215.59l-3.53 21.23 5.48 27.48 2.06 2.91 4.96-.9 3.15-17.57-1.62-20.1-10.5-13.05z" class="ac"/><path d="m753.39 196.13 14.76 7.77-18.73 5.76-2.59-5 6.56-8.53z" class="bq"/><path d="m687.78 185.41 23.72 6.07 6.26 9.14 16.42-6.76 5.93-8.45-19.95-3.41-16.64-1.48-15.74 4.89z" class="ay"/><path d="m714.74 165.93-6.15 9.46 14.36 2.74 6.54-13.09-14.75.89z" class="bq"/><path d="m729.49 165.04 23.9 8.75v22.34l-6.56 8.53 2.59 5-11.29 35.45-10.65-2.58-8.44 6.21-12.12-33.15 10.84-14.97 16.42-14.23-9.12.74-18.52-5.04-4.96-11.84 21.71 5.14 6.2-10.35z" class="as"/><path d="m701.58 170.25 4.96 11.84-18.76 3.32 3.54-12.67 5.13 2.65 5.13-5.14z" class="bq"/><path d="m701.58 170.25-4.42 13.52-5.84-11.03 10.26-2.49z" class="at"/><circle cx="722.1" cy="171.29" r="1.45" class="at"/><circle cx="714.83" cy="171.46" r="1.45" class="at"/><path d="m753.39 196.13-35.63 4.49-5.92 7.48 37.58 1.56 3.97-13.53z" class="av"/><path d="m731.57 198.88-5.11 5.02 5.11 5.02 4.89-6.02-4.89-4.02z" class="bq"/><path d="m711.5 191.48-4.81 8.13-3.87 15.56 13.35 1.37 1.59-15.92 7.3-13.49-6.02 1.93-3.15 2.4-.89-1.11-3.5 1.13z" style="fill:#96637c;stroke-width:0"/><path d="m719.04 189.06-6.29 11.56 2.25-10.27 4.04-1.29z" style="fill:#734d61;stroke-width:0"/><path d="m719.04 248.74 3.06-20.1 10.51-4.12 5.52 20.59-19.09 3.63z" class="bc"/><path d="m768.15 203.9 3.87 18.68-6.27 9.57-15.01 4.8 17.41-33.05zM772.02 238.77l-5.48 21.2h-3.98l-2.72-2.84.39-12.54 11.79-5.82z" class="ac"/><path d="m708.87 264.3-5.13 7.71H715l.89-5.7-7.02-2.01zM745.12 267.21l-.91 6.64h11.17l-3.09-10.71-7.17 4.07zM759.84 257.13l-3.66 8.08h9.74l.62-5.24-6.7-2.84zM729.49 255.27l-4.43 6.98h10.5l.85-4.65-6.92-2.33z" class="x"/><path d="m741.51 169.44 11.88-2.26 6.59 18.66-6.59 10.29-11-9.91-.88-16.78z" class="ak"/><path d="m803.11 276.01-13.48-4.9-3.96 3.64 3.44 7.38 8.11-2.36 5.89-3.76z" class="ad"/><path d="m766.83 275.12 15.47-3-4.23 11.42-6.04-2.7-5.2-5.72z" class="z"/><path d="m777.38 269.05-3.01 8.85 8.65-3.15 3.25-3.83-8.89-1.87z" class="ak"/><path d="m786.27 270.92 3.85 3.83-1.45 3.69-5.9 2.57-4.79 1.53-3.61-4.64 11.9-6.98z" class="p"/><path d="m790.12 274.75 7.13 4.13-8.84 3.25-5.64-1.12 7.35-6.26z" class="ak"/><path d="m777.38 269.05 7.1-2.95 5.15 5.01.49 3.64-12.74-5.7z" class="ac"/><path d="m766.83 275.12 2.52 9.78 14.4 4.41 2.52-5.15-3.5-3.15-15.94-5.89z" class="ad"/><path d="m783.75 289.31 13.38-2.92 5.98-10.38-20.34 5 .98 8.3z" class="z"/><path d="m671.86 285.22 15.5-2.19 1.71 4.56-4.19 4.2-5.98-1.01-7.04-5.56z" class="bg"/><path d="m747.32 284.82-14.14-3.16-2.62 1.58 3.19 7.54 7.87-2.48 5.7-3.48z" class="ad"/><path d="m683.83 290.56 3.53-7.53 17.78-2.51 2.28.12v-3.21l9.56 1.26 6.97.69 9.23 2.28.57 9.12-30.36 5.47-19.56-5.69z" class="u"/><path d="m687.36 283.03 3.64 6.4 2.51 3.95-9.68-2.82 3.53-7.53z" class="ag"/><path d="m696.14 281.79 5.29 2.9 4.4.13.7 2.66-8.11 7.33-4.91-1.43-2.51-3.95 5.14-7.64z" class="ag"/><path d="m707.42 277.43-5.99 7.26 5.1 2.79h5.22l2.2-5.69-.96-3.1-5.57-1.26z" class="w"/><path d="m706.53 287.48 7.42 5.9 5.51-3.13-1.21-7.22-4.3-1.24-7.42 5.69z" class="ag"/><path d="M723.95 279.38h-5.7l-4.3 2.41 5.6 8.23 3.88-3.91.52-6.73z" class="w"/><path d="m723.95 279.38 5.93 10.87-10.33-.23 4.4-10.64z" class="ag"/><path d="m733.18 281.66-3.3 8.59 7.41.31-4.11-8.9z" class="w"/><path d="m671.86 285.22 33.85 7.39 3.08 2.67-5.4 4.38-25.38-4.85-6.15-9.59z" class="ad"/><path d="m705.71 292.61 41.61-7.79-4.45 9.99-39.48 4.85 2.32-7.05z" class="bg"/><path d="m707.42 277.43 6.53 4.36 10-2.41-3.85-3.79-12.68 1.84z" class="am"/></g><g id="j"><path d="m211.62 275.5-20.95-1.99-2.4-3.64-4.93 2.94-15.63-1.48 4.27-28.73 47.19 1.79-7.55 31.11z" class="aj"/><path d="m211.62 275.5 9.4-2.91 2.53-3.47 2.97 1.76 7.8-2.42-7.8-29.41-10.66 3.55-5.79 5.1 1.55 27.8z" class="bl"/><path d="m226.52 239.05-15.63-.16-3.24.31-.49-.35-13.15-.14-6.72 1.19-.44.61-3.53.09-11.34 2 38.09 5.1 16.45-8.65z" class="ag"/><path d="m183.34 272.81 5.38-27.96 4.72-1.43 1.23 2.22-4 27.87-7.33-.7z" class="ba"/><path d="m226.52 270.88-6.75-28.28h-3.06l-1.2 2.25 5.51 27.74 5.5-1.71z" class="av"/><path d="m219.77 242.6-32.48-2.7-3.97.7 32.19 4.25 4.26-2.25z" class="as"/><path d="m188.72 244.85 18.44-6 3.73.04-16.22 6.75-5.95-.79z" class="bc"/><path d="m188.72 286.51-3.41-23.95L140 266.9l2.51 28.5 20.12-3.87 3.01-3.51 4.94 1.98 18.14-3.49z" class="av"/><path d="m145.02 270.59-5.02-4.81-26.1-.89-5.3 23.4 13.06 2.74 4.29-2.58 2.92 4.09 13.64 2.86 2.51-24.81z" class="br"/><path d="m185.31 262.56-16.06-1.59-8.16-.05-.94-.85-10.35-1.02-11.48 1.87-2.49 1.64h-7.63l-14.3 2.33 31.12 5.7 40.29-8.03z" class="ab"/><path d="m170.58 290-2.87-23.93-7.48-.52.47 1.91 1.93 24.07 7.95-1.53zM121.66 291.03l5.57-23.7 5.47-.65 1.36 1.9-5.19 23.96-7.21-1.51z" class="ab"/><path d="m167.71 266.07-29.39-5.15-10.12 1.64 32.5 4.9 7.01-1.39z" class="ao"/><path d="m127.23 267.33 32.92-7.26 9.1.9-35.19 7.61-6.83-1.25z" class="bq"/></g><g id="k"><path d="m249.84 270.59-1.31 8.26 2.49 1.6-3.14 2.52 9.66 1.77 9.67-1.77-2.91-5.62-2.17-.61.65-2.33-3.64-7.03-5.95-.7-3.35 3.91z" class="ba"/><path d="m249.61 261.28.23 9.31 9.3-3.21 6.42-16.76-15.95 10.66z" class="aa"/><path d="m248.77 224.92.38 16.37 3.81 7.72-3.64-.21.29 12.48 51.02 4.5-1.49-7.82-3.89-2.91 2.88-2.35-6.76-35.49-24.21-.4-18.39 8.11z" class="aj"/><path d="m257.2 209.01-8.43 15.91 42.6-7.71-24.16-12.09-10.01 3.89z" class="bl"/><path d="m256.15 163.74-8.27 5.23 7.25 28.29 17.86 1.02 25.31-15.84-.9-29.08-16.63-1.7-24.62 12.08z" class="ai"/><path d="m256.15 163.74 7.27 8.62 22.54-11.12-5.19-9.58-24.62 12.08z" class="aa"/><path d="m226.88 142.9 5.93 21.87 5.99-2.09 1.54-4.18 4.89 1.93 6.33-2.21 5.67-6.56-18.43-19.95-5.99 1.77-5.93 9.42z" class="bm"/><path d="m234.61 137.82 4.19 24.86 6.43-2.25-3.75-14.34-.72-5.03-6.15-3.24z" class="aw"/><path d="m287.78 95.25 14.58 48.38-21.59 8.03-11.62 9.58-8.81.25-25.73-23.67v-13.66l22.4-32.11 16.16-3.2 14.61 6.4z" class="aa"/><path d="m270.34 158.73-4.3-.91-13.65-31.01-12.91-1.91-4.87 12.92 6.87 8.27 3.81.53 1.97 6.42 8.89 10.7 15.05 1.03-.86-6.04z" class="ah"/><path d="m280.77 151.66-19.15 7.13 9.58 5.98 9.57-13.11zM241.48 146.09l6.89-4.09.4 5.52-1.51 5.52-5.78-6.95zM238.8 139.35l3.67-2.48 2.14 4.19-5.81-1.71z" class="y"/><path d="m289.78 107.44-11.91 20.8-20.18-10.86 4.24-3.93 8.24-1.03 4.02 2.23 2.99 1.45.89-2.79.65-3.82 5.25-4.12 5.81 2.07z" class="ah"/><path d="m274.19 114.65 3.88-1.34 5.84 12.88-2.85 2.22-3.19-.17-3.68-13.59z" class="ax"/><path d="m277.87 128.24 6.04-2.05-2 3.47-4.04-1.42z" class="y"/><circle cx="268.69" cy="121.63" r="2.05" class="bn"/><circle cx="285.96" cy="115.19" r="2.05" class="bn"/><path d="m270.17 112.42-7.44-.45-5.52 4.21.48 1.2 6.41-3.42 6.07-1.54zM278.72 109.49l4.3-4.31 6.24.97.52 1.29-6.78-.23-4.28 2.28z" class="ap"/><path d="m271.81 138.33 9.75 1.59 5.81-1.91 6.11-7.04-10.01 4.89-11.66 2.47z" class="ag"/><path d="m271.81 138.33 6.83-2.94 4.07-3.11 4.3.29 6.47-1.6-9.57 5.79-12.1 1.57z" class="bl"/><path d="M287.78 95.25 271.2 93.3l-10.72-2.39-5.92-8.66 19.63 2.39 4.86 3.79v1.34l4.86 2.45 3.87 3.03z" class="aw"/><path d="m271.2 93.3-18.81 33.51-15.88 4.16-13.41-2.01 5.78-25.26 13.49-13.18 12.19-8.27L271.2 93.3z" class="bm"/><path d="m259.06 85.24 19.99 3.19 4.86 3.79-19.59-3.49-3.98-.84-1.28-2.65z" class="bh"/><path d="m244.05 132.07 4.09 7.85 4.25-13.11-7.16 2.15-1.18 3.11z" class="bm"/><path d="m252.39 126.81-25.51 16.09-1.24-4.57.76-2.88-1.89-1.29-1.41-5.2 29.29-2.15z" class="ar"/><path d="m264.32 88.73-22.84 38.88-5.67 1.35-3.85-.65 27.1-43.07 5.26 3.49zM242.37 90.52l-19.27 38.44 3.78-27.91 15.49-10.53z" class="aw"/><path d="m231.96 128.31-7.45 5.85 1.13 4.17 15.84-10.72-9.52.7z" class="bm"/><path d="m248.14 139.92 3.33 5.51-2.7 2.09-4.16-6.46 3.53-1.14z" class="bl"/><path d="m255.13 197.26 2.07 11.75 34.17 8.2 6.93-34.77-43.17 14.82z" style="fill:#275b6c;stroke-width:0"/><path d="m247.88 168.97 21.08 20.33-13.83 7.96-9.56-7.22 2.31-21.07z" style="fill:#245362;stroke-width:0"/><path d="m255.13 197.26 24.39-24.9 8.6 7.17-14.95 20.46-18.04-2.73z" style="fill:#204b59;stroke-width:0"/><path d="m249.15 241.29 48.98 11.41 1.01 5.26-49.82-9.16-.17-7.51z" class="ac"/><path d="M247.88 282.97h19.33v3.54h-19.33z" class="x"/><path d="M281.83 268.67v9.83l9.66 1.77 18.6-1.77-17.08-12.85-5.87-1.65-5.31 4.67z" class="ba"/><path d="M281.83 278.5h28.27v3.54h-28.27z" class="x"/><path d="m247.88 282.97 16.42-5.62-1.52-2.94-14.25 4.44-.65 4.12z" class="br"/></g><g id="l"><path d="m374.24 151.23 10.91 15.44-2.3 18.85-7.49 6.46-11.82-26.41 2.5-17.15 8.2 2.81z" class="w"/><path d="m398.77 175.89 9.93 2.24 2.93-5.95-7.36-5.14-19.12-.37 5.58 9.53 8.04-.31z" class="aa"/><path d="m384.67 166 6.06 7.26 13.54-6.22-3.24-2.27H389.4l-4.73 1.23z" class="ah"/><path d="m408.7 178.13-4.43-11.09 19.16-.75-7.08 6.97-7.65 4.87z" class="ah"/><path d="m375.36 191.98 21.33 5.69 2.08-21.78-14.1-9.89-9.31 25.98z" class="bl"/><path d="M356.76 272.88v8.07l16.71 1 17.26-1-12.07-11.43-9.17-6.96-5.63 2.28-7.1 8.04z" class="bk"/><path d="M356.76 280.86h33.97v4.22h-33.97zM370.73 265.66l4.9 5.13 3.03-1.27-5.41-5.33-3.76-1.63 1.24 3.1z" class="bl"/><path d="m336.17 273.64 4.55 14.95-11.41 2.11-14.22-2.11 1.56-9.48 6.17-8.91 13.35 3.44z" class="bk"/><path d="M315.09 288.59h25.62v4.22h-25.62zM329.82 275.17l-1.34 5.6-2.82.19.77-7.1 3.39 1.31z" class="bl"/><path d="m344.73 237.85 4.09 10.45 17.23 1.43 9.63-12.77 3.02-29.36-30.7 14.45-3.27 15.8z" class="x"/><path d="m316.05 210.28.35 38.19 11.5 10.45 18.37-5.88 5.53-10.29 5.94-10.71-22.1-23-19.59 1.24z" class="ba"/><path d="m346.27 253.04-29.87-4.57.25 30.64 19.52-5.47 10.1-20.6z" class="x"/><path d="m375.68 236.96-26.86 11.34 7.94 24.58 16.49-8.69 2.43-27.23zM378.7 207.6l-20.96 24.44-41.69-21.76 35.96-6.11 26.69 3.43z" class="ay"/><path d="m320.98 145.43-6.7 8.22-6.59 24.57 5.28 26.08 48.75.82 14.94-7.07-13.82-43.65-7.58-9.66-34.28.69z" style="fill:#50a9aa;stroke-width:0"/><path d="m320.98 145.43 6.71 60.58-14.72-1.71-5.28-27.52-1.29-26.42 14.58-4.93zM366.04 148.42l10.62 49.63-8.92 7.01-9.72-47-5.02-7.7 2.26-5.62 10.78 3.68z" class="x"/><path d="m343.67 153.04 14.35 5.02-2.76-13.32-9.38.69h-24.9l10.56 17.25 12.13-9.64z" class="am"/><path d="m329.48 71.64 22.06 2.23 15.54-9.75 9.86 73.7-21.98 5.3-21.04 1.67-5.34-10.03-13.5-12.98-7.39-11.37 9.55-8.95 8.13 12.62 5.14-4.23-19.08-27.4 18.05-10.81z" class="aa"/><path d="m329.48 71.64 11.17 71.9 5.23 3.37-10.3 3.42-14.6-4.9-4.1-16.47 1.17-6.71 6.96-6.8 2.1-6.74-19.42-29.2 21.79-7.87z" class="ah"/><path d="m320 114.77-3.41-6.06-4.52 2.77 7.93 3.29zM315.08 121.78l9.93-6.33-8.13 13.51-1.8-7.18z" class="y"/><path d="m340.7 94.2 6.15 1.41 6.15 14.68-.33-12.27-2.93-8.25-3.78.52-5.26 3.91zM357.11 88.76l-1.5 7.83 3.69 6.29 2.99-11.13 4.5-2.9-4.7-1.84-4.98 1.75z" class="ah"/><path d="m340.65 143.54-5.07 6.79 8.09 2.71 11.59-8.3 21.68-6.92-36.29 5.72z" class="y"/><path d="m356.64 85.97 9.68-.26.47 3.14-9.68-.09-.47-2.79zM349.31 86.96l-9.57 4.24.96 3 9.04-4.43-.43-2.81z" class="at"/><path d="m341.09 119.31 29.33-4.34-11.41 10.47-17.92-6.13z" class="y"/><path d="m348.95 119.94 15.79-2.39-6.28 5.71-9.51-3.32z" class="an"/><path d="m334.03 55.13-19.75 12.08 8.2 4.72 7-.29 22.81 5.92-7.19-11.78-11.07-10.65z" class="at"/><path d="M314.28 67.21 298.3 77.64l9.49 4.27 6.16.34 15.53-10.61-15.2-4.43z" class="z"/><path d="m298.3 77.64 9.39 32.77 9.85-6.6 7.47 11.64 7.38-4.74-18.44-28.46-15.65-4.61z" class="at"/><path d="m352.29 77.56-18.26-22.43 33.05 8.99-14.79 13.44z" class="r"/><path d="M361.8 92.3c-1.18.58-1.65 1.91-1.07 3.1s1.93 1.68 3.11 1.11 1.63-1.95 1.05-3.13-1.91-1.65-3.09-1.07ZM344.83 95.48a2.33 2.33 0 0 0-1.09 3.15c.56 1.15 1.96 1.67 3.15 1.09s1.61-1.98 1.05-3.13c-.58-1.19-1.96-1.67-3.11-1.11Z" class="bn"/><path d="m349.74 89.77 7.37-1.01 3.17 20.43-3.44 1.41-3.84-.31-3.26-20.52z" class="ax"/><path d="m360.28 109.19-3.29 3.91-3.99-2.81 7.28-1.1z" class="y"/><path d="m378.7 207.6-2.04-9.55-19.71 1.94-3.97 1.14-8.25.05-31.76 3.12 3.08 5.98 29.79-1.27 7.43-1.41 4.47.9 20.96-.9z" style="fill:#454d5d;stroke-width:0"/><path d="m356.95 199.99-12.21 1.2 1.11 7.82 11.9-.51-.8-8.51Zm-8.73 6.9-.85-3.94 7-.92.6 4.35-6.75.51Z" class="ao"/><path d="m271.2 180.92 10.96-2.75 7.76-6.25 9.65 1.88 36.01-9.03 5.15 19.49 1.45 31.83-47.96 9.43-18.38-.17-1.74-16.34 3.48-4.51-4.41-4.51-1.97-19.07z" class="ba"/><path d="m335.58 164.77 14.26 4.2-.51 20.19-3.06 4.9 2.78 6.71-.41 16.21h-7.91l-1.23-2.06-3.92-50.15z" class="ac"/><path d="m348.64 216.98-24.9 5.1-12.38.08-7.73 4.04-12 2.46-15.82-3.14 63.69-10.6 9.14 2.06z" class="x"/><path d="m349.33 189.16-12.13-3.64-3.2 2.73 3.85 5.49 11.1 7.03.38-11.61z" class="v"/><path d="m337.2 185.52-64.03 14.47.93 9.02 63.75-15.27-.65-8.22z" class="ai"/><path d="m374.34 163.63 42.01 9.63 2.57-2.56 5.25-6.73-48.92-5.13-.91 4.79z" class="at"/><path d="m417.33 168.44 9.34-7.2 28.27 1.44-2.28 7.27-36.31 3.31.98-4.82z" style="fill:#545c6d;stroke-width:0"/><path d="m375.25 158.84 37.18-7.18 42.51 11.02-37.61 5.76-42.08-9.6z" class="z"/><path d="m375.25 158.84 37.18-7.18 3.59 12.08-23.43-.94-17.34-3.96z" class="s"/><path d="m416.02 163.74-7.01-14.36 5.19-18.33 17.95 1.69 6.18 5.08.49 4.61-1.94 2.36 2.34 1.32.59 5.55-1.48 4.2 2.26 3.1.24 2.28-24.81 2.5z" class="u"/><path d="m414.2 131.05-23.19 3.2-1.5 7.1 1.5 1.85-2.03.7-.95 4.52.95 2.13-1.63 1.11-1.06 5.05 29.73 7.03-1.82-32.69z" class="ag"/><path d="m438.33 137.82-7.1-2.46-16.4 7.07-2.4-4.61-2.63-8.86h27.59l.94 8.86z" class="ao"/><path d="m414.83 142.43-7.76-5.59-9.35 2.8-6.71-5.39 1.58-7.55 17.21.9 4.4 3.45.63 11.38z" class="ab"/><path d="m392.59 126.7 21.61-2.54 23.19 4.8-23.19 2.09-21.61-4.35z" class="bq"/><path d="m400.8 126.87 14.3-1.62 7.7 1.88-2 .55-3.93.13-5.81 1.2-10.26-2.14z" class="s"/><path d="m440.59 158.96-24.78 1.1-.98-2.84.69-2.38 24.29-3.18.78 7.3zM438.82 142.43l-23.76 4.02-1.21 1.97 1.39 1.37 23.98-3.68-.4-3.68z" class="ba"/><path d="m415.06 146.45-25.55-5.1-.53 2.55 26.26 5.89-.18-3.34zM415.52 154.84l-27.49-6.42-.68 3.24 28.46 8.4-.29-5.22z" class="x"/><path d="m413.57 103.56-3.42-4.22 3.76-11 2.91 10.77-3.25 4.45z" class="bp"/><path d="m413.34 105.1-.74-5.3 1.59-.4.06 5.87-.91-.17z" class="ac"/><path d="m411.91 104.73 4.11-1.11-.78 22.71-2.81.45-.52-22.05z" class="bd"/><path d="m426.45 111.54-2.4-4.28 3.37-9.57 3.24 9.8-4.21 4.05z" class="bp"/><path d="m425.54 113.19.56-5.24 1.66-.06-1.37 5.64-.85-.34z" class="ac"/><path d="m420.8 127.68 3.27-15.73 3.96 1.03-4.92 14.62-2.31.08z" class="bd"/><path d="m402.05 93.99-3.99 10.37 5.02 4.44 2.74-5.75-3.77-9.06z" class="bp"/><path d="m402.91 110.68-1.37-5.13 1.54-.79.8 5.7-.97.22z" class="ac"/><path d="m407.65 127.26-2.52-17.91-3.98.73 3.83 17.05 2.67.13z" class="bd"/><path d="m320.94 222.66 9.77 18.13-7.45.89-3.17-13.61.85-5.41zM309.89 224.92l3.08 13.8-5.15.33-2.31-11.47 4.38-2.66z" class="bl"/><path d="m293.88 234.87 22.93 2.61 44.91 5.37-32.62 19.71-48.67-7.64 13.45-20.05z" class="aj"/><path d="m355.89 227.12 3.68 2.78.94 3.58 2.63-.89 3.48 2.62-4.9 7.64-19.54 18.54-5.28-3.84 8.94-21.42 10.05-9.01z" class="as"/><path d="m359.57 229.9 3.57 2.69-8.16 14.33-7.6 13.94-2.15-5.36 6.53-10.83 7.81-14.77z" class="ac"/><path d="m355.89 227.12-9.06-3.06-3.52.12-.8-1.58-8.06-2.72-16.65 32.13 19.1 5.54 18.99-30.43z" class="av"/><path d="m346.83 224.06-17.01 31.44-3.56-1.04 16.25-31.86 4.32 1.46z" class="v"/><path d="m291.37 217.21 14.12 4.58 5.87 26.68-9.25 2.15-9.85-15.52-.89-17.89z" class="as"/><path d="m291.37 217.21-10.38 5.45-1.59 4.46-3.56-1.77-8.63 4.53 8.6 23.12 26.3-2.38-10.74-33.41z" class="av"/><path d="m275.84 225.35 10.94 26.66 6.18-.56-11.97-28.79-5.15 2.69z" class="p"/><path d="m307.92 232.93-2.7 12-5.65-2.2 4.06-16.53 5.1 1.87-.81 4.86zM319.23 233.48l.82 12.82 7.11-.59-6.22-23.05-3.29 3.54 1.58 7.28zM306.4 150.36l-9 3-5.14 42.31 14 6.36 6.19-16.51-6.05-35.16z" class="w"/><path d="m296.08 168.44-9.24 4.82-4.68 4.91 11.71 4.27 6.86-8.93-4.65-5.07z" class="s"/><path d="m315.54 209.53 6.73 5.39-1.33 7.74-2.65-1.23-2.75-11.9z" class="ah"/><path d="m315.54 209.53 5.4 13.13-8.23 7.22-9.08-3.68-1.86-10.88 5.92-5.04 7.85-.75z" class="aa"/><path d="m320.94 222.66-1.71 10.82-11.31-.55-4.29-6.73 17.31-3.54z" class="ah"/><path d="m292.26 195.67 9.51 19.65 13.77-5.79-3.09-24.01-20.19 10.15z" class="bl"/><path d="m271.2 240.6-1.46 31.66 69.71 12.18 6.82-20.65-2.21-17.71-72.86-5.48z" class="ag"/><path d="m339.45 284.44 9.29-2.09 1.24-.79 3.26.19 7.32-.89 1.16-38.01-17.66 3.23-4.61 38.36z" class="u"/><path d="m348.74 282.35 3.02-37.68 1.48 37.08-4.5.6z" class="ag"/><path d="m295.08 256.84 10.17 11.97 12.4-9.4-6.84-5.56-4.53 3.08-3.51-4.02-7.69 3.93z" class="u"/><path d="m279.52 172.36 9.29-14.14 2.82 10.67-.69 7.08-8.78 2.2-2.64-5.81z" class="ah"/><path d="m288.81 158.22 15.91 2.31-3.99 12.98-9.79 2.46-2.13-17.75z" class="aa"/></g><g id="m"><path d="m426.96 288.01 2.74 10.85 11.13 3.1 3.51-1.85 3.13 3.71 12.66 3.53 11.64-16.07-44.81-3.27z" class="av"/><path d="m460.13 307.35 26.61-2.35 4.03-4.89 5.78 4.13 17.61-1.07 5.26-17.21-35.87 2.05-22.06 8.88-1.36 10.46z" class="br"/><path d="m426.96 288.01 33.17-3.68 5.02.39 2.11-1.19 21.18-2.35 10.5 1.62 1.2 1.18 6.16-.04 13.12 2.02-57.93 10.93-34.53-8.88z" class="ab"/><path d="m439.66 291.28 59.28-8.48 7.36 1.14-58.21 9.5-4.22 1.31-4.21-3.47z" class="ao"/><path d="m439.66 291.28 1.17 10.68 6.64 1.86.62-10.38-8.43-2.16zM486.74 305l-1.75-12.55.73-2.24 8.88.43 1.95 13.58-9.81.78z" class="ab"/><path d="m484.99 292.45-24.86-8.12 7.13-.8 27.34 7.11-9.61 1.81z" class="bq"/><path d="m488.44 281.18 4.38 23.28 11.7 2.49 5.65-2.72 2.2 4.39 15.8 3.36 10.59-23.93-50.32-6.87z" class="ba"/><path d="m561.54 281.79-4.49 23.81-9.59 2.12-3.2-1.55-4.35 3.22-11.74 2.59 3.46-20.7 7.13-6.77 22.78-2.72z" class="ak"/><path d="m488.44 281.18 14.88-3.69 5.46.07 1.39-1.77 9.36-2.32 12.86 2.55 1.24 1.88 5.13-.62 22.78 4.51-29.91 9.49-43.19-10.1z" class="av"/><path d="m532.39 276.02-26.81 9.17 4 5.02 6.23-2.63 22.95-10.3-6.37-1.26z" class="am"/><path d="m505.58 285.19-1.06 21.76 7.85 1.67 3.44-21.04-10.23-2.39z" class="ag"/><path d="m503.32 277.49 38.83 10.45 3.91 3.34 4.77-6.09-40.66-9.4-6.85 1.7z" class="u"/><path d="m542.15 287.94-2.24 21.45 7.55-1.67 3.37-22.53-8.68 2.75z" class="w"/><path d="m416.35 237.48 2.27 33.31 12.15 1.65 5.25-3.37 2.54 4.43 16.38 2.23 10.03-34.05-48.62-4.2z" class="bl"/><path d="m457.11 247.2 9.18-4.66 24.66-1.75-2.38 27.82-13.63 2.89-3.54-1.98-2.94 3.35-13.52 2.86 2.17-28.53z" class="aj"/><path d="m416.35 237.48 24.31-1.84 4 .51 1.71-.94 16.42-1.23 8.99 2.17 1.41 1.33 5.82.42 11.94 2.89-33.84 6.41-40.76-9.72z" class="ag"/><path d="m468.46 272.87 1.47-28.1 3.38-2.23 4.35.77-2.72 28.19-6.48 1.37z" class="ac"/><path d="m477.66 243.31-31.29-8.1-5.71.43 29.27 9.13 7.73-1.46z" class="bc"/><path d="m430.77 272.44 2.86-30.84h7.03l4 2.63-6.1 29.27-7.79-1.06z" class="as"/><path d="m433.63 241.6 38.15-5.45 7.23 1.75-34.35 6.33-11.03-2.63z" style="fill:#ecf4f7;stroke-width:0"/></g><g id="n"><path d="m226.8 295.09-3.1-12.77 5.06 3.35-1.96 9.42z" class="w"/><path d="m217 282.32 11.76 3.35 7.16-4.22-9.47-5.05-9.45 5.92z" class="am"/><path d="m223.7 281.45 2.76-2.09 3.22 1.67-2.31 1.29-3.67-.87z" class="ag"/><path d="m207.76 305.78-3.51-6.81 2.62-2.93.89 9.74z" class="w"/><path d="m204.25 298.97 7.41-3.87-9.22-2.79-6.87 5.27 8.68 1.39z" class="am"/><path d="m200.52 295.77 2.22-1.45 2.46.54-2.07 2.11-2.61-1.2z" class="ag"/><path d="m403.87 297.78 1-14.57 3.93 4.82-4.93 9.75z" class="w"/><path d="m398.02 281.23 10.78 6.8 12-3.82-10.31-8.04-12.47 5.06z" class="am"/><path d="m406.04 282.1 3.37 1.69 3.58-1.29-3.48-2.18-3.47 1.78z" class="ag"/><path d="M577.49 288.2 576 270.78l4.58 4.9-3.09 12.52z" class="w"/><path d="m580.58 275.68 10.2-3.15-11.51-6.2-11.71 5.31 13.02 4.04z" class="am"/><path d="m576 270.78 3.01-1.91 3.54 1.45-3.28 1.9-3.27-1.44z" class="ag"/><path d="m603.15 296.46-.28-6.78-5.1-2.92 5.38 9.7z" class="w"/><path d="m602.87 289.68 6.16-5.25-9.34-3.14-9.22 4.79 12.4 3.6z" class="am"/><path d="m598.16 285.48 2.3-1.52 2.69.76-2.5 2.04-2.49-1.28z" class="ag"/><path d="m648.34 289.52 1.92-14.1 3.81 4.08-5.73 10.02z" class="w"/><path d="m654.07 279.5-11.64-2.96 8.68-5.19 11.08 4.24-8.12 3.91z" class="am"/><path d="m650.26 275.42 2.05-1.59 3.12 1.59-2.58 1.4-2.59-1.4z" class="ag"/></g></svg>