<svg xmlns="http://www.w3.org/2000/svg" id="a" viewBox="0 0 900 320"><defs><style>.j{fill:#404857}.aa,.ab,.ae,.ah,.ai,.aj,.ak,.al,.am,.an,.ar,.as,.aw,.ay,.az,.ba,.bc,.bd,.be,.bf,.bg,.bh,.bi,.bk,.bl,.bm,.j,.k,.l,.m,.o,.p,.q,.r,.s,.t,.u,.v,.w,.x,.z{stroke-width:0}.aa,.ab,.ae,.ah,.ai,.aj,.ak,.al,.am,.an,.ar,.as,.aw,.ay,.az,.ba,.bc,.bd,.be,.bf,.bg,.bh,.bk,.bl,.bm,.j,.k,.l,.m,.o,.p,.q,.s,.t,.u,.v,.w,.x,.z{fill-rule:evenodd}.k{fill:#ccae2d}.l{fill:#9e7700}.m{fill:#eeeff1}.o{fill:#5f5044}.p{fill:#2e3544}.q{fill:#e8cab6}.r{fill:#664e1a}.s{fill:#46382d}.t{fill:#c3987b}.u{fill:#3d4554}.v{fill:#7d5f1f}.w{fill:#74665b}.x{fill:#856400}.z{fill:#68707f}.aa{fill:#9b6533}.ab{fill:#e9be61}.ba{fill:#f6e6c4}.ae{fill:#bbbfc6}.ai{fill:#454d5d}.ah{fill:#eece88}.aj{fill:#f4d75c}.ak{fill:#29303e}.al{fill:#886822}.am{fill:#7c4f24}.an{fill:#af7546}.ar{fill:#9f7928}.as{fill:#d8a537}.aw{fill:#fff}.ay{fill:#dfbda5}.az{fill:#aa822b}.bc{fill:#8b6651}.bd{fill:#e4c824}.be{fill:#1d2432;opacity:.1}.bf{fill:#c29431}.bg{fill:#947125}.bh{fill:#755800}.bi{fill:#232a38}.bk{fill:#b68b2e}.bl{fill:#fff7ae}.bm{fill:#4b5464}</style></defs><g id="b"><path d="m54.77 277.04 108.99-17.67 23.96-4.6 25.84 3.93 88.95 6.8-66.21 24.75-75.29 7.69-106.24-20.9zM552.53 282.34l-50.89-7.04-6.06-1.81-22.58 3.25-31.97 9.03 41.53 11.25L530 292.1l22.53-9.76zM590.78 272.53l107.4-21.44 98.28 11.47 60.91 12.74-60.81 16.9-87.61 4.64-83.88-13.13-34.29-11.18zM431.94 252.14l80.21-11.23 20.09-2.52 9.11-1.54 107.04 6.63-22.81 9.84-61.29 18.19-68.13-2.61-64.22-16.76zM237.77 293.66l25.49-3.3 86.74 6.47 20.39 16.03-115.72-5.11-16.9-14.09z" class="be"/></g><g id="c"><path d="m548.91 41.87 41.24-31.13-10.06 39.03-31.18-7.9z" class="bl"/><path d="m590.15 10.74 46.97 16.07-20.6 30.78-38.62-21.16 12.25-25.69zM548.91 41.87l10.18 46.43 31.06-13.71-12.25-38.16-28.99 5.44z" class="aj"/><path d="m613.64 44.41-7.18 46.72-30.61-16.54 2.05-38.16 35.74 7.98zM637.12 26.81l6.97 43.28-21.54-5.79-8.91-19.89 23.48-17.6z" class="bd"/><path d="m601.01 78.74 12.63-34.33 30.45 25.68-24.29 13.8-18.79-5.15zM610.88 108.17 559.09 88.3l16.76-13.71 25.16 4.15 15.19 8.6-5.32 20.83z" class="k"/><path d="m601.01 78.74 9.87 29.43 33.21-38.08-43.08 8.65z" class="ar"/><path d="m129.79 48.96 22.6 11.96-28.64 21.54 6.04-33.5z" class="bl"/><path d="m129.79 48.96-22.25 4.42-1.47 35.23 24.42-17.26-.7-22.39z" class="aj"/><path d="m152.39 60.92 9.68 19.33-26.74 12.34-4.84-21.24 21.9-10.43z" class="aj"/><path d="m130.49 71.35-18.81 7.72 13.55 28.21 14.21-22.2-8.95-13.73z" class="bd"/><path d="m162.07 80.25-13.47 30.63-19.37-2.61-4-9.08 14.21-14.11 22.63-4.83z" class="k"/><path d="m111.68 79.07-4.14-25.69-16.19 14.07 8.87 10.57 11.46 1.05z" class="bd"/><path d="m91.35 67.45-2.6 25.14 14.93-.98 8-12.54-20.33-11.62z" class="k"/><path d="m88.75 92.59 9.1 15.68 13.83 1.18 13.55-10.26-13.55-20.12-22.93 13.52z" class="az"/><path d="m125.23 99.19 23.37 11.69-26.53 10.62-3.79-12.05 6.95-10.26z" class="ar"/><path d="m122.07 121.5-24.22-13.23 27.38-9.08-3.16 22.31z" class="al"/><path d="m722.96 29.01-16.5 9.09 22.33 14.16-5.83-23.25z" class="bl"/><path d="m722.96 29.01 17.06 5.65-2.59 17.6-13-7.98-1.47-15.27z" class="aj"/><path d="m706.46 38.1-5.69 16.69 11.83 10.65 11.83-21.16-17.97-6.18z" class="aj"/><path d="m734.69 46.12 1.04 23.26-25.53-10.37 14.23-14.73 10.26 1.84z" class="bd"/><path d="m740.02 34.66 12.36 13.89-17.69-2.43 5.33-11.46zM700.77 54.79l11.15 18.46 3.37-5.86-5.09-8.38-9.43-4.22z" class="bd"/><path d="m731.49 63.69-1.66 7.72-7.74 6.53-10.17-4.69-1.72-14.24 21.29 4.68zM752.38 48.55 746 70.03l-12.39.19-2.12-6.53 3.2-17.57 17.69 2.43z" class="k"/><path d="m746 70.03-23.91 7.91 9.4-14.25L746 70.03z" class="ar"/></g><g id="d"><path d="m672.26 72.68 1.52-10.65 4.54 9.39 8.89-2.18-7.49 5.67 5.42 8.29-8.33-4.7-5.43 7.13 1.44-8.51-8.77-2.22 8.21-2.22zM632.25 118.63l5.17-10-.59 11.75 8.18 3.44-8.68-.28.48 9.27-4.78-8.69-7.57 2.81 5.88-5.16-4.35-5.99 6.26 2.85zM518.66 30.26l-1.58-13.18 7.55 12.3 11.43-2.28-9.14 5.62 6.33 9.14-10.2-5.62-7.38 8.96 3.52-10.55-10.72-2.63 10.19-1.76zM419.9 120.73l1.28-9.84 3.85 8.41 7.98-2.14-6.27 4.99 5.56 5.85-7.84-2.99-3.99 6.27.71-7.13-8.27-1 6.99-2.42zM295 28.9l8.62-10.89-3.52 12.65 10.37 3.69-11.25.7 1.58 12.13-5.27-9.67-9.66 2.64 7.73-6.5-7.38-7.73L295 28.9zM259.22 73.71l.89-9.06 4.16 7.87 8.32-2.37-6.83 5.35 5.35 7.72-7.88-4.31-4.3 6.99.89-8.18-7.73-1.63 7.13-2.38zM178.77 38.89l4.57-5.62-.88 6.85 6.68 3.16-6.85-.17-.53 6.85-2.46-6.33-6.33 1.59 4.75-4.22-4.57-4.22 5.62 2.11zM90.77 156.53l-1.69-7.76 5.36 6.63 7.76-2.68-6.07 5.5 5.08 4.94-6.49-2.11-1.97 6.35-.85-7.2-7.06-.14 5.93-3.53zM554.03 133.74l.36-7.73 2.98 7.03 6.15-.88-5.09 3.34 2.81 5.62-4.75-4.04-3.33 5.27 1.23-6.15-6.16-2.11 5.8-.35zM391.71 36.62l-.71-8.43 4.46 7.73 7.96-1.87-6.79 4.45 4.92 6.09-6.56-3.75-3.75 6.09 1.17-7.26-7.5-2.81 6.8-.24zM431.07 23.36l6.33-14.99.94 16.63 11.48 2.35-11.72 2.34 2.11 14.53-7.03-12.66-11.25 5.86 6.8-8.43-9.14-9.14 11.48 3.51z" class="aj"/></g><g id="e"><path d="m541.32 255.67-7.03 10.12-9.49-1.15-20.64-2.66 2.53-9.94 34.63 3.63z" class="bg"/><path d="m570.73 253.21 1.64 9.82-38.08 2.76 1.63-7.31 8.1-3.87 26.71-1.4z" class="al"/><path d="m506.69 252.04 32.38-4.32 31.66 5.49-34.81 5.27-29.23-6.44z" class="bk"/><path d="m532.24 238.39 1.35 15.48h4.57l4.74-25.27-10.66 9.79z" class="o"/><path d="m433.91 190-13.98 38.09 9.25.96 3.99-1.67.74 2.16 3.69.39 9.23-4.39 5.01 3.21 9.4 3.71 9.49-5.11 7.9 5.81 27.07 3.28 6.73-4.01 4.03 3.52 15.78 2.44 7.79-24.73 5.16-24.38-111.28.72z" class="ah"/><path d="m532.24 238.39 14.49-2.44 2.25-2.41 3.79 1.39 8.21-1.39 6.59-1.11 3.16-5.05 9.74 3.73 33.07-3.39 2.71-2.18 6.86 1.2 15.29-1.57-12.31-38.59-64.26 1.78-26.83 9.92-2.76 40.11zM459.98 192.14l-8.14 36.61-14.24 1.18 22.38-37.79zM461.24 232.46l21.24-34.18 4.37-4.97-8.22 39.85-17.39-.7z" class="ab"/><path d="m567.57 232.43-6.59-37.49 3.29-1.63 16.2 37.8-12.9 1.32zM560.98 233.54l-7.94-39.35-7.02 2.67 14.96 36.68zM587.35 230.4 577.06 190l12.52 1.27-2.23 39.13zM552.77 234.93l-7.58-18.48 1.54 19.5 6.04-1.02zM605.32 189.24l8.22 38.48 9.57-.98-17.79-37.5z" class="as"/><path d="m429.18 229.05 14.35-29.93-9.62 30.42-4.73-.49zM525.27 197.48l-2.01 8.32-6.8 30.15-10.76.49 11.63-40.84 7.94 1.88z" class="ab"/><path d="M433.91 190 535 198.28l91.09-11.7-81.31-8.13L433.91 190z" style="fill:#f6e6c4;stroke-width:0"/><path d="m577.88 184.16 11.7.94-9.11 4.18-18.64-.92 7.61-2.78 8.44-1.42z" class="be"/><path d="m552.04 182.8 8.15-25.16 9.25 19.68-9.44 7.78-5.32-.94-2.64-1.36z" class="ae"/><path d="m557.7 183.5 7.58-23.41 13.41 21.75-15.55 5.44-5.44-3.78z" class="m"/><path d="m552.04 182.8 10.96 1.36 1.29 2.17-2.46 2.03-10.71-.75.92-4.81z" class="an"/><path d="m563 184.16 15.69-2.32 1.06 4.74-17.92 1.78 1.17-4.2z" class="aa"/></g><g id="f"><path d="M702.03 248.89h12.37l2.48 30.4-13.27-.92-3.09-25.4 1.51-4.08z" class="o"/><path d="m694.28 252.97 3.28 26.02 9.39-1.29-2.36-27.97-10.31 3.24z" class="w"/><path d="m671.67 284.22 6.48-.88 3.38-36.31-13.36 1.88v16.26l3.5 19.05zM632.38 278.07l6.39-1.49 5.14-35.87-11.53 3.04-3.34 20.34 3.34 13.98z" class="o"/><path d="m625.58 154.89-9.43 5.55 10.35 75.23-2.64 40.91 8.52 1.49 2.76-28.49 5.15-3.01 21.09 3.86 1.86 32.91 8.43.88-.92-27.11v-16.4l-31.98-30.65-6.39-30.86-6.8-24.31z" class="w"/><path d="m625.58 154.89 55.83-4.09 10.28 73.04-56.79 7.67-9.32-76.62z" class="o"/><path d="m638.45 170.66 33.61-3.63 6.09 45.5-33.88.28-5.82-42.15z" class="w"/><path d="M732.6 262.46v4.06l-2.83 2.89 2.83 2.11v5.28h-22.95l1.32-3.15 14.26-12.67 7.37 1.48z" class="ay"/><path d="m709.47 272.15 4.11-2.92 4.02 5.44-4.39 1.22-3.74-3.74z" class="aa"/><path d="m706.89 276.8-3.28-7.47 10.79 4.44 7.49 2.12-15 .91z" class="t"/><path d="m732.6 266.52-10.23 6.91 1.85 2.46 8.38-4.37v-5z" class="aa"/><path d="m686.99 281.13-2.46 6.37 29.87 5.23 9.61-11.6h-37.02z" class="bg"/><path d="m714.4 292.73 25.01-2.59 8.37-2.2-1.01-6.81h-20.33l-11.21 4.53-.83 7.07z" class="al"/><path d="m686.99 281.13 32.56-8.38 27.22 8.38-31.54 2.69-28.24-2.69z" class="bk"/><path d="m710.97 254.77 4.26 23.6h6.16l2.83-14.23-5.82-9.37h-7.43z" class="u"/><path d="m796.09 281.13-7.73-.92-3.35-25.18v-6.14h11.66v11.04l-.58 21.2z" class="bg"/><path d="m798.92 152.65 13.83 5.04-13.83 79.27 3 17.82 3.92 25.12-9.75 1.23-5.05-34.56-22.67 8.72-2.98 29.85-7 1.33-3.9-19.9 4.37-35.06 29.5-34.57 10.56-44.29z" class="v"/><path d="m798.92 152.65-20.74-2.17-33.25-3.83-4.62 26.67-7.48 39.67 58.42 5.3 7.67-65.64z" class="bg"/><path d="m784.9 170.01-17.35-2.21-11.92 12.33 26.48 11.77 2.79-21.89z" class="v"/><path d="m756.71 273.36 1.1 8.65-11.52 3.65-1.03-9.44 5.86-10.24 5.59 7.38z" class="ay"/><path d="m758.39 286.47-.58-4.46-12.55-5.79-2.18 3.77 4.7 4.15 10.61 2.33z" class="aa"/><path d="m758.39 286.47-15.31-6.48-3.67 6.48 8.96 1.84 10.02-1.84z" class="t"/><path d="m724.22 264.14 32.49 9.22 11.66-18.07-9.51-10.13-34.64 18.98z" class="ai"/><path d="M739.41 286.47h18.98v3.67h-18.98z" style="fill:#454d5d;stroke-width:0"/><path d="m743.1 181.08-16.39 17.54 8.27 3.99 5.75-7.26 2.37-14.27zM743.1 181.08l5.98-10.96 8.16 3.81 1.62 8.01 12.73-1.02 10.52 10.98-14.88 6.72-16.7-3.09-7.43-14.45z" class="ay"/><path d="m763.35 183.43 16.08-3.15 2.68 11.62-14.88 6.72-7.65-1.42 3.77-13.77z" class="t"/><path d="m805.61 131.91 11.44-9.48-12.98 1.86 1.54 7.62z" class="aa"/><path d="m807.86 110.96-2.25 20.95-8.13-13.1-1.39-4.68 11.77-3.17z" class="am"/><path d="m785.52 113.53 8.21-9.36 14.13 6.79-10.38 7.85-5.21-.17-6.75-5.11z" class="aa"/><path d="m791.04 123.74 6.44-4.93-11.96-5.28-.51 5.11 6.03 5.1z" class="aj"/><path d="m712.71 105.52-4.47 57.04L741.4 167l15.84 6.93 27.77-34.56-15.48-31.54-22.39-8.69-34.43 6.38z" class="ay"/><path d="m751.95 176.23-.22-6.2 6.42-41.2 9.35-10.98 17.51 21.52-6.83 11.11-7.14 3.06.68 7.47-4.17 6.79-8.91 12.12-4.02-1.49-2.67-2.2z" class="t"/><path d="m741.4 167 16.63 2.27-6.08 6.96L741.4 167zM778.18 150.48l-5.7-2.52-3.55.92-.56 6.93 3.35 5.2 6.46-10.53zM774.51 145.74l2.15-6.66 4.74 1.97-6.89 4.69z" class="bc"/><path d="m716.48 123.69 16.35 15.85 14.88-11.44-5.62-2.81-6.26.54-4.9 2.27-3.36-3.81-5.63-1.82-5.46 1.22z" class="t"/><path d="m727.57 124.29 8.26 1.54-3 13.71h-3.24l-2.88-1.05.86-14.2z" class="q"/><path d="m726.71 138.49 2.79 3.47 3.33-2.42-6.12-1.05z" class="bc"/><circle cx="740.71" cy="134.61" r="2.13" class="bi"/><circle cx="722.13" cy="131.52" r="2.13" class="bi"/><path d="m712.71 105.52 48.45 21.31 13.35-8.85 3.2-18.85-38.47-11.62-3.41 8.92-10.2.32-12.92 8.77z" class="an"/><path d="m758.15 128.83 8.62 9.66 7.74-3.88h8.17l5.68-3.92 2.68-6.95-13.33-24.61-19.56 29.7z" class="aa"/><path d="m725.63 96.75 39.76 21.1h5.65l-.46-7.88-31.34-22.46-13.61 9.24z" class="aa"/><path d="m765.39 117.85 9.12 16.76 10.5 4.76 3.35-8.68-17.78-20.72-5.19 7.88z" class="am"/><path d="m712.71 105.52 49.65 16.91 1.96 3.4-6.17 3-45.44-23.31z" class="aa"/><path d="m758.15 128.83 4.21-6.4 12.15 12.18-6.14 11.13-10.22-16.91z" class="am"/><path d="m727.57 124.29-1.73-3.27-7.62.73-1.74 1.94 11.09.6zM735.83 125.83l2.72-2.81 8.26 2.63.9 2.45-11.88-2.27z" class="aa"/><path d="m719.55 146.65 2.72 4.77 12.59 2.12 3.81-3.63-9.32-1.21-9.8-2.05z" class="az"/><path d="m718.4 144.59 6.23 2.18 4.6-.97 3.63 2.06 7.87.12-2.06 1.93-10.41.43-8.71-3.69-1.15-2.06z" class="v"/><path d="m743.1 181.08 11.1 6.96 10.67 5.68 17.24-1.82 3.63 15.43-26.68 1.45-22.69-5.02 6.73-22.68z" class="ai"/><path d="m767.55 167.8-14.3 11.75 5.61 2.39 8.69-14.14z" style="fill:#e4ae3a;fill-rule:evenodd;stroke-width:0"/><path d="m768.37 145.74 4.11 2.22-4.11 7.85-2.98-2.27 2.98-7.8z" class="bl"/><path d="m751.95 176.23 2.67 2.2 4.24 3.51-4.66 6.1-2.25-11.81z" class="bf"/><path d="m609.16 207.3-16.4 38.25 32.81 4.51 5.34-2.99 4.23 2.51 15.27 1.51 20.34 6.02 9.09-6.68 8.01 4.86 36.37 8.85 5.55-51.79-120.61-5.05z" class="ah"/><path d="m724.22 264.14 27.73-5.56 3.46-3.81 3.9 2.34 9.06-1.82 4.11-3.98 3.97 3.86 8.56-.14 3.35-4.25 13.61 3.99 9.01-1.05.57-5.61 6.9 2.55 23.35-3.87-12.94-39.92-69.8 1.91-37.66 9.51 2.82 45.85zM625.57 250.06l13.2-40-3.63 39.52-9.57.48zM650.41 251.09l-2.02-40.08h21.25l-19.23 40.08zM670.75 257.11l8.73-46.1 9.46 4.04-1.09 40.24-17.1 1.82zM695.32 257.11l4.72-43.94 5.67 3.56-10.39 40.38z" class="ab"/><path d="m745.21 259.93-6.69-46.76h10.85l-4.16 46.76zM768.37 255.29l-3.98-41.57 37.58 41.05-16.96.26-12.53-23.52 3.97 23.66-8.08.12zM810.98 253.72l-19.73-46.52 15.68.48 11.52 42.98-7.47 3.06zM751.95 258.58v-43.54l7.36 42.07-7.36 1.47z" class="as"/><path d="m609.16 207.3 108.63-12.15 111.07 11.72-107.46 11.42-112.24-10.99z" class="ba"/><path d="m717.37 205.34 7.01-6.95 17.84.92 19.35.67 16.61 1.83-21.47 3.53-8.93-3.02-8.18 1.47-22.23 1.55z" class="be"/><path d="m779.43 180.28-22.72 25.06-9.04-7.39 19.88-30.15 11.88 12.48z" class="ay"/><path d="m756.71 205.34-16.4-32.02-4.85 3.27-1.07 3.65 5.21 23.55 17.11 1.55zM736.17 165.64l-2.64-1.87-8.5 6.35-4.63 4.08 7.36 2.05 6.89-.02 4.16-6.36-2.64-4.23z" class="t"/><path d="m738.81 169.87-11.05 6.38 6.63 3.99 5.92-6.92-1.5-3.45z" class="aj"/><path d="m733.53 165.95 5.28 3.92-1.5-3.42-3.78-.5z" class="bc"/><path d="m715.57 163.54 3.98-5.85 8.83-1.09 6.52 3.47 2.41 6.38-21.74-2.91z" class="t"/><path d="m720.4 174.2-.85-16.51 15.35 2.38-1.37 5.88-13.13 8.25zM716.21 188.57l7.25-2.92 5.59 4.95-4.83 1.98-8.01-4.01z" class="ay"/><path d="m733.53 191.31-17.32-2.74-2.81 4.53 2.17 3.84 17.96-5.63z" class="w"/><path d="m698.18 191.37 18.03-2.8-1.31 5.27-2.73 3.78-13.99-6.25z" class="o"/><path d="m698.18 191.37 16.72 2.47 3.5 4.49-1.03 7.01-13.4-2.86-2.85-5.47.62-.37-1.7-1.71-1.86-3.56z" class="w"/><path d="m714.9 193.84 18.63-2.53-.93 2.66-2.22 1.18 1.27 1.53-2.09 5.93-12.19 2.73-2.47-11.5z" class="o"/><path d="m701.12 197.01 14.96 2.3 1.47-1.16-2.13-1.91-15.38-1.31 1.08 2.08z" class="aj"/><path d="m715.42 196.24 17.18-2.27-.95 2.71-15.57 2.63-.66-3.07z" class="as"/><path d="m707.52 204.78-15.83-1.75-8.42 5.75 16.91 1.12 7.34-5.12z" class="be"/><path d="m676.18 186.94 2.81-13.62 16.33 27.45-9.57 5.95-5.91-4.11-3.66-15.67z" class="ae"/><path d="m661.9 201.4 11.39-25.17 15.65 28.86-9.1 1.19-17.94-4.88z" class="m"/><path d="m660.24 206.26 1.66-4.86 20.55 1.97 2.4 2.33-1.58 3.08-23.03-2.52z" class="an"/><path d="m682.45 203.37 12.87-2.6 1.6 6.43-13.65 1.58-.82-5.41z" class="aa"/></g><g id="g"><path d="m202.84 251.19-2.67 23.96-8.84-1.53 2.58-24.39 8.93 1.96z" class="bg"/><path d="m266.99 273.12-9.71-.71-6.36-19.43 6.43-7.32 9.64 12.09v15.37z" class="v"/><path d="m264.8 152.63 10.56 4.43-11.59 76.41 6.64 16.74 3.73 21.27-7.15 1.64-8.46-23.39.44-6.57-21.44 6.19-1.84 28.13-11.65 1.77 1.34-30.93 17.32-46.13 22.1-49.56z" class="bg"/><path d="m264.8 152.63-50.87-2.49-15.5 75.55 54.15 3 12.22-76.06z" class="v"/><path d="M196.67 264.96v8.9h-33.4l18.75-15.76 11.19 2.47 3.46 4.39z" class="ai"/><path d="m185.58 259.77-9.78 6.21-.01-6.21 6.23-1.67 3.56 1.67z" class="z"/><path d="m198.43 258.1-1.76 6.86-14.65-6.86 9.31-6.8 7.1 6.8z" class="aa"/><path d="m166.23 276.49 9.56 9.61 32.99-6.71.43-5.77-42.98 2.87z" class="bg"/><path d="m175.02 279.39.77 6.71-38.92-4.59 3.91-8.98 27.21-.12 7.03 6.98z" class="al"/><path d="m140.78 272.53 33.21-5.68 35.22 6.77-34.19 5.77-34.24-6.86z" class="bk"/><path d="m168.86 255.64 2.48 18.65h5.57l2.21-13.69-10.26-4.96z" class="o"/><path d="m216.4 266.85-14.89 14.02 16.35 2.01 12.04-2.01-1.04-8.46-4.52-5.56h-7.94z" class="ai"/><path d="M201.51 280.87h28.4v4.03h-28.4z" style="fill:#343c4b;stroke-width:0"/><path d="m219.78 266.85-4.07 8.27 4.87.99 2.35-8.45-3.15-.81z" class="z"/><path d="m232.81 253.63-3.95 18.78-12.46-5.56-6.13-17.62 22.54 4.4z" class="aa"/><path d="M65.88 203.45 52 250.39l17.07 1.52 7.35-4.19 9.34 8.7 15.2-1.68 6.01-3.59 2.53 4.35 10.72.01 9.26 5.09 9.26-7.92 9.26 5.42 6.32.51 5.9-5.93 3.54 6.69 14.77 4.87.59-56.04H144.3l-78.42-4.75z" class="ab"/><path d="m175.79 214.61 2.74 49.63 23.54-6.11 4.39-6.5 7.1 7.07 18.83-3.06 9.84-4.34 9.85 5.21 18.33-6.3 4.95-6.56 7.24 5.11 21.84-2.59-13.91-43.98-85.8 5.45-28.94 6.97z" class="ah"/><path d="m252.08 256.51-12.27-49.06-7.42 48.19 19.69.87zM270.41 250.21l-9.52-46.55 5.8.78 15.91 44.32-12.19 1.45zM223.12 209.32l2.37 47.44-8.74-49.31 6.37 1.87zM202.17 211.66l11.39 47.04-11.49-.57.1-46.47z" class="ab"/><path d="m148 258.1-3.7-49.9-6.5 2.2-8.32 50.2 18.52-2.5zM100.96 254.74l12.02-47.1-3.48 47.86-8.54-.76zM120.22 255.51l9.26-46.04-8.88-2.9-.38 48.94zM85.76 256.42l21.21-50.79-12.49-.66-25.41 46.94 16.69 4.51zM154.32 258.61l8.12-49.26 1.32 50.02-9.44-.76z" class="as"/><path d="m65.88 203.45 109.91-9.19 114.74 7.93-114.74 12.42-109.91-11.16z" class="ba"/><path d="m171.34 194.67 4.45-.41h12.51l21.68 4.06-16.38 8.25-24.36-3.31-13.28.64-5-.64-2.13 2.3-16.39 1.01-19.46-2.67 12.92-3.49 29.41-.76 16.03-4.98z" class="be"/><path d="m190.12 164.87-14.33 29.39L198 204.97l2.81-10.98-10.69-29.12z" class="j"/><path d="m205.06 161.32-14.94 3.55 5.26 31.4 18.82 6.99 23.06-2.43 12.45-34.79-17.2-2.9-27.45-1.82z" style="fill:#51596a;fill-rule:evenodd;stroke-width:0"/><path d="m205.06 161.32 4.92 18.35 12.02 1.69 10.51-18.22-27.45-1.82z" style="fill:#fdfaf4;fill-rule:evenodd;stroke-width:0"/><path d="m244.26 91.61 6.66 36.22-.05 16.19-13.34 6.48-10.29 11.49-12.04 4.24-33.32-39.25 12.19-32.21 26.5-8.52 23.69 5.36z" class="ay"/><path d="m230.54 157.56-20.27-.96-16.2-61.83-18.1 32.21 10.28 12.14 4.65 2.17 1.95 5.62 21.72 25.64 17.94-9.41-1.97-5.58z" class="t"/><path d="m237.53 150.5-32.15 7.13 27.13 5.51 5.02-12.64zM186.25 139.12l6.96-3.45-.36 11.24-6.6-7.79zM182.02 129.93l4.83-2.54 2.38 6.01-7.21-3.47z" class="bc"/><path d="m207.18 113.67 6.33-4.58 5.34 1.91 2.8 2.03 3.43 1.4 1.9-2.54 1.4-2.8 4.7-4.32 5.97 1.91-15.01 20.49-16.86-13.5z" class="t"/><path d="m221.65 113.03 2.39 14.14 4.02.66 3.46-2.47-4.54-13.47-5.33 1.14z" class="q"/><path d="m217.9 135.6 11.62.07 10.29-5.36-.28 3.76-9.63 4.15-10.1.39-1.9-3.01z" class="bc"/><circle cx="236" cy="115.64" r="2.19" class="bi"/><circle cx="214.56" cy="120.78" r="2.19" class="bi"/><path d="m207.18 113.67-.72-2.13 5.53-4.1 7.24 1.53-.38 2.03-6.19-.7-5.48 3.37zM228.38 109.09l-1.62-2.12 7.15-4.39 5.62 2.19-.48 1.91-5.33-.67-5.34 3.08zM244.26 91.61l-7.68 1.94-9.54-1.93-3 5.09-7.29 1.85-6.86-.46-2.71 2.87-10.77 2.72-9.96-3.87-7.33-10.48 8.47-4.1 6.87.29 1.95-4.54 7.98-3.86 9.41 2.49 4.1-2.04 11.48.37 14.88 13.66z" class="w"/><path d="m179.12 89.34-1.81 21.63 4.57 4.29-5.39 5.52-.52 6.2 11.62-4.01 6.29 6.01 1.91-2.58-2.07-10.76-1.46-5.09 4.15-6.86-17.29-14.35z" class="o"/><path d="m196.41 103.69-19.1 7.28-.82 9.81 17.23-5.14 2.69-11.95z" class="s"/><path d="m187.59 85.24 19.59 15.73 9.57-2.41-20.34-17.57-8.82 4.25zM204.39 77.13l19.65 19.58 12.54-3.16-18.68-15.97-13.51-.45zM200.17 129.55l5.21 8.38 4.89 8.98v9.69l-4.89 1.03-12.17-25.03 3.2-4.77 3.76 1.72z" class="o"/><path d="m187.59 122.97 6.13-7.33 6.45 13.91-6.96 3.05-5.62-9.63z" class="s"/><path d="m250.92 127.83-3.61 4.76-3.05-4.76-12.74-2.48-3.46 2.48-4.02-.67-9.48 6.49-1.72 6.52-7.46-2.25 4.89 18.67 44.15-9.69-3.51-19.08Zm-19.77 19.08-13-1.93-.25-9.39 10.96-4.01 10.96-1.27 3.45 9.67-12.11 6.93Z" class="w"/><path d="m224.04 127.17 4.4 2.38 3.08-4.19-7.48 1.81z" class="o"/><path d="m249.71 166.04 2.87 37.86-14.93-4.14-4.84-8.09 16.9-25.63z" class="j"/><path d="m232.81 191.67-20.57 3-2.26 3.65 4.61 6.65 37.99-1.07-19.77-12.23z" style="fill:#343c4b;fill-rule:evenodd;stroke-width:0"/><path d="m193.91 187.46 6.29 4.21-1.07 6h-5.22v-10.21z" class="bc"/><path d="m175.79 194.26 2.45 5.5 8.67 2.43 9.76-5.2-2.76-9.53-18.12 6.8zM212.24 194.67l-12.04-3-2.38 5.51 6.91 10.46 9.86-2.67-2.35-10.3z" class="ay"/><path d="m200.2 191.67-13.29 10.52 6.69 4.38 11.13 1.07-4.53-15.97z" class="t"/><path d="m169.83 158.79-14.02 2.41 9.21 7.04 7.55-2.01-2.74-7.44z" class="bf"/><path d="m182.15 161.2-12.32-2.41-.97 5.32 3.71 2.12 9.58-5.03z" class="ar"/><path d="m171.34 197.31.53-16.09-3.98 1.47 1.32 3.7-.2 12.59 2.33-1.67z" class="al"/><path d="m171.34 197.31 6.94 4.09-9.04 1.86-.38-1.07 2.48-4.88z" style="fill:#cc9c34;fill-rule:evenodd;stroke-width:0"/><path d="m171.34 197.31-10.22 3.45 8.12 2.5 2.1-5.95z" class="az"/><path d="m168.11 183.56 10.98-7.69 3.06-14.67-13.29 2.91-.97 14.69.22 4.76z" class="bf"/><path d="m166.89 181.13-8.67-5.37-2.41-14.56 13.05 2.91 1.02 13.66-2.99 3.36z" class="ar"/><path d="m179.09 175.87-9.21 1.9-1.89 4.52 1.22 4.1 9.88-10.52z" class="ar"/><path d="m169.88 177.77-11.66-2.01 10.99 10.63.67-8.62z" class="al"/><path d="m139.57 186.02 4.08-9.26 11.66 22.89-3.33 3.61-6.11-3.61-6.3-13.63z" class="ae"/><path d="m124.85 198.92 14.86-23.87 10.05 26.25-11.76 1.96-13.15-4.34z" class="m"/><path d="m155.31 199.65-5.55 1.65-3.8 1.96 2.87 2.3 7.13-1.66-.65-4.25z" class="an"/><path d="m149.76 201.3-24.91-2.38-.83 4.34 24.81 2.3.93-4.26z" class="aa"/></g><g id="h"><path d="m482.48 198.28 14.55 24.5 14.26-12.25 1.83-12.25-12.92-6.14-17.72 6.14z" class="p"/><path d="m473.62 145.59-15.07 20.53 13.01 7.72 6.57-4.1 3.54-6.6-8.05-17.55zM531 142.49l15.73 23.63-8.32 9.74-13.14-8.54-2.01-9.43 7.74-15.4z" class="al"/><path d="M495.58 273.49v10.73l-16.02 2.29-16.03-2.29 7.9-7.04 13.57-9.32 2.21.62 8.37 5.01z" class="an"/><path d="m471.43 277.18 2.9 1.09 12.06-9.83-5.04-.11-9.92 8.85z" class="aj"/><path d="M463.53 284.22h32.06v4.57h-32.06z" class="r"/><path d="m477.85 240.25 3.5 28.08 14.23 5.16 3.9-30.93-12.42-4.68-9.21 2.37z" class="p"/><path d="m482.48 198.28-4.63 41.97 18.47 2.31 4.47-23.88-18.31-20.4z" class="u"/><path d="m501.65 254.51-.01 20.79 11.14-5.33 9.4-9.07-4.92-6.53-9.7-4.54-5.91 4.68z" class="an"/><path d="m501.64 275.309 20.535-14.4 2.624 3.742-20.535 14.4z" class="r"/><path d="m509.67 252.05 1.29 7.85-2.69 1.17-2.17-9.72 3.57.7z" class="aj"/><path d="m510.32 200.04-24.31 28.71 12.15 5.89 11.23-1.99 16.81-13.4-2.94-13.45-12.94-5.76z" style="fill:#545c6d;fill-rule:evenodd;stroke-width:0"/><path d="m482.48 198.28 40.78 7.52-2.98-14.09-12.65-5.38-25.15 11.95zM509.57 138.55l21.43 3.94-5.73 24.83-28.72 16.84-18.42-14.42-4.51-24.15 14.98-4.15 20.97-2.89z" class="az"/><path d="m440.25 84.73 9.32 56.44 34.72-3.8 8.71 8.23 13.63-11.49 6.49-40.44-16.28-24.89-27.9 2.18-28.69 13.77z" class="ay"/><path d="m489.3 139.48 5.85-3.37-7.3-66.63 22.28 7.84 8.99 16.43-3.02 14.16-2.1 3.36.25 5.3-4.68 21.98-16.67 11.25-3.6-10.32zM447.72 96.06l19.6 11.28L478.3 92.1l-5.12-3.67-7.86 4.62-3 2.17-3.77-.9-5.84-2.22-4.99 3.96z" class="t"/><path d="m458.55 94.32 1.03 13.96h3.87l3.87-.94-2-14.29-6.77 1.27z" class="q"/><path d="m459.58 108.28 4.24 2.49 3.5-3.43-7.74.94zM452.68 117.26l27.96-3.37-5.1 9.37-15.31 1.62-7.55-7.62z" class="bc"/><path d="m456.86 118.82 20.16-2.62-1.43 1.88-17.48 2.3-1.25-1.56z" class="aw"/><path d="m484.29 137.37 17.41-2.19-8.8 14.62-8.61-12.43zM516.1 107.91l-8.47-.57 6.62 9.23 1.85-8.66zM510.32 103.53l.87-7.73 4.91 1.12-5.78 6.61z" class="bc"/><circle cx="453.32" cy="100.4" r="2.06" class="bi"/><circle cx="473.36" cy="97.6" r="2.06" class="bi"/><path d="m447.72 96.06-1.25-1.51 5.06-4.25 6.93 1.69.09 2.33-6.15-1.21-4.68 2.95zM465.32 93.05l-.81-2.18 7.3-4.06 6.93 3-.44 2.29-6.55-2.11-6.43 3.06zM444.1 80.2l-17.85-14.3 40.63-13.85 8.54 7.76 12.43-3.14 29.21 6.42-9.99 9.37-18.54 3.18-44.43 4.56z" class="bm"/><path d="m440.25 84.73 16.61-3.13 2.72-2.99 4.93 1.55 24.02-4.52-62.28-9.74 14 18.83z" class="u"/><path d="m446.57 69.08 10.29 12.52 7.65-1.44-1.06-8.44-4.9-3.33-11.98.69z" class="p"/><path d="m446.57 69.08 20.31-17.03 20.97 4.62-24.4 15.05-16.88-2.64zM488.53 75.64l28.53-12.55 8.55 22.72-22.13 2.62-14.95-12.79z" class="u"/><path d="m488.53 75.64 37.08 10.17-6.49 7.94-10.61-1.95-5.03 17.91-7.05-1.43.68-16.63-8.58-16.01z" class="p"/><path d="m478.13 169.74 47.14-2.42-4.99 24.39-37.8 6.57-4.35-28.54z" class="bg"/><path d="m486.01 228.75 15.64 25.76 15.61-.14-7.87-21.72-23.38-3.9z" class="ai"/><path d="m546.73 166.12-27.61 7.9-2.07 6.92 4.78 3.22 22.4-2.29 2.5-15.75zM519.12 174.02l-6-4.69-7.37 3.29 5.27 2.52 8.1-1.12z" class="ay"/><path d="m519.12 174.02-13.37-1.4 1.4 8.02 4.14 6.97 10.54-3.45-2.71-10.14z" class="t"/><path d="m511.29 187.61-5.66-1.93-4.84-9.09 4.96-3.97 5.54 14.99zM471.56 173.84l-13.79 8.96-12.94-17.69 3.26-7.94 4.42-.9 19.05 17.57z" class="ay"/><path d="m449.57 153.56-7.5-8.83-7.03 2.46-1.87 7.97 7.98 4.93 8.42-6.53z" class="t"/><path d="m438.96 139.29-2.34-1.56-7.44 9.35 3.99 8.08 9.13-8.01-3.34-7.86z" class="ay"/><path d="m436.3 152.41-1.26-5.22 3.92-7.9 2.19 1.46 2.38 6.91-2.81 2.64-4.42 2.11z" class="t"/><path d="m449.57 153.56-.82-7.96-7.6-4.85-6.11 6.44 2.23 2.61 5.03-2.65 4.1 11.53 3.17-5.12z" class="ay"/><path d="m441.15 160.09 8.42-6.53 2.94 2.71-7.68 8.84-3.68-5.02z" style="fill:#5f6878;fill-rule:evenodd;stroke-width:0"/></g><g id="i"><path d="m444.7 290.36 2.47 12.42-76.78 10.08-20.23-16.4 94.54-6.1z" class="bk"/><path d="m370.39 312.86-109.75-11.25 2.62-11.25h62.84l42.29 14.42 2 8.08z" class="bg"/><path d="m263.26 290.36 105.13 14.42 76.31-14.42-20.45-16.5-95.49-6.4-65.5 22.9z" class="bl"/><path d="m292.92 285.49 70.69 11.2 57.49-11.2-4.2-5.76-76.6-7.15-47.38 12.91z" class="aj"/><path d="m310.07 280.81 17.55-4.7 12.68-3.53 62.53 5.84-60.41 11.94-32.35-9.55z" class="be"/><path d="m322.18 130.54 22.07 1.11v-18.83l-22.07 17.72z" class="ak"/><path d="m315.78 80.47-14.54 22.06 21.54-5.33-7-16.73z" class="z"/><path d="m335.65 88.18-34.41 14.35 20.94 28.01 20.33-13.63.46-16.22-7.32-12.51z" class="u"/><path d="m339.84 279.92 12.47-1.94-3.09 4.75-9.38-2.81z" class="t"/><path d="m370.21 142.21 24.59 27.76-3.45 4.97-12.11-4.65-8.62-7.37.96-12.56-1.37-8.15z" class="ay"/><path d="m379.24 170.29 20.71-8.07 2.88 3.22-.58 5.37-11.65 9.04-11.36-9.56zM406.7 157.13l7.42-4.49 3.32 2.65-.58 8.9-7.7 1.25-3.82-.22 1.36-8.09z" class="t"/><path d="m335.75 148.01-17.19 24 6.04 3.94 11.72-3.94 1.3-17.49-1.87-6.51z" class="ay"/><path d="m336.32 172.01-19.81-13.97-4.5 3.28v6.69l9.82 13.43 14.49-9.43z" class="t"/><path d="M348.36 243.53 377 231.71l-1.12-9.2-3.59-8.85h-20.72l-3.21 29.87z" class="bg"/><path d="m388.83 234.75 8.12 6.92.02 1.86 2.29.11 4.82 4.1-8.12 2.95-8.37-3.35-4.14-3.8-.51-4.37-.58-7.29 6.47 2.87z" class="ay"/><path d="m382.2 210.59 6.63 24.16-5.89 4.42-11.01-13.18-3.14-15.92 13.41.52z" class="t"/><path d="m337.62 259.59-.99 8.4 6.11 7.15.23 2.23 1.96.33 4.29 5.03-8.81-1.16-6.93-2.15-3.89-4.74-1.07-5.41 9.1-9.68z" class="ay"/><path d="m342.97 254.77-6.34 13.22-8.11 1.28 2.46-18.74 3.15-5.51 8.84 9.75z" class="t"/><path d="m331.12 250.48 11.85 4.29 5.39-11.24-10.34-3.06-6.9 10.01zM366.71 219.75l5.22 6.24 10.27-15.4-14.71 1.32-.78 7.84z" class="bc"/><path d="m335.65 147.68 34.56-5.47-10.8 17.47-23.76-12z" class="ay"/><path d="m335.65 147.68.67 24.33 16.59-8.04 6.36-6.84-23.62-9.45zM359.27 157.13l10.94-14.92 9.03 28.08-14.52-4.32-5.45-8.84z" class="l"/><path d="m336.32 172.01.5 15.64 22.51 21.71 19.91-39.07-19.97-13.16-22.95 14.88z" class="bh"/><path d="m338.42 195.6 43.78 14.99-34.74 33.31-7.26-1.22-17.77-37.79 15.99-9.29z" style="fill:#e5c828;fill-rule:evenodd;stroke-width:0"/><path d="m322.43 204.89 25.93 38.64-17.38 7-8.55-45.64z" style="fill:#ccad14;fill-rule:evenodd;stroke-width:0"/><path d="m414.24 99.47-.58 10.52-14.72-.66 3.25-16.93 12.05 7.07z" class="ak"/><path d="m409.51 76.88 11.06 18.5-12.23 3.49-4.9-3.35-1.97-14.3 8.04-4.34z" class="ai"/><path d="m420.57 95.38-17.13.14-8.7 5.16 4.2 8.65 21.63-13.95z" class="u"/><path d="m399.01 99.41 4.65 16.69-11.34 3.83 1.93-5.92 3-1.05-1.2-4.49-.83-3.45 3.79-5.61z" class="x"/><path d="m340.84 102.87 3.44 19.77 6.35 18.21 11.5.75 6.76-8.04 20.11 6.28 20.51-62.96-48.63 11.75-20.04 14.24z" class="ay"/><path d="m361.82 102.61-6.44 27.77 13.51 3.18-7.94 9.38-.75 6.81-14.44-3.67-3.25-29.17 1.17-4.9-2.84-9.14 15.95-13.14 5.03 12.88zM393.4 91.61l-2.05 1.57-5.15 8.94.95 4.01 9.36-8.13 3.64-3.09-6.75-3.3zM387.07 91.77l-3.1-3.46-10.03-.26 6.1 11.42.79 9.58 4.87-9.08 1.37-8.2z" class="t"/><path d="m352.39 111.72-9.88 5.19-1.67-14.04 9.36-9.54 8.67 7.65-6.48 10.74z" class="bc"/><path d="m387.07 91.77 4.28 1.41-5.65 17.44h-3.19l-1.68-1.57 6.24-17.28z" class="q"/><path d="m380.83 109.05 1.57 3.77 3.3-2.2-4.87-1.57zM408.19 80.94l-46.84 24.02-8.35-.52 3.1-7.46 27.87-8.67 25.54-11.43-1.32 4.06z" class="bc"/><path d="m332.09 78.15-2.7-6.46-25.7-6.47 19.96 45.12 12.9-11.47 1.68-9.27-6.14-11.45z" class="ai"/><path d="m323.65 81.56-19.96-16.34 37.15-3.8-4.49 13.05-12.7 7.09z" class="z"/><path d="m386.12 56.36-31.21-11.41-31.26 36.61 38.01-10.68 24.46-14.52z" class="ai"/><path d="m395.6 87.06 4.55 7.85-6.75-3.3 2.2-4.55z" class="ak"/><path d="m364.72 111.32 17.24 2.72 9.67 6.94-15.6 10.29-11.31-19.95z" class="x"/><path d="m372.18 119.33 6.14-2.02 5.35 6.15-4.07 2.75-4.36-1.54-3.06-5.34z" style="fill:#664e1a;fill-rule:evenodd;stroke-width:0"/><path d="m372.18 119.33 11.49 4.13 4.07-2.75-18.62-6.72 3.06 5.34z" class="aw"/><path d="m356.5 99.67-4.11 12.05-16.6-5.26.94-2.8 4.11-.79 8.57 2.57 1.52-4.63 5.57-1.14z" class="ar"/><path d="m368.89 133.56-17.91-5.82 9.22 22.01 8.69-16.19z" class="bc"/><path d="m338.23 89.6-14.58 20.74 32.85-10.67-18.27-10.07z" class="ak"/><path d="M397.41 100.68a2.67 2.67 0 1 1-5.339.001 2.67 2.67 0 0 1 5.339-.001ZM381.54 95.38a2.67 2.67 0 1 1-5.339.001 2.67 2.67 0 0 1 5.339-.001Z" class="bi"/><path d="m417.43 72.6-55.61 30.01-38.17-21.05 44.37-5.93 49.41-3.03z" class="u"/><path d="m417.43 72.6-17.44-21.83-76.34 30.79 93.78-8.96z" style="fill:#89909b;fill-rule:evenodd;stroke-width:0"/><path d="m328.52 269.27 6.06 8.96-2.42 1.19-4.54-3.31.9-6.84z" class="t"/><path d="m342.74 275.14-3.06 5.67h3.29l1.96-3.11-2.19-2.56z" class="l"/><path d="m382.94 239.17 5.11 8.99 8.11 1.79 11.44-3.53-3.84 5.85-16.18-2.78-6.02-3.99 1.38-6.33z" class="t"/><path d="m396.95 241.67-4.29 8.12 3.5.16 3.1-6.31-2.31-1.97z" class="l"/><path d="m382.2 210.59-59.77-5.7 14.39-17.24 45.38 22.94z" style="fill:#f4d75d;fill-rule:evenodd;stroke-width:0"/><path d="m404.53 160.44 1.06-6.48 9.11-5.69 1.81 2.29-2.39 2.08-4.07 3.55-3.99 8.09-1.53-3.84z" class="ay"/><path d="m425.74 149.75-11.62 2.89 2.74 11.55 6.75-4.94 2.13-9.5z" class="ay"/><path d="m310.44 152.07-4.52-7.4-4.17.83-3.58 8.17 7.75 6.01 3.4.34 1.12-7.95z" class="t"/><path d="m311.44 154.46 1.44-4.69-5.46-9.25-2.67 1.2 1.17 2.95 1.98 5.02.92 11.63 2.62-6.86z" class="ay"/><path d="m296.93 136.76 8.99 7.91-7.75 9-3.72-7.49 2.48-9.42z" class="ay"/><path d="m403.76 252.27-21.18.12-1.02-6.89 22.2 6.77zM349.22 282.73l-20.71-.43-.89-6.19 21.6 6.62z" class="bh"/><path d="m402.25 161.32-2.3.9 2.3 8.59 3.45-2.69-.36-3.93-3.09-2.87z" class="al"/><path d="m409.16 165.44-4.63-5-2.28.88 3.45 6.8 3.46-2.68z" class="l"/><path d="m314 156.27 2.51 1.77-4.5 9.97-3.19-4.37 1.14-4.93 4.04-2.44z" class="al"/><path d="m305.92 159.68 5.52-5.22 2.56 1.81-5.18 7.37-2.9-3.96z" class="l"/></g></svg>