<svg xmlns="http://www.w3.org/2000/svg" id="a" viewBox="0 0 900 320"><defs><style>.m{fill:#404857}.aa,.ab,.ac,.ae,.af,.ag,.ak,.al,.am,.an,.ao,.aq,.ar,.as,.at,.av,.aw,.ax,.ba,.bb,.bc,.bd,.be,.bg,.bh,.bi,.bj,.bk,.bl,.bn,.bo,.bp,.bq,.br,.bt,.bv,.bw,.bx,.by,.m,.n,.o,.p,.q,.r,.s,.u,.v,.w,.x,.z{stroke-width:0}.ab,.ac,.ae,.af,.ag,.ak,.al,.an,.ao,.aq,.ar,.as,.at,.av,.aw,.ax,.ba,.bb,.bc,.bd,.be,.bi,.bj,.bk,.bn,.bo,.bp,.bq,.br,.bv,.bw,.bx,.by,.m,.n,.o,.p,.q,.u,.v,.w,.x,.z{fill-rule:evenodd}.n{fill:#ccae2d}.o{fill:#eeeff1}.p{fill:#5f5044}.q{fill:#e8cab6}.ag,.bn,.r{fill:#1d2432}.bn,.r{opacity:.1}.ak,.s{fill:#664e1a}.u{fill:#46382d}.bl,.v{fill:#71561c}.w{fill:#c3987b}.x{fill:#ac923b}.z{fill:#7d5f1f}.aa,.bb{fill:#f1d69c}.ab{fill:#74665b}.ac{fill:#e4ae3a}.ae{fill:#5b4517}.af{fill:#9b6533}.ag{opacity:.15}.bh{fill:#ecc675}.al{fill:#576071}.am{fill:#29303e}.an{fill:#454d5d}.ao{fill:#f4d75c}.aq{fill:#886822}.ar{fill:#7c4f24}.as{fill:#af7546}.at{fill:#ccad14}.av{fill:#9f7928}.aw{fill:#89909b}.ax{fill:#343c4b}.ba{fill:#dfbda5}.bc{fill:#aa822b}.bd{fill:#e5b244}.be{fill:#f9eed7}.bg,.bv{fill:#e5c828}.bi{fill:#cc9c34}.bj{fill:#8b6651}.bk{fill:#e4c824}.bt{fill:#232a38}.bo{fill:#c29431}.bp{fill:#947125}.bq{fill:#755800}.br{fill:#83624d}.bw{fill:#b68b2e}.bx{fill:#4b5464}.by{fill:#b48c71}</style></defs><circle id="b" cx="372.78" cy="37.69" r="18.75" class="aa"/><g id="c"><path d="M557.33 8.33 520.8 39.69l-2.22 13-5.72 5.81-49.71 32.98-60.39 69.63-104.88 11.4-86.39 42.28 212.15 17.31 190.15-8.89 127.72-16.09-71.29-57.62-48.86-65.94-34.33-5.43-29.7-69.8z" class="aa"/><path d="m557.33 8.33 15.23 55.98-15.13 17.74 52.12 19.18 11.81-17.67-29.22-15.35-34.81-59.88zM670.22 149.5l-33.7-7.83-89.99 17.45 47.71 42.9 42.57-.73 48.84-5.46 80.39 8.2-95.82-54.53zM402.76 161.11l23.22 15.11-37.8 14.31-40.42 9 55-38.42zM557.17 120.01l36.88 9.08-53.84 17.25-23.6-11.72 40.56-14.61zM520.8 39.69l23.88 24.62-31.82-5.81 7.94-18.81z" class="bh"/></g><g id="d"><path d="m101.83 216.74-11.04-1.03-.95 2.43 13.18 4-1.19-5.4z" class="bw"/><path d="m776.04 119.52-45.83 56.02 44.9 11.31 11.21-72.27-10.28 4.94z" class="bi"/><path d="m785.37 119.52 32.74 59.27-43 8.06 7.01-63.2 3.25-4.13z" class="bc"/><path d="m776.04 119.52 4.45 18.79 6.42-15.99-10.87-2.8z" class="ag"/><path d="m782.44 85.42-22.93 22.89 22.61 15.34 6.97-40.09-6.65 1.86z" class="bi"/><path d="m782.12 123.65 24.03-6.64-15.27-33.49-4.56 3.78-4.2 36.35z" class="bc"/><path d="m782.44 85.42 2.59 13.02 7.25-11.86-9.84-1.16z" class="ag"/><path d="m791.77 58.9-16.5 23.05 11.05 5.35 5.7-7.7-.25-20.7z" class="bi"/><path d="m791.77 58.9 6.74 26.93-12.19 1.47 5.45-28.4zM205.36 133.34l31.67 50.28-40.21 7.2-2.95-23.62 2.48-31.99 9.01-1.87z" class="bc"/><path d="m191.8 133.34-27.68 49.57 32.7 7.91 3.11-51.26-8.13-6.22z" class="bi"/><path d="m189.28 137.87 9.93 13.61 8.41-14.55-18.34.94z" class="bn"/><path d="m191.8 105.72-15.4 30.11 23.53 3.73-.86-36.02-5.94-1.57-1.33 3.75z" class="bi"/><path d="m198.86 101.97 22.51 30.26-21.44 7.33-3.79-30.65 2.72-6.94z" class="bc"/><path d="m191.04 107.21 6.03 9.18 4.76-10.42-10.79 1.24z" class="bn"/><path d="m193.61 67.49-9.93 37.25 12.46 4.17 3.79-12.19-6.32-29.23z" class="bi"/><path d="m193.61 67.49 16.26 34.31-13.73 7.11-2.53-41.42z" class="bc"/><path d="m264.57 142.66 38.99 52.11-39.59 10.43-15.92-41.91 3.15-18.76 13.37-1.87z" class="av"/><path d="M248.05 141.02 208.1 193.8l55.87 11.4-9.51-54.66-6.41-9.52z" class="bw"/><path d="m243.28 147.32 13.91 18.92 9.85-20.29-23.76 1.37z" class="ag"/><path d="m264.57 96.23 23.96 41.88-34.07 12.43 3.18-43.52 6.93-10.79z" class="av"/><path d="m253.19 100.23-31.82 40.79 33.09 9.52 7.52-47.22-6.27-8.52-2.52 5.43z" class="bw"/><path d="m253.19 100.23 7.38 11.93 6.19-12.11-13.57.18z" class="ag"/><path d="m257.64 50.05-24.53 43.1 28.87 10.17 2.59-16.52-6.93-36.75z" class="bw"/><path d="m257.64 50.05 26.44 38.15-22.1 15.12-4.34-53.27z" class="av"/><path d="m254.69 55.22 4.42 12.9 2.13-12.87-6.55-.03z" class="ag"/><path d="m260.17 14.08-18.71 35.75 16.71 6.8 3.81-14.89-1.81-27.66z" class="bw"/><path d="m258.17 56.63 12.17-5.48-10.17-37.07-2 42.55z" class="av"/><path d="m100.5 205.81 1.1 37.44 9.57-5.63-5.45-57.72-5.22 25.91z" class="bp"/><path d="m55.51 192.92 44.99 12.89 8.63-59.47-2.33-20.02-7.96-1.13-43.33 67.73z" class="bw"/><path d="m105.98 134.32 6.76-9.48 33.76 65.98-46 14.99 5.48-71.49z" class="av"/><path d="m94.62 131.79 10.04 19.66 11.15-20.59-21.19.93z" class="ag"/><path d="m81.83 128.94 24.15 5.38 3.15-18.92-6.87-18.24-1.97-6.78-18.46 38.56z" class="bw"/><path d="m105.98 134.32 22.21-7.82-22.6-35.28-3.33 5.94 3.72 37.16z" class="av"/><path d="m97.73 95.73 5.6 12.08 4.71-12.76-10.31.68z" class="ag"/><path d="M103.93 50.43 87.3 92.44l14.96 4.72 4.87-11.02-3.2-35.71z" class="bw"/><path d="m102.26 97.16 15.72-5.75-14.05-40.98-1.67 46.73zM734.17 208.06l48.43-17.3-41.09-69.99-5.44 10.68-8.56 34.44 6.66 42.17z" class="av"/><path d="m726.33 124.48-42.73 64.51 50.57 19.07 1.9-76.61-9.74-6.97z" class="bw"/><path d="m719.97 134.07 15.51 27.42 13.28-28.38-28.79.96z" class="ag"/><path d="m731.55 82.88-35.06 45.03 39.42 10.4 2.06-50.39-6.42-5.04z" class="bw"/><path d="m735.91 138.31 31.75-12.85-30.04-42.58-3.45 6.04 1.74 49.39z" class="av"/><path d="m729.04 86.11 5.58 14.85 5.54-14.47-11.12-.38z" class="ag"/><path d="m737.62 42.14-23.09 36.04 19.64 10.74 3.45-13.31V42.14z" class="bw"/><path d="m737.62 41.21 15.25 40.14-18.7 7.57 3.45-47.71z" class="av"/><path d="m732.8 49.66 3.62 8.11 4.18-8.41-7.8.3z" class="ag"/><path d="m737.97 24.52-15.08 22 14.02 4.44 3.69-10.08-2.63-16.36z" class="bw"/><path d="m736.91 50.96 10.15-4.4-9.09-22.04-1.06 26.44z" class="av"/></g><g id="e"><path d="m140.78 272.53-48.52 3.06-44.52-13.56 32.3-22.18 20.23 3.34 10.9-5.57 17.46-12.18 35.49 22.48-23.34 24.61z" class="be"/><path d="m128.63 225.44 12.15 47.09 26.19-14.95 9.03-16.57-47.37-15.57zM111.17 237.62l-18.91 37.97-12.22-35.74 31.13-2.23zM859.23 245.01 823 221.68l-3.39 31.82 10.69 6.7 28.93-15.19z" class="bb"/></g><g id="f"><path d="m169.82 180.21 8.32-6.61 12.29.42 216.16 27.89 151.43 1.46 226.77-25.98 8.81-.94 6.69 7.48-57.8 17.98-315.93 25.84-193.66-21.49-63.08-26.05z" style="fill:#8e7e73;fill-rule:evenodd;stroke-width:0"/><path d="m800.29 183.93-297.38 30.86-23.44 28.73 28.94 32.29 306.13-14.71 5.07-50.91-19.32-26.26z" class="ab"/><path d="m508.41 275.81-100.78-1.95-16.59-32.11 10.89-32.94 100.98 5.98 5.5 61.02z" class="p"/><path d="m400.63 208.68-232.11-28.6-10.93 28.55 1.77 64.11 246.97 2.85-5.7-66.91z" class="ab"/><path d="m803.66 202.19-233.79 23.45-65.25 8.09-1.6 1.76 1.85 1.07 304.05-29.58-5.26-4.79zM808.49 228.36l-302.11 24.97-3.36 2.83 3.85 2.53 307.75-24.98-6.13-5.35zM167.19 202.19l236.59 27.68 3.85 1.22-3.48 3-241.84-26.46 4.88-5.44zM405.61 250.73l-241.38-23.82-5.33 3.68 247.2 25.8 2.75-2.81-3.24-2.85z" class="p"/><path d="m403.78 229.87 100.84 3.86.25 2.83-100.72-2.47-.37-4.22zM405.61 250.73l100.77 2.6.49 5.36-100.77-2.3-.49-5.66z" class="u"/><path d="m407.63 209.15 2.85 64.71-22.3-1.59 5.16-64.51 3.6-3.41 10.69 4.8z" class="av"/><path d="m398.49 216.25-2.14 49.06 6.41.95-.71-49.89-3.56-.12z" class="ac"/><path d="m169.82 180.21-5.46-6.37-8.08 4.28-15.5 94.41 18.58.21 10.46-92.53z" class="av"/><path d="m160.56 187.03-8.02 57.01 4.81.36 6.42-57.2-3.21-.17z" class="ac"/><path d="m800.29 183.93 8.99-7.71 14.55 5.1 6.47 78.88-15.76.9-14.25-77.17z" class="av"/><path d="m800.29 183.93-4.55-10.33 4.55-12.69 30.01 4.43-6.47 15.98-23.54 2.61z" class="ar"/><path d="m804.29 168.11-9.5-6.62-15.22 1.36 5.22 14.54 15.5 6.54 4-15.82z" class="af"/><path d="m830.3 165.34-29.65-18.15-5.86 14.3 9.5 6.62 26.01-2.77z" class="af"/><path d="m779.57 162.85 21.08-15.66 3.64 20.92-24.72-5.26z" class="as"/><path d="m809.46 193.26 8.19-1.25 5.35 58.98-3.74.36-9.8-58.09z" class="ac"/><path d="m169.82 180.21 27.93-.13 8.63-4-15.95-2.06-8.73-1.51-11.88 7.7z" class="bn"/><path d="m156.28 178.12-6.41-15.92 28.51-3.33-.48 13.31-8.08 8.03-13.54-2.09z" class="af"/><path d="m169.82 180.21 20.61-6.19 6-13.96-17.58-.95-2.85 5.23-6.18 15.87z" class="ar"/><path d="m196.43 160.06-25.34-12.35-4.12 11.16 9.03 5.47 20.43-4.28z" class="af"/><path d="m149.87 162.2 21.22-14.49 4.91 16.63-26.13-2.14z" class="as"/><path d="m407.63 209.15 16.54-1.39 8.94-5.6-15.62-.15-5.02-.09-4.84 7.23z" class="bn"/><path d="m407.63 209.15-2.02-17.65 18.03-2.91-6.15 13.42-9.86 7.14z" class="ar"/><path d="m407.63 209.15-14.29-1.39-5.16-17.23 13.48-.89 7.84 4.95-1.87 14.56zM423.64 188.59l-19.19-10.22-.67 9.49 5.72 6.73 14.14-6z" class="af"/><path d="m409.5 194.59-5.05-16.22-16.27 12.16 21.32 4.06z" class="as"/></g><g id="g"><path d="m274.21 272.63-15.98 7.87-18.66-2.12-22.02-8.09 44.43-8.92 12.23 11.26z" class="be"/><path d="m303.56 274.44-15.68 4.2-29.65 1.86-1.1-10.21 4.85-8.92 41.58 13.07z" class="bb"/><path d="m567.91 290.77-3.89 7.01-46.61 15.78-20.08-7.5-16.36 3.82-37.78-3.82-8.06-6.68-37.02 2.13 15.6-14.01 26.96-14.43 67.75-7.42 38.11 5.43 21.38 19.69zM713.51 292.53l30-8.81 3.8 7.33 14.25 1.48 23.05 4.23-15.68 7.84-37.06-2.13-18.36-9.94z" class="be"/><path d="m743.51 283.72-11.64 18.75 29.69-9.94-18.05-8.81z" class="bb"/><path d="m769.13 260.87-36.83-31-54.61 22.49-15.58 10.5-39.78-7.1-26.6 9.81-10.64 1.23-8.97-9.81-24.03-1.47-25.7 11.64-3.77 6.81 18.09 7.49 27.2 9.31 19.48-10.26 18.76.06 58.6 11.29 10.35-13.04 16.1 3.93 55.36-7.57 22.57-14.31z" class="be"/><path d="m732.3 229.87 14.26 45.31 34.18-12.45-48.44-32.86zM677.69 252.36l13.51 30.39-26.45 9.11-42.42-36.1 55.36-3.4zM595.73 265.57l10.42 15-38.24 10.2 8.21-33.78 19.61 8.58z" class="bb"/><path d="m770.56 278.77 33.16-7.2 6.2 8.2-18.17 5.52-21.19-6.52z" class="be"/><path d="m791.75 285.29 11.97-13.72 26.58 9.34-38.55 4.38z" class="bb"/><path d="m389.59 254.66-80.5 13.32-21.21 10.66 125.83 8.86 12.85-7.17 15.19.17 38.78-2.99 26.61 4.01 19.25-14.36-59.52-19.98-40.31 21.8-18.93-1-18.04-13.32z" class="be"/><path d="m540.71 281.46-14.32-14.3-13.18 9.83 27.5 4.47zM466.87 247.18l40.27 34.34-19.14 3.97-46.25-4.99 25.12-33.32z" class="bb"/><path d="m389.59 254.66 36.97 14.32-2.92 8.23-9.93 10.29-24.12-32.84z" style="fill:#ecc675;fill-rule:evenodd;stroke-width:0"/><path d="m426.56 268.98-12.85 18.52 28.04-7-15.19-11.52z" class="bb"/><path d="m264.49 302.25 17.72-7.37 7.95 8.93-5.3 4.32-20.37-5.88z" class="be"/><path d="m282.21 294.88 2.65 13.25 20.27-4.32-22.92-8.93z" class="bb"/><path d="m87.26 297.47 25.16-5.21 19.34-10.51 18.58 12.28-13.96 12.29-15.64-2.82-7.62-4.41-7.63 1.67-18.23-3.29z" class="be"/><path d="m131.76 281.75 4.62 24.57 29-9.53-33.62-15.04zM112.42 292.26l8.32 11.24-15.25-2.74 6.93-8.5zM540.71 281.46l27.2 9.31 8.97 9.56-59.47 13.23 29.73-21.07-6.43-11.03zM398.11 301.51l44.31-12.94 11.35-3.78 14.06 2.48-10.67 5.62-13.97 13.17-45.08-4.55zM517.41 313.56l-15.3-16.83-21.14 13.15 36.44 3.68z" class="bb"/></g><g id="h"><path d="m401 293.37-30.55 10.27-63.48-5.86 20.68-9.66 38.62-3.96 34.73 9.21zM233.05 297.78l7.18-2.79 5.11 2.79 46.18-6.63-33.29-10.65-18.66-2.12-28.91-4.1-7.96 4.75-12.67 4.87-1.88 5.7 9.1 4.17 35.8 4.01zM561.18 298.74l-14.04-6.25-22.68 4.24-11.18-3.88-11.17 3.88-14.77-3.84-9.31-5.39 9.97-2.01 19.14-3.97 15.82 2.92 17.75-2.98 27.2 9.31-6.73 7.97zM688.35 292.14l-23.6 4.33-14.85-5.7-3.57-10.2 15.78-4.2 29.09 6.38-2.85 9.39z" class="r"/></g><g id="i"><path d="m334.1 242.39 14.71-7.17 4.18-10.21-8.83-11.91-10.06 5.35v23.94z" style="fill:#29303e;fill-rule:evenodd;stroke-width:0"/><path d="m359.79 224.73-1.6 22.48-9.18 11.29-12.75-2.57-5.78-17.04 8.21-3.67 10.32-6.32 3.98-3.89 6.8-.28z" class="ax"/><path d="m338.69 235.22-7.38 20.88-11.64 3.85-9.63-9.25 1.57-26.73 12.45 1.66 14.63 9.59z" class="an"/><path d="m383.71 118.21 5.41-8.08-8.05-9.84-6.92 1.73-4.3 6.84 13.86 9.35z" class="x"/><path d="m344.16 78.51-15.43-7.05h-10.31l-6.87 10.92-4.16 12.08 29.48.4 7.29-16.35z" class="av"/><path d="m364.49 87.8-20.33-9.29-36.77 15.95-5.37 15.67 62.47-22.33z" class="aq"/><path d="m297.88 172.51 16.29 6.73-.73-15.38-12.76-8.85-2.8 2.83v14.67z" class="ar"/><path d="m302.02 159.36 9.53 8.29 13.31-4.15v-11.32l-7.89-4.83-14.95 12.01z" class="af"/><path d="m379.43 157.08 4.87-30.79-14.26-2.7-3.85 5.96v25.82l13.24 1.71z" class="ax"/><path d="m359.75 173.86 19.68-16.78-9.01-4.36-7.61-3.81-12.4 13.21 5.25 9.22 4.09 2.52z" class="m"/><path d="m357.8 220.47-6.74 6.44-8.69-19.15h8.69l2.49 3.64 4.25 9.07z" class="al"/><path d="m346.86 211.02-10.57 20.07-22.41-11.74 4.91-9.93 13.49-3.61 14.58 5.21zM320.92 160.71l-9.37 6.94 5.66 6.93-4.32 10.11 34.95 8.23 16.65-5.07-4.74-13.99-13.86-8.54-24.97-4.61z" class="al"/><path d="m312.89 184.69 5.9 24.73 34.76 1.98 10.94-23.55-51.6-3.16z" class="an"/><path d="m346.86 167.66 3.59 19.33 2.1 3.83 3.11-3.51-4.4-19.65h-4.4z" class="ao"/><path d="m350.45 186.99-8.08 23.77 1.79 2.34 2.7-2.08 8.8-23.71-5.21-.32z" class="x"/><path d="m355.01 160.71-16.99-8.53-8.29 7.18 16.16 4.14 9.12-2.79z" class="v"/><path d="m369.65 93.91.77 58.81-24.53.31-6.61 6.33-10.55-1.92-7.45-10.98-15.74-31.35 20.7-15.18 43.41-6.02z" class="ba"/><path d="m339.78 155.98-7.14-1.46-3.91-42.29.15-14.24-23.34 17.12 13.61 35.71 5.11 7.8 14.34 5.24 1.18-7.88z" class="w"/><path d="m345.89 153.03-17.16.24 9.87 10.59 7.29-10.83z" class="bj"/><path d="M366.19 111.92 349.81 129l-11.93-17 6.28-.77 5.29 3.92 2.82 2.64 2.65-2.83 1.25-2.55 4.03-3.55 5.99 3.06z" class="w"/><path d="m349.45 115.15.36 13.85 2.74.55 3.11-.79-.74-13.8-5.47.19z" class="q"/><path d="m349.81 129 3.22 2.34 2.63-2.58-5.85.24z" class="bj"/><path d="m339.72 117.69 7.14 2.62-6.3 3.28 2.5-2.95-3.34-2.95z" style="fill:#232a38;fill-rule:evenodd;stroke-width:0"/><path d="m349.45 115.15 1-2.47-10.67-3.82-1.9 3.14 11.57 3.15z" class="af"/><path d="m340.04 136.9 12.69 5.76 10.08-5.55-10.08 1.02-12.69-1.23z" class="bc"/><path d="m352.94 134.9-5.49 1.83-7.41.17 12.69 2.43 10.08-2.22-5.44-.44-4.43-1.77z" class="z"/><path d="m356.17 112.41-1.16-1.88 4.68-3.89 5.4 2.22 1.1 3.06-6.02-2-4 2.49zM328.73 112.23 321.34 129l-13.37 19.32-5.83-7.29-7.78-6.93 8.99-13.46 13.62-9.75 11.76 1.34z" class="af"/><path d="m328.73 112.23-34.37 21.87 1.7 12.16 10.94-3.6 17.86-14.82 3.87-15.61z" class="ar"/><path d="m324.86 127.84-36.33 22.92 5.83 8.6h7.66l16.18-11.04 3.8-8.99 2.86-11.49z" class="as"/><path d="m288.53 150.76 13.49 8.6-4.14 13.15-9.35-21.75z" class="af"/><path d="m319.67 161.63 18.35 7.09 21.73 5.14-4.74-13.15-30.75-2.09-4.59 3.01z" class="bp"/><path d="m319.67 161.63 35.34-.92-32.35-4.53-2.99 5.45z" class="bd"/><path d="m342.37 210.76 6.64 18.14 10.78-4.17-1.99-4.26-6.74 1.38-4.2-10.83-1.94 1.11-2.55-1.37z" class="n"/><path d="m346.86 211.02-8.17 24.2-27.08-11.25 2.27-4.62 21.44 6.64 7.05-15.23 4.49.26z" class="ao"/><path d="m311.55 167.65 27.06-6.02 7.28 1.87 2.92 14.65-35.92 6.54-1.34-17.04z" class="m"/><path d="m338.61 161.63 9.76-17.17 16.12 6.7-15.68 26.99-10.2-16.52z" class="ax"/><path d="M302.02 159.36 322 139.33l-2.85 11.49-17.13 8.54z" class="ar"/><path d="m382.9 112 3.1 23.84-21.81 7.5-4.27-25.65L382.9 112z" class="bp"/><path d="m354.92 114.96-.96 22.94 10.96 3.77-2.11-22.24-1.06-3.8-6.83-.67z" class="z"/><path d="M369.85 108.86 382.9 112l-20.09 7.43-7.89-4.47 14.93-6.1z" class="bd"/><path d="m303.35 120.64 70.8-24.6-6.91-10.09-72.88 21.38 8.99 13.31z" class="x"/><path d="m370.42 82.38-76.06 24.95 79.79-11.29-3.73-13.66z" class="ao"/><path d="m312.89 78.51-7.35-1.28 6.01-15.72 18.63 3.16-5.32 6.79-11.97 7.05z" class="al"/><path d="m311.55 82.38 17.18-10.92 1.45-6.79-24.64 12.56 6.01 5.15z" class="m"/><path d="m351.42 139.08 3.19-16.75 6.84-1.69 11.65 3.74-12.33 26.22-9.35-11.52z" class="n"/><path d="m354.61 122.33 5.56-12.41 3.9 1.3.85 7.43 8.18 5.73-18.49-2.05z" class="ao"/><path d="m373.1 124.38 4.42-5.45 6.19-.72 5.41 5.93-7.59 1.03-8.43-.79z" class="al"/><path d="m373.1 124.38 4.79 7.91 7.49-1.21 5.66-7.48-2.76-1.34-15.18 2.12z" class="an"/><path d="m392.83 117.15 4.11 7.23-5.19 5.67-5.75-7.79 6.83-5.11z" style="fill:#cccfd4;fill-rule:evenodd;stroke-width:0"/><path d="m392.83 117.15-4.55 5.11-2.89 2.12-4.32-1.12 2.64-5.05 9.12-1.06z" class="as"/><path d="m381.07 123.26 4.31 7.82 6.37-1.03-3.47-7.79-7.21 1z" class="af"/><path d="m351.42 139.08 19 13.64-6.57 9.4-15.48-17.66 3.05-5.38z" class="bo"/><path d="m381.07 100.29-3.96 13.85-4.01-1.73 1.05-10.39 6.92-1.73z" class="ao"/><path d="m309.48 261.37 8.88 5.33 10.23-1.94 2.72-8.66-21.27-5.4-.56 10.67z" class="al"/><path d="m336.26 255.93 21.93-8.72-.8 12.78-9.02 5.38-9.31.2-2.8-9.64z" class="an"/><path d="m309.48 261.37-1.27 21.31 8.51 1.22 7.6-4.68 4.27-14.46-7.42-1.32-3.48 3.12-.6-3.84-7.61-1.35z" class="aq"/><path d="m339.06 265.57 3.96 13.65 8.04-.12 5.4-4.47-4.45-13-12.95 3.94z" class="z"/><path d="m324.32 279.22 5.44 14.55-11.4 2.01-11.39-2.01 1.24-11.09 16.11-3.46z" class="av"/><path d="M306.97 293.77h22.79v4.01h-22.79z" class="bl"/><path d="M343.02 279.22v11.27l16.73 2 13.03-2-6.51-6.33-11.57-8.93-11.68 3.99z" class="bp"/><path d="M343.02 290.49h29.76v4.01h-29.76z" class="bl"/><path d="m321.17 263.44-2.81 17.06-1.18 1.88-2.16-1.16 2.07-18.5 4.08.72z" class="x"/><path d="m318.36 280.5 2.01 6.34-4.1 1.28-1.25-6.9 3.34-.72z" class="bk"/><path d="m352.01 261.63 1.56 13.99 2.62.74.27-1.73.93-14.64-5.38 1.64z" class="x"/><path d="m353.57 275.62 7.21 9.96 5.49-1.42-9.81-9.53-2.89.99z" class="bk"/></g><g id="j"><path d="m670.22 172.12 13.38 16.87-13.63 8.96-3.37-13.49 3.62-12.34z" class="n"/><path d="m626.74 279.56-10.65 7.7 29.03 1.33 4.34-8.86-5.84-5.4-7.12.59-9.76 4.64z" class="z"/><path d="M616.09 287.26h31.43v4.61h-31.43z" class="s"/><path d="m626.74 279.56 3.53 2.33 7.15-6.06-4.68-.6-6 4.33z" class="bk"/><path d="m646.33 280.57-10.21 11.29 14.31 2.3 14.32-2.3-1.76-8.55-11.78-4.04-4.88 1.3z" class="bp"/><path d="M636.12 291.86h28.63v4.61h-28.63z" class="s"/><path d="m650.26 279.27-3.1 7.45 4.73.78 2.52-8.68-4.15.45z" class="bk"/><path d="m622.33 255.76 7.5 14.03 16.5 10.78 1.78-12.19-11.3-17.65-14.48 5.03z" class="ax"/><path d="m626.26 232.08-3.93 23.68 14.48 2.93 6.5-3.27 6.59-25.7-13.63-1.36-10.01 3.72zM643.62 274.33l-13.79-4.54 2.91 5.44 13.59 5.34.67-3.62-3.38-2.62z" class="an"/><path d="m626.26 232.08 18.43 17.96 9.93-18.81-9.32-5.85-19.04 6.7z" class="ax"/><path d="m683.6 228.36-22.91 36.78-9.48 3.24-14.4-9.69 6.5-28.7 40.29-1.63z" class="bx"/><path d="m604.46 180.54-12.36-5-5.7 10.41 9.33 3.3 5.35-2.99 3.38-5.72z" class="ar"/><path d="m558.92 169.13 29.9-6.53 5.42 39.42-25.03 3.25-10.29-36.14z" class="o"/><path d="m583.15 195.28 5.57 6.49-4.01 1.83-1.56-3.36v-4.96z" class="ac"/><path d="m575.69 195.28 1.64-1.29 2.45 1.07 3.37.22 2.46 7.63-7.13 1.44-3.21-4.54.42-4.53z" class="bo"/><path d="m579.78 195.06 4.1-3.66-4.97-1.04.87 4.7z" class="z"/><path d="m581.71 187.91-1.93 7.15-3.3-2.87-4.91-5.71 2.12-4.08 8.02 5.51z" class="w"/><path d="m582.12 177.39 2.97 9.76-6.61 1.49-4-8.76 7.64-2.49z" class="ba"/><path d="m573.53 191.95 4.95-1.04 1.3 4.15-4.09.22-2.16-3.33z" class="av"/><path d="m575.69 195.28-3.18 9.41h6.25l-3.07-9.41z" class="ac"/><path d="m571.57 186.48-.97-7.89 12.55-5.2-1.03 4-7.64 2.49 2.69 5.88-1.48 1.09-2.16-1.84-1.96 1.47z" class="av"/><path d="m592.4 159.84-37.63 6.7 12.52 45.87 30.33-6.61-5.21-45.97Zm-21.57 45.04-9.64-33.85 26.06-5.69 4.89 35.56-21.31 3.98Z" class="an"/><path d="m604.46 180.54-7.4-8.42-8.78.7-4.63 7.72 2.75 2.2 4.85-4.56 10.57 6.83 2.64-4.47z" class="af"/><path d="m633.79 167.53-22.55 21.11 10.61 9.31 18.24-11.2-6.3-19.22z" class="ak"/><path d="m626.09 185.95-3.74 5.32-.5 6.68 6.26-4.74.52-4.91-2.54-2.35z" class="ar"/><path d="m681.05 91.78 2.55 13.45-18.15-6.79-2.46-12.61 18.06 5.95z" class="v"/><path d="m616.94 89.88 4.42-6.32 39.33 8.22 14.77 16.2 5.59 12.46-33.45-7.46-30.66-23.1z" class="bp"/><path d="m609.55 101.23-8.47 55.44 23.98 4.24 11.15 5.15 12.6 3.6 9.21-7.68 17.44-23.96-12.08-23.44-34.91-14.4-18.92 1.05z" style="fill:#d0ab92;fill-rule:evenodd;stroke-width:0"/><path d="m635.18 164.73 6.73-1.09 10.66-50.66 16.97 14.53 5.92 10.51-5.24 11.48-3.41 3.22-.72 5.8-3 6.57-13.55 8.77-15.75-6.33 1.39-2.8zM610.39 117.37l13.82 19.48 15.88-13.25-3.15-4.68-7.82 1.83-2.97 2.14-2.36 2.45-1.23-3.24-1.78-3.45-3.98-4.07-6.41 2.79z" class="by"/><path d="m622.56 122.1-4.04 13.67 2.33 1.08h3.36l1.94-13.96-3.59-.79z" style="fill:#d8bca9;fill-rule:evenodd;stroke-width:0"/><path d="m618.52 135.77 2.39 2.9 3.3-1.82-5.69-1.08zM610.39 140.31l25.15 4.36-8.6 7.03-12.79-2.24-3.76-9.15z" class="br"/><path d="m613.79 143.1 16.12 2.84-1.58 1.4-13.69-2.43-.85-1.81z" style="fill:#f9fafa;fill-rule:evenodd;stroke-width:0"/><circle cx="633.06" cy="129.58" r="2.24" class="bt"/><circle cx="614.46" cy="126.19" r="2.24" class="bt"/><path d="m625.06 160.91 26.66 4.3-9.45 4.55-8.48-2.23-8.73-6.62zM670.22 149.5l-9.53-2.59 5.4 11.61 4.13-9.02zM664.21 144.55l2.36-7.7 4.48 1.82-6.84 5.88z" class="br"/><path d="m610.39 117.37-.28-1.5 6.59-2.18 5.18 3.68-1.1 1.28-4.79-2.48-5.6 1.2zM629.12 120.75l-.65-1.7 8-1.09 4.45 4.14-.83 1.5-4.55-3.41-6.42.56zM653.33 123.95l-1.52 4.6 1.61 16 4.6.67 4.97-12.34 12.47 5.14 2.23-5.14-14.6-13.36-6.26 1.14-3.5 3.29z" class="an"/><path d="m662.99 132.88-11.18-4.33-.82-8.07 5.87.3 5.41 4.94.72 7.16z" style="fill:#545c6d;fill-rule:evenodd;stroke-width:0"/><path d="m609.55 101.23 6.25 2.9 4.59-1.2 2 4.26 3.87 1.8 4.31-.71 2.21 3.74 3.74 1.74 3.57-.07 2 2.66 3.48 1.61h3.67l1.75 2.52 4.04 1.87 4.18-.25 3.06 3.62 3.98 1.84 3.97-.22 1.92 2.96 5.55 2.58 3.36-12.44-64.11-30.56-7.39 11.35z" class="ao"/><path d="m615.8 104.13 9.19-10.41-2.6 13.47-6.59-3.06zM626.26 108.99l8.62-10.55-2.1 13.58-6.52-3.03zM636.52 113.76l7.78-10.83-2.2 13.4-5.58-2.57zM650.99 120.48l3.04-12.92-8.46 10.4 5.42 2.52zM655.03 122.35l8.35-10.33-1.11 13.7-7.24-3.37zM666.25 127.56l7.55-10.57-1.66 13.31-5.89-2.74z" class="x"/><path d="m621.36 83.56 54.1 24.42-11.25-25.08-42.85.66z" class="z"/><path d="m621.36 83.56 39.33-6.91 20.36 15.13-59.69-8.22z" class="av"/><path d="m683.6 105.23 7.63 1.96-3.82 4.19h-7.35l3.54-6.15z" class="af"/><path d="m691.23 107.19-3.51 8.98-7.66-4.79 11.17-4.19z" class="ar"/><path d="m638.39 168.11-7.82 51.71 2.49 14.31 20.97 6.34 29.57-12.11-6.66-27.97-6.72-13.91v-14.36l-31.83-4.01z" class="v"/><path d="m640.09 172.65-.63 5.5-1.77 1.12 1.43 1.85-2.85 24.88-2.12.9 1.89 1.19-.85 7.41-1.4.77 1.13 1.59-.77 6.69-1.77.83 1.52 1.41-.84 7.34-6.8-2.05.78-6.7 1.56-.83-1.2-2.24.71-6.09 1.1-1.23-.78-1.54.78-6.61 1.36-.98-.99-2.23 2.8-24.07 1.77-1.23-1.3-2.79.94-8.01 5.55 2.23.75 2.89z" class="bi"/><path d="m670.22 172.12-20.42 8.42-2.72-2.21-1.78-3.83-5.21-1.85-6.3-5.12 30.08-4.14 6.35 8.73z" class="ao"/><path d="m666.49 166.99-26.4 5.66 6.99 5.68 19.41-11.34z" class="n"/><path d="m669.97 183.09-6.98 1.91-11.78 21.02 13.54 4.37 12.19-10-6.97-17.3z" class="ak"/><path d="M670.22 172.12 662.99 185l13.95 15.39-6.72-28.27z" class="af"/><path d="M664.75 210.39 649.8 196.4l-7.29 3.26-1.59 7.49 8.88 12.67 14.95-9.43z" class="ae"/><path d="m633.9 226.79-6.86-1.41.36-3.07 6.75 2.24-.25 2.24zM628.11 216.22l6.81 1.64.27-2.36-6.76-2.05-.32 2.77zM629.21 206.84l6.83 1.25.23-2.09-6.69-2.37-.37 3.21zM639.46 178.15l-6.61-2.61-.47 4.02 6.74 1.56.34-2.97z" class="av"/><path d="m648.11 171.04-23.74 31.15-3.22-.28.7-3.96 21.61-29.84 4.65 2.93z" class="bx"/><path d="m645.3 192.18-6.41-9.09-6.15 7.73v6.99l4.07 3.48 5.7-1.63 2.79-7.48z" class="ar"/><path d="m638.89 183.09-12.8 2.86.18 13.75 6.47-1.89 6.15-14.72z" class="af"/><path d="m621.85 197.95-3.06 7.91 5.58-3.67-2.52-4.24z" style="fill:#9a9fa9;fill-rule:evenodd;stroke-width:0"/><path d="m621.85 197.95-13.06-13.07-6.53 1.07.18 12.33 4.23 5.75 15.18-6.08z" class="ae"/><path d="m645.3 192.18 4.5 4.22-8.88 10.75-4.11-5.86 8.49-9.11zM604.46 180.54l4.33 4.34-6.35 13.4-6.71-9.03 8.73-8.71z" class="av"/><path d="m636.81 258.69 6.81 15.64 7.59 4.94 10.9-2.9-1.42-11.23-23.88-6.45z" class="m"/><path d="m662.99 283.31-.88-6.94-18.49-2.04 2.71 6.24 16.66 2.74z" class="al"/></g><g id="k"><path d="m428.34 191.5 10.05-6-2.13 9.88-7.92-3.88z" class="ak"/><path d="m475.98 163.44-10.45 27.47 1.85 14.21 10.14 4.56 5.62-10.24-3.67-20.1-3.49-15.9z" class="z"/><path d="m465.53 190.91-13.68-1.27-1.15 14.85 26.82 5.19-11.99-18.77z" class="bp"/><path d="m466.73 37.79-5.11-2.67-13.85 7.34.71 9.62 10.33-.89 7.92-13.4zM431.37 53.86l9.62-15.14 6.78 3.74-10.16 17.64-3.74-1.96-2.5-4.28z" class="ao"/><path d="m426.56 97.32 4.81-43.46 5.35 2.37v36.99l-4.22 10.9-5.94-6.8z" class="bi"/><path d="m432.5 99.52-5.94-2.2 15.86 191.25 6.91 1.71 3.01-26.58-14.2-162.93-5.64-1.25z" class="bw"/><path d="m463.15 91.48 9.03-38.33-5.45-15.36-18.25 14.29-3.03 45.24 6.89 1.54 10.81-7.38z" class="ak"/><path d="m464.35 141.73 3.48 145.54-6.95 1.76-6.46-43.31-11.23-134 6.18-17.38 14.98 47.39z" class="v"/><path d="m449.37 94.34 13.78-2.86 1.2 50.25-12.01 2.8-9.15-18.51 6.18-31.68z" class="af"/><path d="m449.33 290.28-7.41-84.02-3.76-6.6 2.56-7.02-3.72-42.1 1.5-33.43-6-17.59 8.44-12.61 8.43 7.43-2.68 22.27 5.65 27.92 8.54 144.5-11.55 1.25z" class="aq"/><path d="m432.5 99.52 4.22-43.29 11.05-13.77 6.65 13.77-5.05 38.11-11.23 6.43-5.64-1.25z" class="z"/><path d="m432.5 99.52 16.87-5.18 2.97 50.19-15.34 6.01-4.5-51.02z" class="as"/><path d="m441.29 58.97 5.4-7.6 3.51 5.79-8.91 1.81z" class="ac"/><path d="m457.25 52.08 7.1-5.58 2.38 6.65-9.48-1.07z" class="bi"/><path d="m569.87 225.64-5.63-10.85-6.91 1.58 6.99 12.29 5.55-3.02z" class="an"/><path d="m545.25 178.79-18.86 32.45 14.54 4.94 14.1-18.29-9.78-19.1zM478.03 234.29l-3.07 23.81 7.63 12.32 13.82-2.31 13.47-22.09-31.85-11.73z" class="aq"/><path d="m496.41 268.11-21.45-10.01-1.12 8.7 8.48 8.72 9.67-.16 4.42-7.25z" class="bq"/><path d="m472.25 277.75-4.58 2.6-10.51 9.07 17.32 1.35 12.86-1.29.66-7.58-12.02-7.06-3.73 2.91z" class="bi"/><path d="m476.56 277.51-5.82 5.24-3.07-2.4 4.98-4.34 2.31-1.17 1.6 2.67z" class="bv"/><path d="m498.25 250.71 3.86 13.38 12.14 6.33 12.14-3.26 6.94-31.94-25.61 7.51-9.47 7.98z" class="av"/><path d="m526.39 267.16-24.28-3.07 2.82 9.77 10.28 3.65 9.83-3.56 1.35-6.79z" class="aq"/><path d="m507.14 281.52-5.03 11.74 12.35 1.73 10-1.73-1.5-8.82-5.33-3.42-2.65-.69h-2.59l-5.25 1.19z" class="bi"/><path d="M524.46 296.73h-22.35v-3.47h22.35zM487.34 292.89h-30.18v-3.47h30.18z" class="bg"/><path d="m478.03 234.29 20.22 16.42 35.08-15.49-24.33-3.37-11.59-7.16-7.11 5.34-12.27 4.26z" class="bp"/><path d="m481.68 167.12 8.62-3.83 5.92 8.12 4.76 11.39 15.7-5.34 15.54-3.42 7.26 8.06-4.81 29.14-2.45 7.5 1.11 16.48-29.46 5.03-6.46-14.73-7.91 13.06-11.47-4.29-.69-33.38 4.34-33.79z" class="bv"/><path d="m536.9 161.11-5.87-6.13-.9 5.61-3.54 5.93 10.31-5.41zM496.54 148.14l-11.63 6.11 5.39 9.04 10.68 19.51-.58-19.84-3.86-14.82z" class="bq"/><path d="m534.67 211.24-2.45-37.2 13.03 4.75-10.58 32.45zM475.98 163.44l1.36 37.47 12.96-37.62-14.32.15z" class="av"/><path d="m483.76 190.53 13.57 1.78-.49 3.07-13.57-1.77.49-3.08z" class="bc"/><path d="m536.9 95.17-29.69-4.36-14.91.24-2.84 13.11 1.9 7.95-4.94 6.07-5.45 25.18 15.57 4.78 2.13 6.75 2.18 4.44 14.26 7.79 11.74-7.41 15.72-25.16 11.28-17.8-16.95-21.58z" class="ba"/><path d="m532.56 99.25-15.97 54.74-18.21 1.16-.17 6.92 2.77 20.73 17.99-10.37 10.89-9.95 10.35-16.14.37-4.58-.14-9.89 11.41-3.67.94-14.94-8.93-12.82-11.3-1.19zM500.43 125.8l9.78-13.93 12.41-4.02-8.9-4.37h-5.3l-3.65 4.42-5.17 9.32.83 8.58zM499.46 106.63l-.57-4.51-4.21-2.21-4.21-.39 6.6 20.76 2.39-13.65z" class="w"/><path d="m535.87 132.73 8.82 6.62-4.48 6.99-4.34-13.61zM502.91 115.57l16.16 13.52 6.65-6.42 2.85-.1 5.18-3.61-11.13-1.8-19.71-1.59zM497.54 114.56l-11.12 3.62.48-2.18 2.16-3.89 8.48 2.45z" class="bj"/><path d="m540.01 105.54-6.39 9.51.13 3.91-5.18 3.61-4.98 7.41 8.57 8.01 10.28-14.6.4-4.16 9.01 8.97 5.32-8.19-8.55-10.37-8.61-4.1z" class="z"/><path d="m497.54 107.85 9.58 3.21-4.21 4.51-2.48 10.23-2.66.61-2.64-1.89 2.41-9.96v-6.71z" class="q"/><path d="m522.62 107.85-9.83-6.69-4.37 2.32 14.2 4.37zM498.89 102.12l-4.21-4.41-4.21 1.81 8.42 2.6z" class="aq"/><path d="m486.7 127.38 29.91 7.24-11.33 5.73-12.98-3-5.6-9.97z" class="bj"/><path d="m490.14 130.16 21.01 5.06-6.28 3.5-11.23-2.63-3.5-5.93z" style="fill:#fff;fill-rule:evenodd;stroke-width:0"/><path d="m495.13 124.52 2.28 3.78 3.02-2.5-5.3-1.28z" class="bj"/><path d="m528.57 122.57 13.87.82.94-1.34-7.41-2.04-6.13.67-1.27 1.89z" class="bq"/><path d="m496.54 148.14 26.22 7.65-24.55 6.28-1.67-13.93z" class="bj"/><path d="m503.67 75.35 48.18 12.29 8.97 15.02-30.96-11.61-26.19-15.7z" class="av"/><path d="m532.56 99.25 24.61 20.76 3.65-17.35-22.04-10.79-6.53 1.55.31 5.83z" class="aq"/><path d="m532.56 99.25 6.22-7.38-35.11-16.52-3.79 9.97 2.8 10.79 29.88 3.14z" class="z"/><path d="m503.67 75.35-24.61-5.69 13.24 21.39 10.38 5.06.99-20.76z" class="av"/><path d="m524.53 112.63 26.63 6.42.69 9.15-8.47-6.15-20.76-2.18.24-4.03 1.67-3.21zM499.46 106.63l5.31 1.27.28 2.26-1.4 2.38-5.3-1.33-.58-1.94 1.69-2.64z" class="ax"/><path d="m482.88 102.66 16.58 3.97-1.92 7.93-18.07 2.45 3.41-14.34Zm21.89 5.24 19.76 4.73-3.82 14.48-17.8-11.54 1.86-7.67Z" class="an"/><path d="m514.46 167.52 22.44-6.41-4.68 12.93-31.24 8.76 13.48-15.28z" class="av"/><path d="m532.22 218.74-31.37-13.85h-3.44l-19.78 10.17 19.78 10.46 34.81-6.78z" class="at"/><path d="m500.98 182.8-.13 22.09-3.44 20.63v-20.63l3.57-22.09zM555.03 197.89l-28.18 18.48 1.4 8.32 4.73 5.36 31.26-15.26-9.21-16.9z" class="bc"/><path d="m526.85 216.37-6.99 4.48 13.12 9.2-6.13-13.68z" class="v"/><path d="m525.04 273.95-20.11-.09 2.21 7.66 15.82 2.92 2.08-10.49zM491.99 275.36l-18.15-8.56-.47 3.62 3.19 7.09L488 281.9l3.99-6.54z" class="bp"/><path d="m476.56 277.51 1.07-5.79-4.26-1.3-.72 5.59 3.91 1.5z" class="at"/><path d="m572.66 230.03-41.37 16.08-7.7 6.71 2.8 14.34 49.73-10.17 6.96-19.29-10.42-7.67z" class="an"/><path d="m531.29 246.11 51.79-8.41-13.21-12.06-53.93 6.69 4.22 9.66 11.13 4.12z" style="fill:#787f8d;fill-rule:evenodd;stroke-width:0"/><path d="m517.27 234.39 4.15 2.86 9.87 8.86-4.9 21.05-16.09-14.34 3.95-14.34 3.02-4.09z" class="al"/><path d="m532.22 174.04-17.97 64.44 7.17-1.23 15.81-61.38-5.01-1.83z" class="an"/><path d="m546 248.9-5.1 1.9-.64 2.56 2.46.96-3.28 2.12-.09 1.66 4.39-1.94 1.47-3.17-3.12-.95 4.07-1.59-.16-1.55zM551.91 248.87l-4.09.53-2.23 7.13 2.22-.07.11-3.05 3.24-.6.74-3.95Zm-2.52 3.24-1.3-.12.38-1.51 1.28.35-.36 1.28ZM557.67 248.34l-4.38.85-1.2 6.34 4.67-1.19.91-6Zm-2.42 4.88-1.63.1.58-2.52 1.95-.09-.9 2.51ZM563.58 253.56l-.88-2.3 1.31-4.08-3.95.51-2.05 6.99 2.15-.06.07-2.99 1.86 2.57 1.49-.64Zm-2.87-4.82 1.24.34-.33 1.26-1.26-.12.35-1.48ZM565.31 247.34l5.72-1.5-.36 1.59-2.53.65-.8 4.88-2.07.28 1.58-4.67-2.07.35.53-1.58z" class="o"/><path d="m543.38 122.05 8.47 6.15-7.16 11.15-8.82-6.62 7.51-10.68z" class="ba"/><path d="m540.44 131.87 3.44-5.95 5.09 3.51-8.53 2.44z" class="bj"/><path d="m517.63 283.39-.79 5.57h-6.42l2.11-6.48 2.45-.58 2.65 1.49z" class="bv"/><path d="M517.62 283.46v-5.71l-5.42-.54.33 5.31 5.09.94z" class="at"/><path d="m428.34 191.5 12.38 1.14 1.2 13.62-6.18 1.79-7.4-16.55z" class="v"/></g><g id="l"><path d="m257.13 199.02 4.85-7.45 10.03-.75-2.61 14.02-12.27-5.82z" class="ar"/><path d="m261.98 191.57 16.79-6.15 1.88 17.88-7.33 5.02-11.34-16.75zM186.05 204.4l15.65-3.72-17.12 19.72 1.47-16z" class="af"/><path d="m172.76 227.75 13.29-23.35 2.1 24.68-15.39-1.33z" class="ar"/><path d="m199.55 227.04-26.79.71 9.23 12.69 11.5-6.35 6.06-7.05z" class="af"/><path d="m207.04 259.52 3.56 16.98-3.56 2.53h-4.34l-10.37-15.78 14.71-3.73z" class="bi"/><path d="m210.6 276.5 6.44 8.8h-12.18l-2.16-6.27 7.9-2.53z" class="bx"/><path d="m221.47 232.28-21.92-5.24-9.03 5.24 23.27 10.97 3.34-3.74 4.34-7.23z" class="ao"/><path d="m242.64 223.73-21.17 8.55 19.99 4.99 2.75-6.65-1.57-6.89z" class="ao"/><path d="m261.98 261.37-3.75 19.13-1.9 3.4-5.13-1.52-4.25-12.88 15.03-8.13z" class="aq"/><path d="m280.65 246.82 5.15-6.57-3.3-14.74-27.71-7.06-3.59 5.52 14.73 15.14 14.72 7.71z" class="ae"/><path d="m251.2 232.28 9.02 14.93 1.76 14.16 18.67-14.55-24.47-22.38-4.98-.47v8.31z" class="bo"/><path d="m270.68 230.62 9.97 16.2 5.97 2.92 5.26-10.23-2.44-9.6-10.47-2.87-8.29 3.58z" class="as"/><path d="m277.24 228.9 8.56 12.35-2.03-14.21-6.53 1.86zM280.65 246.82l11.23-7.31 3.39 13.32-12.77 5.67-1.85-11.68z" class="af"/><path d="m280.65 203.3 7.55 11.7-18.36 6.59-9.62-10.93 3.75-5.46 16.68-1.9z" class="bc"/><path d="m241.46 205.2 1.18 18.53 8.56 8.55 4.98-7.84 14.5 6.18 11.82-5.11-1.37-10.33-10.93 3.32-9.98-7.84-5.52-6.35-13.24.89z" class="ac"/><path d="m270.68 230.62 18.76-.71 3.28-4.34 3.28.27 4.92-3.04-4.82-12.61-7.9 4.81-7.07.18-10.45 15.44z" class="bo"/><path d="m257.13 199.02 23.52 4.28-20.43 7.36-18.76-5.46 15.67-6.18z" class="ao"/><path d="m289.44 229.91 2.34-9.51 4.22 5.44-6.56 4.07z" class="av"/><path d="m281.13 215.18 14.97-4.99-4.32 10.21-10.65-5.22z" style="fill:#3d4554;fill-rule:evenodd;stroke-width:0"/><circle cx="271.36" cy="213.22" r="1.96" class="am"/><circle cx="280" cy="210.1" r="1.96" class="am"/><path d="m261.98 261.37-25.19 19.13-2.67-13.8 11.22-24.74h11.71l4.93 19.41z" class="bi"/><path d="m236.79 280.5-48.69-7.43-6.04-5.37.45-10.85 25.59 1.65 26.02 7.07 2.67 14.93z" class="aq"/><path d="m251.2 282.38 2.4 8.11h12.33l-7.7-9.99-7.03 1.88z" class="bx"/><path d="m221.87 262.24-13.77-3.74-17.58-11.29v-14.93l21.5 6.83 9.85 8.15v14.98z" class="bo"/><path d="m245.34 241.96-1.96-8.74-5.82.92-16.09-1.86-9.45 6.83 9.85 23.13 9.04 1.72 11.94-7.57 2.49-14.43z" class="ac"/><path d="m242.85 256.39-4.64 31.11-1.42 4.99-6.24-2-8.68-28.25 20.98-5.85z" class="av"/><path d="m230.55 290.49 2.5 7.29h12.29l-7.13-10.28-7.66 2.99z" class="bx"/><path d="m190.52 232.28-18.53 9.68 3.68 20.28 9.03 1.72 23.4-5.46-17.58-26.22z" class="ac"/><path d="m208.1 258.5-20.7 10.33-6.58 5.03-8.44-.97 3.29-10.65 32.43-3.74z" class="av"/><path d="m187.4 268.83 2.63 15.07-2.77 3.6h-4.34l-10.54-14.61 15.02-4.06z" class="bi"/><path d="m190.03 283.9 7.22 9.87h-12.17l-2.16-6.27 7.11-3.6zM242.64 223.73l8.56 8.55.42 10.27-6.4.13-7.66-8.54 5.08-10.41z" class="bx"/><path d="m251.2 232.28 20.81 21.27-10.03 7.82-16.76-18.69 5.98-10.4z" class="m"/><path d="m242.73 232.22 3.5-.12.06 3.51-3.09.18-.47-3.57z" style="fill:#bbbfc6;fill-rule:evenodd;stroke-width:0"/><path d="m250.23 239.35 3.68.18-.12 3.38-3.5.24-.06-3.8zM255.77 245.6l3.8-.12-.18 3.56-3.68-.12.06-3.32zM261.98 251.36l4.03.24-.59 3.39-3.39.06-.05-3.69z" class="aw"/><path d="m228.4 202.59 18.69-8 4.98 24.1-9.43 5.04-14.24-21.14z" class="af"/></g></svg>