<svg xmlns="http://www.w3.org/2000/svg" id="a" viewBox="0 0 900 320"><defs><style>.n{fill:#b18d79}.aa,.ab,.ac,.ae,.af,.ah,.ai,.aj,.al,.an,.ao,.ap,.aq,.ar,.as,.at,.av,.aw,.ax,.az,.ba,.bc,.bd,.be,.bg,.bh,.bi,.bj,.bk,.bl,.bm,.bn,.bo,.bp,.bq,.n,.o,.q,.r,.s,.t,.u,.w,.x,.y,.z{stroke-width:0}.o{fill:#576071}.q{fill:#1c5a3f}.r{fill:#5a753d}.s{fill:#89909b}.t{opacity:.1}.bi,.t{fill:#1d2432}.u{fill:#e6e97c}.w{fill:#709d52}.x{fill:#916a59}.y{fill:#8b6651}.z{fill:#68707f}.aa{fill:#dfbda5}.ab{fill:#216a4b}.ac{fill:#9a9fa9}.ae{fill:#84c8ab}.af{fill:#c3987b}.ah{fill:#abafb8}.ai{fill:#454d5d}.aj{fill:#267a56}.al{fill:#cccfd4}.an{fill:#51596a}.ao{fill:#66483a}.ap{fill:#5bb68f}.aq{fill:#bbbfc6}.ar{fill:#2e3544}.as{fill:#70bf9d}.at{fill:#343c4b}.av{fill:#404857}.aw{fill:#a0cf7e}.ax{fill:#28835c}.az{fill:#4b5464}.ba{fill:#e8cab6}.bc{fill:#648e43}.bd{fill:#b8c744}.be{fill:#237250}.bg{fill:#47ad82}.bh{fill:#d9e256}.bi{opacity:.15}.bj{fill:#787f8d}.bk{fill:#8e7e73}.bl{fill:#86b264}.bm{fill:#3d4554}.bn{fill:#2d9368}.bo{fill:#232a38}.bp{fill:#74665b}.bq{fill:#2b8b62}</style></defs><g id="b"><path d="m201.9 211.9-71.83-11.55 3.86-6.24 4.36 5.2 63.61 9.78 95.83-17.99-57.78-8.04 2.24-2.86 3.85 2.39 68.29 8.58L201.9 211.9z" class="as"/><path d="m239.95 183.06-101.66 16.25 3.99 1.67 107.38-17.04-9.71-.88zM82.89 242.42l302.21-50.24 306.86 27.39-15.03 1.92-294.35-24.94-266.91 44.62 155.84 20.15-18.11 4.52-170.51-23.42z" class="as"/></g><g id="c"><path d="m204.96 181.68 34.99 1.38-5.62-4.8-27.76-7.48-106.95 18.18 38.67 10.35 7.31-9.15 59.36-8.48zM141.83 167.81l30.69-7.36 30.64 2.3-34.16 9.04-27.17-3.98zM264.99 159l-19.36-3.48-17.54 2.12 16.49 6.36 20.41-5zM420.03 190.94l44.03-6.84 49.83 7.79-54.05 4.96-39.81-5.91zM546.07 177.18l40.38 10.07-42.77 3.92-35.91-7.07 38.3-6.92zM768 182.28l-35.2-6.14-42.89 6.09 40.18 4.44 37.91-4.39zM161.24 285.51l4.52-4.17 33.23-10.59 88.92 6.14 11.72 8.31-16.46 6.01-38.07 1.89-3.28-2.89-4.4 2.19-76.18-6.89zM358.87 285.56l-33.13 5.45 8.89 7.68 82.63-6.94 3.37-2.81-29-7.38-32.76 4zM413.38 312.14l7.25-1.51 30.49-4.9 17.11 3.5-22.54 6.48-20.44-.9-11.87-2.67zM644.74 257.05 485.51 242.7l-17.66 10.4-33.78 3.85 3.65 4.26 114.62 13.14-10.63 3.82-35.91-5.88h-11.81l-11.81 4.41 29.54 6.14 8.49-2.2 8.49 2.2 8.49-1.42 9.8 1.42 30.06 5.33 10.28-3.47 7.26 3.47 18.12-3.59-19.09-3.94-6.31-3.61 4.3-2.91 3.04 4.11 25.19-.34 32.54-5.32 19.71-8.38-27.35-7.14zM620.42 287.61l5-3.77 15.73-2.66 21.84 4.78 16.33-1.88 12.64.24 20.82 5.1-18.4 4.41-9.07-2.21-9.06 2.21-42.78-4.41-13.05-1.81zM726.64 282.23l-3.14-3.62 41.13-13.62 79.14 4.27-25.62 14.3-44.61 2.98-2.49-4.31-4.3 3.55-40.11-3.55z" class="t"/></g><g id="d"><path d="m736.25 166.89 21.72-31.7-3.51-2.97-20.6 32.78 2.39 1.89zM733.86 158.13l14.89-25.09-4.56-.82-11.39 22.88 1.06 3.03zM732.8 176.14l-1.62 3.93h-5.21l4.12-22.7 2.71 18.77z" class="ap"/><path d="m728.66 180.07 2.81-18.43 1.33 6.18-4.14 12.25z" class="bg"/><path d="m732.8 176.14 1.49-4.02-.11-2.1.84.18 1.23-3.31-3.86-21.66-5.69-31.46-7.5 6.54 13.6 55.83z" class="ae"/><path d="m735.02 170.2-11.84-53.36-1.34 1.18 12.45 54.1.73-1.92z" class="bg"/><path d="m664.75 77.94 22.59-3.35 6.18-7.5 8.71-7.88 2.9-13.13 13.72 7h21.37l-1.18 14.01 9.36 7.5 5.66 6.41 19.78.84 14.48 35.2-30.35 18.15-16.09-6.88L707 140.18l-29.23-24.14-21.55-17.03 8.53-5.88V77.94z" class="bq"/><path d="m773.84 81.84-26.61 20.61-37.31-15.05-13.7 9.71-13.7-6.23-26.3 8.13 17.29 27.95L707 140.18l34.88-17.81 16.09 12.82 30.35-18.15-14.48-35.2zM748.4 74.59l-24.3-2.37 16.12-19.14 8.18 21.51zM705.13 46.08l6.85 22.66-18.46-1.65 11.61-21.01zM709.92 87.4l14.18-15.18-12.12-3.48-2.06 18.66z" class="aj"/><path d="m709.92 87.4-16.4-20.31-28.77 10.85 45.17 9.46zM740.22 53.08l-28.24 15.66-6.85-22.66 35.09 7zM709.92 87.4l38.48-12.81 25.44 7.25-63.92 5.56z" class="bn"/><path d="m682.52 90.88 24.48 49.3 2.92-52.78-27.4 3.48zM747.23 102.45 707 140.18l50.97-4.99-10.74-32.74z" class="ab"/><path d="m682.52 90.88-17.77-12.94-8.53 21.07 26.3-8.13z" class="bn"/><path d="m546.07 168.81 17.73-52.77-5.31.59-12.42 44.3v7.88z" class="ap"/><path d="m520.4 15.68-1.63 17.96-17.81 6.88-10.23 26.03 10.23 22.35 26.34 22.63 19.69 1.24 37-8.74 36.31-31.26-23.48-32.25-38.33-1.98-7.53-10.27 1.29-16.81-31.85 4.22z" class="bq"/><path d="m552.25 11.46-12.73 33.61 22.87-6.33v-5.1l-10.14-22.18zM620.3 72.77l-38.57 8.33-13.56-.26-9.68-21.04-51.7 7.94-5.83 21.16 28.09 32.18 14.32 6.75 48.81-13.89 28.12-41.17z" class="aj"/><path d="M539.52 45.07 505.8 59.8l3.61 17.66 49.08-17.66-2.98-7.72-15.99-7.01zM596.82 40.52l-57.3 4.55 22.87-11.43 34.43 6.88z" class="bn"/><path d="M596.82 40.52 558.49 59.8l-18.97-14.73 57.3-4.55z" class="aj"/><path d="m520.4 15.68 19.12 29.39-38.56-4.55 19.44-24.84z" class="bn"/><path d="m558.49 59.8 23.24 21.3-10.69 38.85-12.55-60.15z" class="ab"/><path d="m549.66 187.25-6.29-59.42-9.6-3.31 7.58 61.91 3.41.33.6-1.38.71 1.51 3.59.36z" class="ae"/><path d="m546.07 186.89-6.68-63.76-1.43 2.84 6.8 60.79 1.31.13z" class="bg"/><path d="m471.71 144.06-3.48-14.36 1.34-1.24 4.47 13.24-2.33 2.36z" class="ae"/><path d="m465.13 153.37 20.73-21.87-3.7-3.04-3.11 4.68-14.99 15.59 1.07 4.64zM440.77 154.54l-3.67-7.56 2.65-.56 6.71 12.05-5.69-3.93z" class="ap"/><path d="m457.56 159.66-16.79-5.12 1.75 3.93 16.93 6.73-1.89-5.54z" class="ae"/><path d="M456.71 193.37h-3.51l5.33-41.23 6.6 14.97-8.42 26.26z" class="ap"/><path d="m456.71 193.37 4.72-24.56.7 16.92.05 7.64h-5.47z" class="bg"/><path d="m454.2 135.2 7.98 58.17 3.16-14.35-.29-4.21 1.11.5 2.07-9.42-5.05-38.93-8.98 8.24z" class="ae"/><path d="m465.34 179.02-8.63-51.3 3.59.96 5.86 46.63-.82 3.71z" class="bg"/><path d="m389.48 67.74 19.83 1.45 14.1-17.11 25.07-13.54 52.48 1.98-7.19 12.73 12.03 6.55 43.86 17.14-29.51 32.57-42 13.62-27.11-2.18-31.74-8.18-29.82-45.03z" class="bq"/><path d="M423.41 52.08 408.32 92.7l-18.84-24.96 33.93-15.66z" class="bn"/><path d="m389.48 67.74 43.8 36.29 25.25-8.92 14.69 10.6 24.54-6.46 33.36-4.1-2.07 25.93-50 12.06-24.85 2.06-26.5-18.1-21.99.11-16.23-49.47zM500.96 40.52l-35.03 27.22 16.23 2.41L505.8 59.8l-4.84-19.28z" class="aj"/><path d="m423.41 52.08 42.52 15.66-7.4 27.37-35.12-43.03z" class="aj"/><path d="m433.28 104.03-27.57 13.18 48.49 17.99-20.92-31.17zM458.53 95.11l20.52 38.03 18.71-33.89-39.23-4.14zM529.05 121.08l-31.29-21.83 51.9-22.31-20.61 44.14z" class="ab"/><path d="m505.8 59.8-47.27 35.31 7.4-27.37 39.87-7.94zM500.96 40.52l-77.55 11.56 25.06-27.55 52.49 15.99z" class="bn"/><path d="m426.33 144.8 3.63-6.11 14.71-3.49 8.53 8.69-13.43 4.31-13.44-3.4z" class="bq"/><path d="m426.33 144.8 26.87-.91-14.1 7.21-12.77-6.3z" class="aj"/><path d="m170.2 155.73-1.2 12.25 6.17-.03-.91-19.34-4.06 7.12z" class="be"/><path d="m119.03 143.2 16.25 3.98 3.68-2.23 2.17 3.66 7.24 1.77 3.31-1.15 2.16 2.49 16.36 4.01 12.03-56.38-17.92-6.77-45.28 50.62z" class="bq"/><path d="m170.2 155.73 19.6-4.73 2.03-5.1 5.3 3.33 14.59-3.52-24.46-51.37-10.65 5.89-6.41 55.5z" class="aj"/><path d="m160.87 96.43 14.29 16.31 13.72-15.01-28.01-1.3z" class="bi"/><path d="m146.52 90.79 9.03 3.55 3.36-3.01 1.96 5.1 15.41 6.05.69-38.96-7.54-.49-22.91 27.76z" class="bq"/><path d="m176.28 102.48 12.6-4.75.93-4.33 3.5 2.66 9.85-3.71-23.84-29.32-5.06 3.27 2.02 36.18z" class="aj"/><path d="m168.04 64.72 6.69 10.07 5.87-10.18-8.18-1.58-4.38 1.69z" class="bi"/><path d="m161.4 63.03 12.86 3.27 4.82-11.89-2.99-22.12-14.69 30.74z" class="bq"/><path d="m174.26 66.3 12.24-3.27-10.41-30.74-1.83 34.01zM155.55 94.34l9.54-16-4.22 18.09-5.32-2.09zM153.84 151.72l6.48-30.07-11.95 28.73 5.47 1.34zM141.13 148.61l7.24-18.33-13.09 16.9 5.85 1.43z" class="aj"/><path d="m197.13 149.23-11.33-27.58 4 29.35 7.33-1.77zM188.88 97.73l-5.02-12.5 9.45 10.83-4.43 1.67zM246.36 148l.92 11.89H244l-.19-8.89 1.54-6.94 1.01 3.94z" class="be"/><path d="m224.85 147.02 17.13-27.37 5.85-.54 2.97 13.69-6.99 18.2-5.94-1.25-1.66-3.37-4.07 2.17-7.29-1.53z" class="bq"/><path d="m247.28 122.11 4.53-3.42 17.71 28.09-8.15 1.34-2.51-1.14-.47 1.63-2.93.48-1.97-1.85-1.93 2.49-7.75 1.27 3.47-28.89z" class="aj"/><path d="M251.56 149.73v-17.72l3.9 17.08-3.9.64zM258.39 148.61l-2.93-12.79 5.91 12.3-2.98.49z" class="be"/><path d="m237.87 149.75 3.08-17.42-8.81 16.22 5.73 1.2z" class="aj"/><path d="m253.35 121.13-6.64 5.72-5.98-5.2 7.46-3.28 5.16 2.76z" class="bi"/><path d="m247.28 122.11-6.54-.53-.66-1.56-1.66 1.37-5.64-.46 13.96-19.75 1.45 2.42 3.37 9-4.28 9.51z" class="bq"/><path d="m247.28 122.11 6.07-.98.44-2.44 2.32 2 4.19-.67-10.22-18.71-1.89 2.29-.91 18.51z" class="aj"/><path d="m253.35 121.13-2.47-10.44 5.23 10-2.76.44z" class="be"/><path d="m240.73 121.65 1.1-6.56-3.41 6.3 2.31.26z" class="aj"/><path d="m251 102.99-3.02 4.95-2.35-5.19 3.13-1.01 2.24 1.25z" class="bi"/><path d="m248.19 103.6-2.56-.85-.45-2.33-1.37 1.72-2.86-.96 6.33-21.67.91 24.09z" class="bq"/><path d="m248.19 103.6 2.81-.61.56-1.3.76 1.01 2.16-.48-7.2-22.71.91 24.09z" class="aj"/><path d="m251 102.99-1.13-7.49 2.45 7.2-1.32.29z" class="be"/><path d="m245.63 102.75.91-8.88-2.73 8.27 1.82.61z" class="aj"/></g><g id="e"><path d="m222.57 98.61-108.29 17.6-2.67 1.81 113.82-19.13-2.86-.28z" class="ap"/><path d="m219.05 93.85-19.03 14.56-1.24.48 19.13-15.42 1.14.38zM203.25 96.7l-15.03 13.71-1.72.28 15.04-14.18 1.71.19zM191.64 98.7l-17.03 14.47-1.62.09 18.84-16.17-.19 1.61zM178.23 99.94l-13.52 14.65-1.33.2 13.23-14.56 1.62-.29zM166.14 101.75 153.2 116.5l-1.52.19 13.22-15.04 1.24.1zM155.39 104.22l-12.95 13.52-.76-.48 12.18-13.32 1.53.28zM207.73 162.46l-107.92 17.7 1.91-1.9 106.77-17.7-.76 1.9zM207.54 154.47 99.43 172.93l1.52-1.33 107.54-19.04-.95 1.91zM208.49 146.09 98.1 165.89l2.85-1.91 110.01-19.79-2.47 1.9zM99.62 156.94l110.39-19.98 1.14-1.14-109.82 19.6-1.71 1.52zM210.2 130.19 101.52 148l-1.52-1.14 111.53-18.15-1.33 1.48zM211.15 120.4l-108.48 19.22-1.53-.72 110.77-19.79-.76 1.29z" class="ap"/><path d="m203.16 111.07-3.81 59.39-1.14 1.33 3.24-60.34 1.71-.38zM195.16 112.79l-2.85 59-1.33 1.71 3.42-62.62.76 1.91zM187.55 114.31l-2.66 59-1.53.95 2.86-61.66 1.33 1.71zM179.75 116.02l-2.86 57.86-1.14 1.71 3.24-61.28.76 1.71zM172.52 116.59l-3.05 59.19-.95 1.53 3.23-62.81.77 2.09zM165.09 117.16l-2.85 60.53-1.33.76 2.66-61.86 1.52.57zM156.53 119.64l-2.67 59.19-1.33 1.52 3.05-62.23.95 1.52zM148.34 120.78l-2.47 59.57-1.33.95 2.66-62.61 1.14 2.09z" class="ap"/><path d="m229.61 95.85 3.62 82.41-1.33-.76-3.81-82.6 1.52.95zM224.28 100.42l1.53 75.17-1.34 1.34-1.52-74.61 1.33-1.9zM219.91 104.41l-1.53 69.66h-1.71l2.09-68.13 1.15-1.53z" class="ae"/><path d="m214.83 110.9 23.73.55-.57 1.53-24.74-.76 1.58-1.32zM211.91 118.12l27.41 2.66-1.52 1.14-24.74-2.09-1.15-1.71zM211.53 125.73l27.6 2.85-.95 1.72-24.93-2.67-1.72-1.9zM238.75 138.1l-26.27-3.43-1.33 1.15 28.17 3.8-.57-1.52zM239.32 148.38l-28.36-4.19.76 1.52 28.36 4.57-.76-1.9zM210.39 153.52l28.74 4.37.76 1.53-29.12-4.38-.38-1.52zM209.63 161.89l31.02 5.9 1.33 1.52-31.02-5.71-1.33-1.71zM237.8 104.03l-14.85-1.71 1.33-1.9 14.66 1.9-1.14 1.71z" class="ae"/><path d="m100.64 191.39 104.32-17.88 3.27-5.53-110.89 19.06 3.3 4.35z" class="al"/><path d="m214.83 110.9-3.55 63.88-6.32-1.27 4.44-63.2 5.43.59z" class="ah"/><path d="m211.28 105-104.81 17.11-3.04 7.68 111.4-18.89v-3.49l-3.55-2.41z" class="al"/><path d="m234.33 93.18-19.5 17.72-3.55-5.9 19.31-13.67 3.74 1.85zM239.95 183.06l-34.99-9.55 6.54-2.73 31.44 7.34-2.99 4.94z" class="ac"/><path d="m234.33 93.18 5.62 89.88 6.09-.47-5.09-95.91-6.62 2.19v4.31z" class="ah"/><path d="m130.26 108.79-5.52 86.22-1.71 1.33 5.14-87.36 2.09-.19zM121.89 113.17l-6.09 79.93-1.52 1.34 6.09-81.46 1.52.19zM114.28 116.21l-6.66 76.32-1.72.76 6.85-76.89 1.53-.19z" class="ae"/><path d="m103.43 129.79 33.3 3.36-.38 1.52-32.54-2.85-.38-2.03zM106.47 122.11l30.46 1.14-1.34 1.53-30.64-.95 1.52-1.72zM102.67 139.62l32.73 2.86-.57 1.71-31.78-2.47-.38-2.1zM101.52 148l33.5 4.18-1.14 1.34-31.59-3.24-.77-2.28zM99.62 156.94l35.4 4.57-1.9 1.33-31.98-4.38-1.52-1.52zM99.62 165.32l34.07 4.37-.76 1.53-32.17-3.81-1.14-2.09zM97.91 175.97l36.16 4.38-1.71 1.33-32.55-3.61-1.9-2.1z" class="ae"/><path d="m100.64 117.74-9.14 75.55 9.14-1.9 5.83-69.28v-4.37h-5.83z" class="ah"/><path d="m135.66 99.69-35.02 18.05 5.83 4.37 32.49-14.7-3.3-7.72zM91.5 193.29l38.57 7.06 3.86-6.24-32.87-7.71-9.56 6.89z" class="ac"/><path d="m135.66 99.69-5.59 100.66 8.22-1.04 3.48-91.9 2.77-5.79-8.88-1.93z" class="ah"/><path d="m135.66 99.69 105.29-13.01-6.62 6.5-92.56 14.23-6.11-7.72z" class="al"/></g><g id="f"><path d="m631.47 266.64-5.94-1.45-2.14-22.5 12.12-1.89v12.58l-4.04 13.26z" class="bk"/><path d="m640.24 240.12-2.63 25.07-3.58.84-2.45-24.62 3.93-.61 4.73-.68zM594.65 278.23l5.28-2.06 4.08-25.55-6.61 5.6-6.63 8.81 3.88 13.2z" class="bp"/><path d="m597.4 256.22-2.75 22.01-8.28-.57-2.24-26.17 13.27 4.73z" class="bk"/><path d="m475.13 254.12 4.99-1.55 2.85-18.23-9.45 4.36-.82 10.41 2.43 5.01z" class="bp"/><path d="m465.93 233.41 1.92 19.69 7.28 1.02 2.24-21.7-11.44.99z" class="bk"/><path d="m437.72 261.21 5.62-1.9 3.72-22.13-10.14.08-2.3 10.57 3.1 13.38z" class="bp"/><path d="m427.82 238.02 3.74 22.37 6.16.82 1.07-23.19h-10.97z" class="bk"/><path d="m416.97 230.61 1.95 10.56 178.48 15.05 5.69-14.02-145.91-14.1-40.21 2.51z" class="bl"/><path d="m597.4 256.22 13.68-4.69.99-2.89 1.66 1.98 14.16-4.87 1.25-2.85 2.77 1.47 16.52-5.67 2.13-12.09-55.91 19.94 2.75 9.67z" class="w"/><path d="m416.97 230.61 15.76-4.94 5.85-.86-.86-.7 13.42-4.2 4.52-.27-.11-1.11 12.68-3.97 182.33 12.05-55.91 19.94-177.68-15.94z" class="aw"/><path d="m437.72 224.11 174.41 16.2-.94 3.49-2.79-2.16-175.67-15.97 4.99-1.56zM451.14 219.91l175 15.41 2.68 1.94 2.35-3.74-175.62-14.99-4.41 1.38z" class="bl"/><path d="m608.4 241.64 2.66 9.85 2.67-.87-1.6-10.31-3.73 1.33zM626.14 235.32l1.75 10.43 4.02-1.38-.74-10.85-5.03 1.8z" class="bc"/></g><g id="g"><path d="m759.5 259.88 1.84 9.58 7.58.83 1.08-14.88-6.93-1.56-3.57 6.03z" class="o"/><path d="m726.64 282.23 5.75-1.27 6.34-30.8-10.21 6.85-3.74 7.73 1.86 17.49zM773.54 286.54l6.19-2.04 7.08-34.06L777 261.5l-4.35 6.99.89 18.05z" class="an"/><path d="m717.35 251.76 1.45 30.01 7.84.46 1.88-25.22-.34-5.28-10.83.03zM766.09 258.65l.66 27.13 6.79.76L777 261.5l-4.49-5.41-6.42 2.56zM810.02 272.86l-5.37-.97-5.6-27.03 13.71-3.39v15.54l-2.74 15.85z" class="z"/><path d="m818.96 239.38-3.25 31.93-5.69 1.55-1.83-33.48h10.77z" class="an"/><path d="m710.16 239.38 1.04 16.03 13.58 1.26 2.34-2.59 1.4 2.93 14.83 1.37 2.59-2.29.3 2.56 13.26 1.23 2.57-2.87.88 3.19 14.05 1.3 14.29-18.81-81.13-3.31z" class="bl"/><path d="m825.89 223.09-1.55 18.38L777 261.5l1.11-11.34 7.96-14.66 39.82-12.41z" class="w"/><path d="m710.16 239.38 54.23-20.95 10.73.82.33.8 2.56-.59 11.39.87.54 1.05 3.2-.77 10.18.77.56.92 2.65-.67 19.36 1.46-47.78 27.07-67.95-10.78z" class="aw"/><path d="m806.53 221.63-41.9 26.39-2.12 2.14-1.17-2.66 41.98-26.12 3.21.25zM793.14 220.61l-44.6 24.86-2.28 2.42-1.56-3.03 44.7-24.53 3.74.28zM778.01 219.46l-46.44 23.32-2.46 1.9-.59-2.39 46.6-23.04 2.89.21z" class="bl"/><path d="m764.63 248.02-1.68 12.18-3.45-.32 1.84-12.38 3.29.52zM748.54 245.47l-2.3 13.18-2.89-.27 1.35-13.52 3.84.61zM731.57 242.78l-3.05 14.23-3.74-.34 3.74-14.38 3.05.49z" class="w"/></g><g id="h"><path d="m506.47 254.12-.23 3.25-3.96 1.96-5.89-4.45-3.27-11.08 15.67 3.59-2.32 6.73zM527.3 251.49l-.82 8.35-3.42 2.55-6.38-3.51-2.92-12.5 13.54 5.11z" class="n"/><path d="m497.41 228.74-4.26-12.53 13.32-1.65 22.58 5.84-5.64 10.88-15.87 5.98-10.13-8.52z" class="q"/><path d="m493.15 216.21-5.05 23.45 21.42 9.92 2.01-11.21-3.99-1.11-14.39-21.05z" class="ab"/><path d="m486.48 246.87 20.31 2.24 3.05-3.38-21.74-6.07-1.62 7.21z" class="bg"/><path d="m489.27 185.73-6.3 8.99 10.55 4.08 4.24-4.67-.35-6.77-8.14-1.63z" class="x"/><path d="m497.41 173.36-8.14 12.37 9.28 5.6 2.1-8.17-3.24-9.8z" class="bl"/><path d="m508.3 171.48-6.42 9.91 8.93 3.58 12.6-1.75 1.4-11.38-16.51-.36z" class="n"/><path d="m474.16 115.11 7.35 23.02 2.33-21.85-6.18-5.37-3.5 4.2z" class="at"/><path d="m479.53 114.88-1.17 44.59 24.98 3.26 8.78 9.72 9.89-6.56 15.18-27.2-14.48-24.75-25.91-5.6-17.27 6.54z" class="n"/><path d="m508.3 171.48 6.27-7.17 8.14-50.37 14.48 24.75-4.44 11.89-2.86 2.97.27 3.96-5.35 14.33-13.54 4.9-2.97-5.26z" class="x"/><path d="m503.34 162.73 18.67 2.45-13.71 6.3-4.96-8.75zM532.75 150.58l-8.11-.98 5.52 7.91 2.59-6.93zM528.7 146.1l1.03-5.2 3.02.9-4.05 4.3z" class="ao"/><path d="m482.97 130.87 14.44 11.12 10.89-8.32-4.58-2.01-5.96.7-2.8 1.92-1.84-2.62-4.64-2.37-5.51 1.58z" class="x"/><path d="m493.12 131.66 4.64.7-.35 9.63-4.55.96-3.59-2.1 3.85-9.19z" style="fill:#ba9e8e;stroke-width:0"/><path d="m489.27 140.85 3.94 4.2 4.2-3.06-8.14-1.14zM485.51 146.98l7.61 2.27 10.95-.7-1.05 2.89-10.07.7-6.74-2.36-.7-2.8z" class="ao"/><path d="m497.76 132.36 2.54-2.54 7.44 2.01.56 1.84-10.54-1.31zM493.12 131.66l-1.48-2.98-7.1.44-1.57 1.75 10.15.79z" class="ai"/><circle cx="503.72" cy="138.13" r="1.84" class="bo"/><circle cx="486.73" cy="136.03" r="1.84" class="bo"/><path d="m474.16 115.11 22.41 10.86 12.6-6.02 11.75 5.11 5.88 9.13 10.39 4.5 6.18-10.86-12.14-15.99-12.84-14.81-7.25-3.53-29.05 4.57-1.05 7.41-9.33 1.69 2.45 7.94z" class="ai"/><path d="m520.92 125.06 2.49-6.57-4.31-4.55-23.47 2.1.94 9.93 24.35-.91z" class="at"/><path d="m471.71 107.17 23.92 8.87 6.25-11.79-19.79-6.18-10.38 9.1z" class="o"/><path d="m501.88 104.25 16.51-7.22 17.28 8.39-4.95 10.1-11.62-1.58-17.22-9.69z" class="at"/><path d="m519.1 113.94 16.57-8.52 7.7 22.41-22.45-2.77-1.82-11.12zM537.19 138.69l-16.27-13.63 3.72 20.28 3.33-8.04 9.22 1.39z" class="ar"/><path d="m503.72 172.27-6.31 1.09-3.89 25.44 16 7.94 20.8-5.02 3.95-25.91-5.84-2.45-6.42 9.32-17.27-2.38-1.02-8.03z" class="bh"/><path d="m508.3 171.48-4.58.79-1.84 9.12 21.53 3.58 5.02-11.61-3.62-1.52-4.81 9.35-13.53-2.23 1.83-7.48z" class="bl"/><path d="m493.52 198.8-.37 17.41 35.9 4.19 1.27-18.68-36.8-2.92z" class="bd"/><path d="m536.12 197.05-6.39 13.42-7.72-6.75.73-6.67 3.59-6.42 6.42 1.63 3.37 4.79z" class="x"/><path d="m534.27 175.81 4.66 14.42-2.81 6.82-9.79-6.42 7.94-14.82z" class="bl"/><path d="m522.74 197.05-17.18-2.92 4.18 8.17 19.99 8.17-6.99-13.42z" class="n"/><path d="m513.89 195.55-4.15 6.75-6.71-2.74 4.51-4.01h6.35z" class="x"/><path d="m482.97 194.72 10.38 12.02 20.54-11.19 5.37.24 1.07-1.25-6.98-7.29-2.41 2.53-1.76-1.51-26.21 6.45z" class="n"/><path d="m513.89 195.55-.54-8.3-4.17 1.02 4.71 7.28z" class="ax"/><path d="m513.89 195.55 6.44-1.01 2.41 2.51-8.85-1.5z" class="x"/><path d="m528.14 226.58-.82 24.64-20.53-2.11.75-11.85 15.87-12.45 4.73 1.77z" class="aj"/><path d="m506.47 254.12 20.83-2.63 1.4-5.11-21.91 2.73-.32 5.01z" class="bg"/><path d="m523.41 224.81 3.89 26.68 5.6-.71-3.85-30.38-5.64 4.41z" class="bh"/><path d="m518.32 265.92-3.36 6.37 6.35 8.35 7.39-2.21-2.97-10.88-3.75-4.02-3.66 2.39z" class="o"/><path d="m514.96 272.29 13.74 6.14-10.38 1.52-6.6-1.52 3.24-6.14z" class="bl"/><path d="M511.72 278.43h16.97v4.41h-16.97z" class="bm"/><path d="m521.05 266.52-.51 3.89 1.53.64 1.34-5.13-2.36.6z" class="bl"/><path d="m518.32 265.92 7.41 1.63.75-7.71-9.8-.96 1.64 7.04z" class="bh"/><path d="M505.8 263.78v8.51l-13.61 2.92-3.06-7.66 3.99-2.72 7.84-3.96 4.84 2.91z" class="o"/><path d="m501.64 261.69-5.8 4.23-2.72-1.09 5.17-3.52 3.35.38zM489.13 267.55l4.86 4.74-4.86 2.42-6.95-2.42 6.95-4.74z" class="bl"/><path d="M482.18 272.29h23.61v4.41h-23.61z" class="bm"/><path d="m505.8 263.78-7.51-2.47-1.9-6.43 9.85 2.49-.44 6.41z" class="bh"/></g><g id="i"><path d="m592.66 257.87-.47 7.32-3.99 3.73-5.72-5.71-3.04-11.99 13.22 6.65zM574.07 254.12l-2.03 7.65-4.92 2.78-4.92-5.22-2.59-16.41 14.46 11.2z" class="aa"/><path d="m604.42 210.47-10.95 8.06-4.24-5.6 13.21-15.88 1.98 13.42z" class="af"/><path d="m607.92 191.4 4.79 13.12-8.29 5.95-7.94-15.93-3.01-5.02 14.45 1.88z" class="aa"/><path d="m549.66 196.71 16.01 17.03 5.72-8.52-9-13.82-12.73 5.31z" class="af"/><path d="m555.95 187.36-6.29 9.35 12.16-2.17-2.54-5.43-.85-2.68-2.48.93z" class="aa"/><path d="m559.28 189.11-3.33-1.75 10.49-15.88-1.79 11.2-5.37 6.43zM602.44 175.81l5.48 15.59-11.44 3.14-3.01-9.37 8.97-9.36z" class="bl"/><path d="m557.61 214.56 15.18 25.1 10.34-7.94 10.34-13.19-14.26-4.79-21.6.82z" class="q"/><path d="m557.61 214.56-3.73 22.13 20.19 17.43 2.98-10.32-4.26-9.04-15.18-20.2z" class="ab"/><path d="m573.66 247.83-19.78-11.14-1.63 9.69 21.82 7.74.84-2.9-1.25-3.39z" class="bn"/><path d="m577.38 168.81-7.31 9.42 8.67 4.11 10.49-3.06 1.94-9.72-8.23-2.01-5.56 1.26z" class="aa"/><path d="m554.4 101.45-10.72 49.07 23.68 5.84 14.77 11.39 5.77-2.27 4.15-11.5 8.75-24.16-15.4-28.37h-31z" class="aa"/><path d="m577.38 168.81 1.71-9.58 13.09-45.29 8.62 15.88-5.07 30.99-4.56 8.75-10.85 2.89-2.94-3.64zM554.75 118.61l11.69 15.45 13.26-8.09-4.15-3.73-4.1-.36-2.51.58-2.19 1.49-1.36-2.58-1.59-2.06-2.92-1.31-6.13.61z" class="af"/><path d="m568.94 122.46-2.5 11.6h-2.65l-2.64-1.62 4.24-11.07 3.55 1.09z" class="ba"/><path d="m561.15 132.44 2.05 3.24 3.24-1.62-5.29-1.62zM567.36 156.36l19.09 4.62-9.07 7.83-10.02-12.45z" class="y"/><circle cx="572.96" cy="129.7" r="1.58" class="bo"/><circle cx="558.49" cy="125.73" r="1.58" class="bo"/><path d="m571.45 121.88 1.34-1.58 6.48 3.51.43 2.16-8.25-4.09zM563.8 119.31l-.41-2.1-7.41.06-1.23 1.34 9.05.7z" class="bp"/><path d="m554.71 139.18 6.83 6.04 8.53-1.92-7.79-1.71-7.57-2.41z" style="fill:#309b6e;stroke-width:0"/><path d="m554.71 139.18 4.9.44 2.72-.52 2.58 1.88 5.16 2.32-8.66-.96-6.7-3.16z" style="fill:#1e6245;stroke-width:0"/><path d="m554.4 101.45 34.83 22.71 12.27-5.43 2.92-22.62-28.84-2.8-1.04 2.8-8.87-3.76-11.27 9.1z" class="bp"/><path d="m589.23 124.16 6.5 36.65 7.71-1.44 2.03-5.51 7.94 3.65 4.4-8.8.5-11.41-13.89-41.19-15.19 28.05z" style="fill:#5f5044;stroke-width:0"/><path d="m565.67 92.35 27.8 23.97 3.95-.28.38-7.7-22.22-15.03-9.91-.96z" class="bk"/><path d="m593.47 116.32 9.97 43.05 9.97-1.86-15.61-49.17-4.33 7.98zM604.42 96.11l13.42 52.62 4.64-9.36-18.06-43.26z" class="bp"/><path d="m574.31 169.56-7.87 1.92-7.16 17.63 13.51 6.68 23.69-1.25 5.96-18.73-8.97-4.97-7.55 8.31-11.35-2.5-.26-7.09z" class="u"/><path d="m591.17 169.56 2.3 1.28-6.7 10.98-13.98-3.02 1.52-9.24 3.07-.75-1.26 7.19 9.49 2.1 5.56-8.54z" class="bl"/><path d="m559.28 189.11-1.67 25.45 35.86 3.97 3.01-23.99-37.2-5.43z" class="bd"/><path d="m583.99 187.86-11.03-2.19-1.57 5.21 1.4 2.49 2.79-1.88 6.93 1.01 1.48-4.64z" class="bl"/><path d="m571.39 190.88-1.04 8.86 5.94.81-.32 3.04-5.9-1.05-.49 4.32 9.86 1.4 1.42-10.48-6.03-1.14.75-5.15-4.19-.61z" class="w"/><path d="m592.66 225.91.81 28.97-19.81-7.05-.87-13.07 14.88-11.68 4.99 2.83z" class="aj"/><path d="m574.07 254.12 18.59 3.75.81-6.3-19.81-3.74.41 6.29z" class="bg"/><path d="m587.67 223.08 4.99 34.79 4.99 1.01-4.18-40.35-5.8 4.55z" class="bh"/><path d="M569.58 271.05v7.38l-15.22 2.81.68-7.85 2.57-1.62 9.51-4.22 2.46 3.5z" class="o"/><path d="m565.67 269.09-5.15 4.3-2.91-1.62 5.97-3.73 2.09-.49v1.54zM555.04 273.39l2.57 5.04-6.18 2.21-4.44-2.21 8.05-5.04z" class="bl"/><path d="M546.99 278.43h22.59v4.41h-22.59z" class="bm"/><path d="m563.58 268.04 6 3.01 2.46-9.28-9.84-2.44 1.38 8.71z" class="bh"/><path d="m584.78 272.3-4.14 6.13 4.23 7.48 9.72-2.15-2.98-9.64-2.75-5.2-4.08 3.38z" class="o"/><path d="m577.03 283.76 3.61-5.33 13.95 5.33-11.03 2.15-6.53-2.15zM586.8 272.84l-1.17 4.31 2.68.82.55-4.58-1.19-1.84-.87 1.29z" class="bl"/><path d="M577.05 283.76h17.54v4.41h-17.54z" class="bm"/><path d="m584.78 272.3 6.83 1.82.58-8.93-9.71-1.98 2.3 9.09z" class="bh"/></g><g id="j"><path d="m644.74 261.46-1.35 11.99-16.45-2.81v-12.08l17.8 2.9z" style="fill:#c0db8e;stroke-width:0"/><path d="m644.74 263.6 1.72.36 1.83 2.67 2.27 6.49-5.14 1.55-4.71-4.03 2.39-5.45 1.64-1.59zM630.91 268.31l1.13 12.7-8.44.14-3.76-3.26-3.8-7.95 1.34-2.23 1-2.9 3.89-3.35 4.67-2.9 3.97 9.75z" class="aw"/><path d="M640.71 270.64v11.89l-11.91-4.9 2.11-9.32 9.8 2.33z" class="bl"/><path d="m623.6 281.15 1.24-1.73 3.96-1.79 9.65 1.79 1.09 4.66-4.6 4.05-5.19-1.29-4.33-3-1.82-2.69z" class="bc"/><path d="m634.94 288.13-.18-1.29 3.69-7.42 4.94.68 2.03 3.06-3.69 2.62-3.75 1.66-3.04.69z" class="r"/><path d="m650.56 273.45-.6 3.25-2.05 3.47-2.09 2.68h-2.1l-5.27-3.43 2.26-8.78 6.82 1.13 3.03 1.68z" class="w"/><path d="m648.29 266.63-.76 5.14 1.49 1.21 3.36-.41-4.09-5.94z" class="z"/><path d="m629.14 263.96 3.74.85 1.15 4.24-2.45.74-.67-1.48-1.77-1.3v-3.05z" class="s"/><path d="m629.14 263.96-2.9 4.11 4.01 3.14 1.33-1.42-.67-1.48-1.77-4.35z" class="z"/><path d="m634.03 269.05-3.12-.74-.66 2.9 3.78-2.16z" class="o"/><path d="m618.38 264.81 1.9 4-4.24 1.13-1.06-2.21 3.4-2.92zM646.46 263.96l-3.36 1.23-.46-1.9 2.1-1.83 1.72 2.5z" class="z"/><path d="m643.1 265.19-2.39-3.73 2.39-2.08 1.64 2.08-1.64 3.73z" class="s"/><path d="m647.53 271.77 2.43 4.93 2.42-4.13-4.85-.8z" class="an"/><path d="m635.37 278.85 3.95-2.79-.17 2.79-.7.57-3.05.85-.03-1.42z" class="o"/><path d="m639.32 276.06-.87 3.36 1.09 1.59 1.61.17-1.83-5.12zM635.37 278.85l.59 5.57 2.07-1.26.42-3.74-3.08-.57z" class="an"/><path d="m635.96 284.42 5.19-3.24-2.7-1.76-2.49 5z" class="av"/><path d="m625.42 283.84-.58-4.42h-2.57l-.94 1.59 4.09 2.83z" class="an"/><path d="m624.84 279.42-5-1.53 1.49 3.12 3.51-1.59zM629.75 273.45l-4.05 1.22.54 4.12 1.65.11.91-1.27.67-1.57.28-2.61z" class="z"/><path d="m629.75 273.45 2.29 4.78-2.57.27-.67-.87.95-4.18z" class="o"/><path d="m632.04 278.23-3.24 2.04-2.56-1.48 2.56-1.16 3.24.6z" class="an"/><path d="m637.98 269.99 4.03-2.31v1.61l-1.3 1.35-1.72.27-1.01-.92z" class="s"/><path d="m642.01 267.68 2.03 3.51-2.03.19-1.3-.74 1.3-2.96z" class="z"/><path d="m637.98 269.99 2.01 3.46.76-.84-.04-1.97-2.73-.65z" class="o"/><path d="m644.04 271.19-4.05 2.26.72-2.81 3.33.55zM647.91 280.17l-4.19 2.68v.99l1.89.24 2.3-3.91z" class="an"/><path d="m643.72 282.85-1.99 2.93 3.88-1.7-1.89-1.23z" class="av"/><path d="M629.75 286.84h5.01l.49 1.01-1.78 1.57-3.72-2.58z" class="an"/><path d="m634.76 286.84 3.22.6-4.51 1.98 1.29-2.58z" class="av"/><path d="m638.05 231.07.4 7.14 4.94 6.88 4.93-1.55 4.06-6.63-7.43-7.23-6.9 1.39z" class="aa"/><path d="m644.74 249.39-3.01-4.3-9.32 4.64-2.28 1.64.54 8.01 14.07-2.33v-7.66z" class="o"/><path d="m641.73 245.09-7.09 6.4-2.23-1.76 6.43-4.64h2.89zM630.13 251.37l3.37 7.19-11.23-1.51 7.86-5.68z" class="bl"/><path d="M622.27 257.05h22.47v4.41h-22.47z" class="bm"/><path d="m638.45 238.21 9.87 5.33-3.58 5.85-5.9-4.3-.39-6.88z" class="bh"/><path d="m694.99 259.38-1.71 9.55-4.15 4.9-6.17-4.54-2.75-13.88 14.78 3.97z" class="aa"/><path d="m684.2 275.59-4.88 8.49 5.99 7.54 9.07-2.2-2.66-11.79-4.12-4.18-3.4 2.14z" class="o"/><path d="m686.67 275.59-1.44 7.57 3.19.45 1.29-8.02h-3.04zM679.32 284.08l15.06 5.34-9.07 2.2-9.06-2.2 3.07-5.34z" class="bl"/><path d="M676.25 289.42h18.13v4.41h-18.13z" class="bm"/><path d="m682.96 269.29 10.32-.36-1.56 8.7-7.52-2.04-1.24-6.3z" class="bh"/><path d="m659.42 196.12-5.75 12.78 10.04 4.2 4.37-18.09-8.66 1.11z" class="af"/><path d="m659.42 196.12 3.57 2.24 4.89-6.57-.79-12.72-7.67 17.05z" class="bl"/><path d="m653.67 208.9-4.25 6.88-1.51 5.94 7.91-.65 8.7-8.69-10.85-3.48z" class="aa"/><path d="m709.34 205.76-2.65 4.12-2.6 8.59 5.98-.55 14.22-10.2-10.1-3.61-4.85 1.65z" class="af"/><path d="m701.82 200 7.52 5.76 14.95 1.96-9.17-13.89-14.3-4.54 1 10.71z" class="aa"/><path d="m705.96 179.93 9.16 13.9-13.3 6.17-3.56-6.95 7.7-13.12z" class="bl"/><path d="m697.56 225.35-1.63 31.23-19.34 1.14-3.9-14.82-15.64 2.93-5.64-.74-3.5-21.14 10.69-1.36 20.72-2.25 18.24 5.01z" class="aj"/><path d="m676.59 257.72 22.01-3.99-4.2 8.94-15.57 3.36-2.24-8.31zM649.6 247.18l7.45-1.35-9.14-21.88-6.18.79 7.87 22.44z" class="bg"/><path d="m701.09 261.22-6.69 1.45-4.49-33.35 7.65-3.97 3.53 35.87z" class="bh"/><path d="m697.56 225.35-24.87 17.55-14.09-20.31 22.19-2.83 16.77 5.59z" class="q"/><path d="m677.95 176.22-7.15 5.36 1.31 7.07 21.13 4.4 1.75-15.5-17.04-1.33z" class="aa"/><path d="m657.77 120.9-6.36 41.4 21.63 4.52 8.85 10.94 13.27-8.05 17.22-25.48-9.46-25.61-29.99-5.85-15.16 8.13z" class="aa"/><path d="m677.95 176.22 9.77-5.84 10.54-48.06 4.66-3.7 9.46 25.61-4.87 9.33-2.93 1.7-.76 5.38-8.83 16.91-14.24 4.03-2.8-5.36z" class="af"/><path d="m673.04 166.82 20.97 4.12-16.06 5.28-4.91-9.4zM707.51 153.56l-5.87-1.71 2.18 8.79 3.69-7.08zM704.09 150.1l1.84-5.61 3.41 1.49-5.25 4.12z" class="y"/><path d="m660.86 133.14 11.25 11.67 12.41-7.58-2.2-4.61-5.31.76-3.5 1.86-1.58 1.17-1.1-1.87-1.99-2.8-3.5-1.4-4.48 2.8z" class="af"/><path d="m673.51 135.24-1.4 11.4-2.12.3-1.91-1.17 2.75-11.23 2.68.7z" class="ba"/><path d="m668.08 145.77 1.61 2.52 2.42-1.65-4.03-.87zM662.51 150.36l6.26 3.46 7.96-.75-1 1.84-7.31.92-5.78-3.41-.13-2.06z" class="y"/><circle cx="679.46" cy="141.72" r="1.69" class="bo"/><circle cx="664.52" cy="138.57" r="1.69" class="bo"/><path d="m660.86 133.14 4.83-2.22 3.15.82.58-1.11-4.9-1.69-3.38 2.28-.28 1.92zM677.01 133.38v-1.23l5.49-.18 2.97 3.56-.95 1.7-3.48-3.39-4.03-.46zM657.77 120.9l-7.92-11.1 40.63-2.88 18.06 5.42 1.74 9.42 8.71 7.18-4.55 10.52-10.35-1.88-5.25-8.64-.58-6.62-16.37-.56-8.38 5.2-15.74-6.06z" class="az"/><path d="m698.26 122.32-27.46-7.07 2.71 11.71 24.75-4.64zM698.26 122.32l10.28-9.98 10.45 16.6-20.73-6.62zM698.84 128.94l15.6 10.52-2.06 4.77-7.7-3.15-4.09 7.7-1.75-19.84z" class="at"/><path d="m649.85 109.8 20.95 5.45 19.68-8.33-6.06-1.82-34.57 4.7z" class="z"/><path d="m674.3 177.18.09 7.45 16.57 1.68 7.88-7.92 7.12 1.54-4.14 20.07-24.92 5.16-13.91-6.8 4.1-19.29 7.21-1.89z" class="bh"/><path d="m677.95 176.22-2.22 6.09 14.69 2.32 4.57-7.08 3.85.84-6.42 9.85-20.53-3.61 2.41-7.45 3.65-.96z" class="bl"/><path d="m662.99 198.36-4.39 24.23 38.96 2.76 4.26-25.35-38.83-1.64z" class="bd"/><path d="m674.39 196.99 6.4-5.82 6.19 1.37-1.86 6.75-2.23 1.79-1.69-1.95 1.32-4.53-5.41 4.36-2.72-1.97z" style="fill:#33a474;stroke-width:0"/><path d="m685.12 199.29-1.86 13.09-3.94-.78 1.88-12.47 3.92.16z" class="bq"/><path d="m704.09 213.92-8.93-2.06-.17 7.4 3.85 2.46 8.67-1.96-.82-3.98-2.6-1.86z" class="aa"/><path d="m698.84 221.72-1.28 3.63-7.65-3.48 5.25-10.01 3.68 9.86z" class="af"/><path d="m704.09 213.92 3.42 5.84 2.56-1.84-3.38-8.04-2.6 4.04z" class="aj"/><path d="m653.67 223.22-3.37 6.45-5.92 2.63.36-6.95 8.93-2.13z" class="af"/><path d="m644.38 232.3 5.56-8.88-5.56-.2-2.19 2.81 2.19 6.27z" class="y"/><path d="m653.67 223.22-2.26-3.7-3.97-.53-10.37 1.66 2.94 5.38 5.6.58 8.06-3.39z" class="aa"/><path d="m637.07 220.65.98 10.42 6.33 1.23 1.23-5.69-8.54-5.96z" class="af"/><path d="m647.44 218.99 6.23 4.23 3.42-3.42-7.67-4.02-1.98 3.21z" class="aj"/></g><g id="k"><path d="m189.7 279.97 5.51-1.66 5.43-25-9.63 2.62-4.64 15.34 3.33 8.7zM161.24 285.51l6.61-1.81 5.65-21.23-14.12 1.93v9.6l1.86 11.51z" class="an"/><path d="m272.07 284.28-6.49-.45-3.14-20.11 7.65 2.59 3.43 4.45-1.45 13.52z" class="z"/><path d="m279.07 260.59-1.17 21.54-5.83 2.15-1.98-17.97 2.99-7.14 5.99 1.42zM245.1 293.1l6.65-2.57 4.49-18.57-12.48 2.41-2.71 10.39 4.05 8.34z" class="an"/><path d="m247.03 275.72-1.93 17.38-7.68-.7-2.36-21.64 11.97 4.96zM149.82 262.31l3 22.4 8.42.8 2.63-24.18-14.05.98zM181.73 266.5l1.05 12.77 6.92.7 1.31-15.57-9.28 2.1z" class="z"/><path d="m137.31 249.89 1.98 13.8 107.74 12.03 12.19-21.65-69.29-8.62-52.62 4.44z" class="bl"/><path d="m247.03 275.72 9.21-3.76 1.89-1.84 1.8.34 10.16-4.15 1.32-.54 1.1-.45 14.09-5.75 1.72-16.14-34.84 9.99-4.53 9.05-1.92 13.25z" class="w"/><path d="m137.31 249.89 111.64 12.58 39.37-19.04-104.86-5.01-10.05 2.5.09.87-5.38.45-8.64 2.14-.1 1.07-6.4.55-15.67 3.89z" class="aw"/><path d="m152.98 246 106.86 11.2 1.11.95 1.49-2.22-102.96-11.55-6.5 1.62zM168.12 242.24l102.99 9.51.88 1.56 1.91-2.91-100.49-9.48-5.29 1.32z" class="bl"/><path d="m259.84 257.2-3.6 14.76 3.69-1.5 2.51-14.53-2.6 1.27zM271.11 251.75l-1.02 14.56 2.42-.99 1.39-14.92-2.79 1.35z" class="bc"/></g><g id="l"><path d="m367.76 249.23.51 3.62-7.63 6.12-9.56-.31-7.59-12.28 24.27 2.85zM309.05 255.07l.85 10.11 7.58 3.91 10.14-4.68 5.18-16.17-23.75 6.83z" class="aa"/><path d="m362.16 207.5-18.67 30.87-35.55-23.75 6.44-10.54 34.25-5.4 13.53 8.82z" class="q"/><path d="m362.16 207.5 4.68 34.86-32.8 12.71 9.45-25.63 18.67-21.94z" class="ab"/><path d="m366.84 242.36-31.79 5.47 4.48 6.29 28.23-4.89-.92-6.87z" class="ap"/><path d="m343.49 229.44-28.54-17.07-11.07 12.91 5.17 29.79 30.48-.95 3.96-24.68z" class="aj"/><path d="m338.68 259.38.85-5.26-34.85-7.81 4.37 8.76 29.63 4.31z" class="ap"/><path d="m314.95 212.37-2.57 13.98-3.33 28.72-8.83-1.29 3.66-28.5 11.07-12.91z" class="bd"/><path d="M365.13 144.19 378.75 159l-3.1 11.17-4.09 5.28h-7.9L359.01 164l6.12-19.81z" class="r"/><path d="M363.66 175.45 378.75 159l6.35 6.89-11.91 13.13-9.53-3.57z" class="bh"/><path d="m373.19 179.02 9.39-15.86 6.46-.29 3.7 4.94-3.23 13.58-16.32-2.37z" class="aa"/><path d="m385.35 158.47 5.6-12.72 4.93-1.86 5.23 2.65 2.48 9.82-9.62 6.3-5.7 2.54-2.92-6.73z" class="af"/><path d="m385.35 158.47 1.05-9.94 8.64-10.95 2.56 1.64-6.12 16.63-3.8 5.08-2.33-2.46z" class="aa"/><path d="m395.88 143.89 10.92-7.08 3.58 8.9-6.79 10.65-7.71-12.47z" class="aa"/><path d="m385.35 158.47 8.62 4.19-1.23 5.15-10.16-4.65 2.77-4.69z" class="ax"/><path d="m361.35 68.17-18.73-12.33-30.75 3.96-3.31 15.92-18.76 4.57 3.12 37.54 36.4 26.23 27.13-11.26 18.43-11.13-8.36-31-5.17-22.5z" class="ai"/><path d="m365.52 67.74-4.56 13.36-11.94 3.37-11.93-.18 5.53-28.45 22.9 11.9z" class="z"/><path d="M337.09 84.29 311.87 59.8 289.8 80.29l23.04.81 9.14 7.8 15.11-4.61z" class="at"/><path d="m306.07 108.93-13.15 8.9-5.99 10.05 10.27 17.78 30.15 1.32 25.85-1.25 11.93-1.54 9.75-22.52-17.25-10.71-51.56-2.03z" style="fill:#29303e;stroke-width:0"/><path d="m365.52 67.74 1 22.93-12.47 11.81-4.82-15.22 9.34-12.91 6.95-6.61z" class="at"/><path d="m297.2 145.66 12.65-4.59 29.9-2.85 5.65 1.33 1.09 4.51 4.4-3.22 14.24 3.35-1.47 31.26-23.19 16.73-36.05-13.91-7.22-32.61z" class="bc"/><path d="m321.98 151.88-9.6-11.05 27.37-2.61 5.65 1.33 2.69 3.81-5.37 15.64-20.74-7.12z" class="bh"/><path d="m304.42 178.27 59.24-2.82-1.5 32.05-50.12 5.17-7.62-34.4z" class="r"/><path d="m358.57 74.35 6.56 56.06-16.5 2.39-9.42 7.52-5.36 4.55-14.66-.93-10.14-35.01 3.79-27.83 24.25 3.19 21.48-9.94z" class="aa"/><path d="m312.84 81.1 11.08 56.32 24.71-4.62-6.15 12.86-3.45 7.44-21.23-7.18-11.73-36.99 6.77-27.83z" class="af"/><path d="m362.74 110.26-53.93 7.34 8.99 28.32 23.07 5.37-3.9-11.67 11.66-6.82 16.5-2.39-2.39-20.15z" style="opacity:.3;fill:#c3987b;stroke-width:0"/><path d="m348.63 132.8-31.82 4.97 25.67 7.89 6.15-12.86z" class="y"/><path d="m356.45 92.73-7.03 6.66-3.73 8.09-7.01 1.02-7.31-7.79-9.39-2.93 4.1-3.96 12.5 1.78 2.09.41 1.34-.86 9.47-4.48 4.97 2.06z" class="af"/><path d="m338.58 95.6.1 12.9 4.28 1.53 2.73-2.55-3.68-12.33-3.43.45z" class="ba"/><circle cx="350.72" cy="99.25" r="2.06" class="bo"/><circle cx="331.89" cy="102.16" r="2.06" class="bo"/><path d="m321.98 97.78 2.68-5.34 13.92 3.16-13.1-.21-3.5 2.39zM342.01 95.15l9.64-6.25 4.8 3.83-4.38-.85-10.06 3.27z" class="bm"/><path d="m345.69 107.48-2.82 4.05-4.19-3.03 3.82.71 3.19-1.73zM332.99 118.83l19.04-2.64-1.95 8.11-11.38 1.67-5.71-7.14z" class="y"/><path d="m336.68 119.87 13.08-1.9-.59 1.75-11.14 1.61-1.35-1.46z" style="fill:#fff;stroke-width:0"/><path d="m315.6 138.98 23.61 31.81 6.19-31.24 5.49 1.29-6.77 26.97-3.5 7.64-5.69-2.04-25.08-32.34 5.75-2.09z" class="bg"/><path d="m337.73 168.79 6.39-.98 4.51 8.35-9.58 5.43-1.32-12.8z" class="u"/><path d="m348.63 176.16-1.41 8.17-8.17 2.68-.7-5.42 1.75-3.33 8.53-2.1z" class="aw"/><path d="m337.73 168.79-2.8 4.62 1.4 3.34-2.29 6.64 5.01 3.62 1.05-8.75-2.37-9.47z" class="bl"/><path d="m309.63 180.28 4.2 1.09 6.74 5.69 1.84 7-3.26 4.62-5.32-2.56-5.02-7.16.82-8.68z" class="aq"/><path d="m307.03 188.96 1.78 18.13-10.51 10.62-14.36-14.37 2.66-14.38h20.43z" class="al"/><path d="m300.22 192.54-5.38 13.7-2.76 7.69 6.22 3.78 18.98-.98v-12.79l-3.45-7.82-7.21-5.96-6.4 2.38z" class="aq"/><path d="m309.85 178.01-1.04 12.74-8.59 1.79-13.62-3.58 8.59-7.78 14.66-3.17z" style="fill:#f9fafa;stroke-width:0"/><path d="m309.85 178.01-9.63 14.53 13.61 3.58-3.98-18.11z" style="fill:#dddfe2;stroke-width:0"/><path d="m323.81 194.95 2.63 5.08.91 11.06-10.07 5.64-2.33-4.36-1.12-16.25 4.55-1.8 5.43.63z" class="ac"/><path d="m327.35 211.09-11.1 11.32-8.12 2-7.31-2.03-2.52-4.67 16.65-5.34 12.4-1.28z" class="s"/><path d="m306.57 224.41-2.69.87-15.52-1.97 4.64-4.59 5.3-1.01 7.77 4.77.5 1.93zM294.62 191.07l8.37-2.72-1.97 7.46-6.4-4.74z" class="ac"/><path d="m302.99 188.35 3.02 5.71-3.91 1.67-1.88-3.19 2.77-4.19z" class="bj"/><path d="m294.62 191.07 5.6 1.47 1.14 4.01-4.16 4-2.58-9.48z" class="bj"/><path d="m306.01 194.06-2.1 5.54-6.71.95 3.02-8.01 5.79 1.52zM320.57 187.06l-2.19 7.26 4.21.63 3.15-3.52-5.17-4.37z" class="z"/><path d="m318.38 194.32 3.68 4.92 4.38.79-.7-8.6-7.36 2.89z" class="o"/><path d="m314.38 204.08-4.53 2.43-1.91 8.11 6.44-.36 1.87-4.12-1.87-6.06z" class="z"/><path d="m314.38 204.08 4 1.46 2.21 6.25-4.63 2.47-1.01-1.89-.57-8.29z" class="o"/><path d="m320.59 211.79-5.64 4.94-7.01-2.11 7.01-2.25 5.64-.58zM316.25 222.41l-6.4-1.64-3.78 1.71.5 1.93 5.81 1.94 3.87-3.94z" class="az"/><path d="m306.07 222.48-2.19 2.8 8.5 1.07-6.31-3.87z" class="o"/><path d="m296.01 210.14 8.41 5.61-6.44 3.65-1.6-5.14-.37-4.12z" class="z"/><path d="m304.42 215.75-1.43 4.84-4.18-1.19-.51-1.69 6.12-1.96z" class="az"/><path d="m302.99 220.59-10.68.5-1.32-3.38h7.31l4.69 2.88z" class="o"/><path d="m303.88 180.82 2.46 2.48 2.47-1.24 1.04-4.05-5.97 2.81z" class="ac"/><path d="m306.34 183.3 4.85.8v-2.92l-1.34-3.17-3.51 5.29z" class="bj"/><path d="m311.19 184.1 2.64-2.73-3.98-3.36 1.34 6.09z" class="z"/><path d="m293.7 185.62-2.71 4.49-3.36 1.32-1.03-2.47 3.55-3.69 3.55.35z" class="ac"/><path d="m290.99 190.11-3.84 6.01-2.08-4.69 1.53-2.47 4.39 1.15z" class="bj"/><path d="m287.63 202.3 7.21 3.94 2.15 7.13-6.79-1-2.57-10.07zM271.4 196.12l3.33 4.43 8.27 1.13 4.15-5.56-1.15-14.94-14.6 14.94z" class="af"/><path d="m294.28 157.21-15.52 9.62-15.64 17.96 8.28 11.33 22.3-10.5 7.32-9.46-6.74-18.95z" class="aa"/><path d="m309.85 178.01-12.65-32.35-10.06 11.55-1.03 13.34 17.77 10.27 5.97-2.81z" class="r"/><path d="m293.7 185.62 10.18-4.8-16.74-23.61-8.38 9.62 14.94 18.79z" class="bh"/><path d="m292.08 210.14 4.91 3.23 1.31 4.34-5.34-2.98-.88-4.59z" class="y"/><path d="m287.63 202.3 4.45 7.84-4.33 5.21-9.46.7-.23-11.06 4.01-3.44 5.56.75z" class="aa"/><path d="m292.08 210.14 6.22 7.57-9.94 5.6-10.07-7.26 13.79-5.91z" class="af"/><path d="m278.06 204.99 9.57-2.69-.48-6.18-12.42 4.43 3.33 4.44z" class="ax"/><path d="m323.68 276.66 10.95 15.29-13.7 4.38-11.88-3.68.91-5.44 2.49-3.59-1.29-3.58 6.7-5.25 5.82 1.87z" class="av"/><path d="M309.05 292.65v6.04h25.58v-6.74l-12.53-3.5-13.05 4.2z" class="bj"/><path d="m316.66 276.22 1.61 8.49 3.02-.87-2.31-8.43-2.32.81zM311.16 280.04l3.79 4.15-4.99 3.02 1.2-7.17z" class="ac"/><path d="m326.62 267.5-8-2.52-8.34 4.67.88 10.39 12.52-3.38 2.94-9.16z" class="bl"/><path d="m310.28 269.65 16.34-2.15 1-3.09-17.72.77.38 4.47z" class="bh"/><path d="m358.87 271.28 3.29 4.69-3.29 4.07v5.52l27.38 4.11-.63-11.89-8.38-5.27-5.03-1.23-5.37-5.07-7.97 5.07z" class="av"/><path d="m385.62 277.78-6.6 7.78h-20.15v6.04h32.76v-10.04l-6.01-3.78z" class="bj"/><path d="m358.87 271.28 7.97 4.13-1.88 5.24-6.09-.61v-8.76zM365.17 267.68l10.08 7.11 1.99-2.28-6.81-4.28-5.26-.55z" class="ac"/><path d="m358.87 271.28-4.83-7.83 7.13-6.4 7.76.48 1.5 10.7-11.56 3.05z" class="bl"/><path d="m354.04 263.45 14.89-5.92-.66-4.68-17.19 5.81 2.96 4.79z" class="bh"/></g><g id="m"><path d="m411.93 279.52 6.99-5.35 8.06-3.25 7.1-.71-4.83 21.54-17.32-12.23z" class="al"/><path d="m434.08 270.21 5.51-.29 5.14 1.24 3.74 2.2-3.81 18.39-17.68-7.88 3.7-9.16 3.4-4.5zM426.98 283.87v17.74l-19.44-2.82 1.3-1.01-.84-3.54.84-8.29 3.52-4.53-2.7-3.5 8.23 2.83 9.09 3.12z" class="ah"/><path d="m442.38 285.09-3.32 20.64-14.89-9.08 2.81-12.78 15.4 1.22zM449.39 274.17l1.92 1.91 4.56 9.01.65 5.81-8.05 2.19-6.09-8 5.25-9.58 1.76-1.34z" class="s"/><path d="m457.18 291.08-.52 3.16-.65 1.35-4.25 4.56-.64 5.58-.97 2.01-3.37 2.73-8.6-3.84-1.22-5.95 5.42-15.59 11.82 3.85 2.98 2.14zM424.17 296.65l6.13 8.35-5.05 9.81-1.84-3.59-2.78-.59-8.7-7.86-2.19-3.05 1.54-1.41 12.89-1.66z" class="z"/><path d="m425.25 314.81 13.69-7.07-1.98-7.06-12.79-4.03 1.08 18.16z" class="o"/><path d="m436.96 300.68-7.1 8.55-.59 3.5 3.5.92 10.14-1.57 3.87-1.61-.9-1.61-8.92-8.18z" class="an"/><path d="m426.98 270.92 3.7 3.79 3.94-3.32-1.38-3-6.26 2.53z" class="s"/><path d="m430.68 274.71 8.91-4.79-6.35-1.53-2.56 6.32zM435.9 284.58l9.21-4.47v3.76l-2.73 1.22-2.79 1.93-3.69-2.44z" class="z"/><path d="m435.9 284.58 4.16 7.17 2.85-2.63-.53-4.03-6.48-.51z" class="o"/><path d="m445.11 280.11 4.28 7.26-4.28 1.3-2.73-3.58 2.73-4.98z" class="o"/><path d="m449.39 287.37-7.01-2.28-2.32 6.66 9.33-4.38zM456.01 295.59l-8.27 2.57 3.38 7.57 4.89-10.14z" class="ai"/><path d="m418.92 274.17-1.03 6.58-5.53.67-2.7-3.5 9.26-3.75z" class="s"/><path d="m417.89 280.75-9.05 5.2.82-8.03 8.23 2.83zM425.68 289.77l-10.61 8.05 6.38 1.46 2.72-2.63 2.02-2.13-.51-4.75z" class="z"/><path d="m425.68 289.77 3.27 8.39-3.27.55-1.51-2.06 1.51-6.88z" class="o"/><path d="m415.07 297.82 9.52 5.83.66-4.37-1.08-2.63-9.1 1.17z" class="ai"/><path d="m424.17 296.65 4.78 1.51-4.36 5.49-.42-7zM431.56 298.98l1.21 6.75 3.13-.94 1.06-4.11-1.82-1.97-3.58.27z" class="bm"/><path d="M432.77 305.73h9.7l-2.41-4.12-3.1-.93-4.19 5.05z" class="ar"/><path d="m442.47 305.73-3.74-10.14-1.87 2.57.1 2.52 5.51 5.05z" class="ai"/><path d="m438.73 295.59-7.17 3.39 5.4 1.7 1.77-5.09z" class="o"/><path d="m421.35 281.94 7.83-3.51.68 2.99-2.88 2.45-3.33.52-2.3-2.45z" class="s"/><path d="m421.35 281.94 4.84 5.53 1.57-1.58-.78-2.02-5.63-1.93z" class="z"/><path d="m429.18 278.43 2.38 5.8-2.61 1.07-1.97-1.43 2.2-5.44z" class="z"/><path d="m431.56 284.23-4.58-.36-.79 3.6 5.37-3.24z" class="o"/><path d="m420.63 310.63 4.2-2.89 1.36 2.13-.94 4.94-4.62-4.18z" class="ai"/><path d="m424.83 307.74 5.03 1.49-.59 2.92-4.02 2.66-.42-7.07z" class="bm"/><path d="m429.86 309.23 2.91 4.42-7.52 1.16 4.61-5.58z" class="ar"/><path d="m408 294.24 3.28 4.07-.39.97-3.35-.49.46-4.55z" class="z"/><path d="m411.28 298.31.65 4.46-4.39-3.98 3.74-.48zM450.15 307.74l-4.27 1.12-.77 1.78 3.36.58 1.68-3.48z" class="ai"/><path d="m445.88 308.86-2.97 3.22 5.56-.86-2.59-2.36z" class="ar"/><path d="m455.87 285.09-1.67 3.85 1.67 2.14 2.66-.73-2.66-5.26z" class="o"/><path d="m454.2 288.94 2.46 5.3 1.87-3.89-4.33-1.41z" class="ai"/><path d="m444.73 271.16 2.9 4.35 1.76-.8v-2.42l-4.66-1.13z" class="z"/><path d="m447.63 275.51 3.68.57-1.92-3.79-1.76 3.22z" class="o"/></g></svg>