<svg xmlns="http://www.w3.org/2000/svg" id="a" viewBox="0 0 900 320"><defs><style>.m{fill:#404857}.aa,.ab,.ac,.ae,.ag,.ah,.ai,.ak,.al,.am,.ao,.ap,.aq,.ar,.as,.av,.aw,.ax,.az,.ba,.bb,.bc,.be,.bg,.bh,.bi,.bj,.bk,.bm,.bn,.bp,.bt,.bu,.bw,.bx,.by,.bz,.ca,.cb,.cc,.cd,.ce,.cf,.cg,.ch,.ci,.cj,.ck,.cl,.m,.o,.r,.u,.v,.w,.x{stroke-width:0}.aa,.ab,.ae,.ah,.ai,.ak,.am,.ao,.ar,.av,.ax,.az,.ba,.bb,.bc,.bh,.bi,.bj,.bk,.bm,.bn,.bp,.bt,.bw,.bx,.by,.cb,.cc,.cd,.cf,.ch,.ci,.cj,.cl,.m,.o,.v,.w,.x{fill-rule:evenodd}.ar{fill:#576071}.be,.o{fill:#51596a}.bk,.r{fill:#89909b}.cb{fill:#1d2432;opacity:.1}.u{fill:#ccae2d}.v{fill:#71561c}.w{fill:#dddfe2}.x{fill:#c3987b}.bx{fill:#8b6651}.aa,.ce{fill:#3d4554}.ab,.ag{fill:#7d5f1f}.ac,.ah{fill:#68707f}.ae,.bu{fill:#e4ae3a}.ai,.ca{fill:#9b6533}.ak,.bz{fill:#787f8d}.al,.cj{fill:#b68b2e}.am{fill:#5f6878}.bh{fill:#abafb8}.ao,.bg{fill:#bbbfc6}.ap,.cd{fill:#947125}.aq,.av{fill:#454d5d}.as,.ax{fill:#f4d75c}.aw,.bi{fill:#9f7928}.az{fill:#886822}.ba{fill:#7c4f24}.bb,.ck{fill:#af7546}.bc{fill:#ccad14}.cc{fill:#c29431}.bj{fill:#d8a537}.bm{fill:#343c4b}.bn{fill:#545c6d}.bp{fill:#dfbda5}.by{fill:#e4c824}.bt{fill:#aa822b}.bw{fill:#cc9c34}.cf{fill:#cccfd4}.cg{fill:#232a38}.ch{fill:#9a9fa9}.ci{fill:#e5c828}.cl{fill:#4b5464}</style></defs><g id="b"><path d="m47.01 261.95 21.64-4.83 24.96 1.85 65.88 3.26 7.26 13.59-39.38 4.4-3.27-7.29-2.89 8.54L59 279.58l-11.99-17.63zM195.34 270.15l16.35-.71 82.35 3.42-17.5 19.3-44.19 1.66-52.15-14.24 15.14-9.43zM328.8 281.81l20.63-12.41 31.67-13.99 34.22 8.38 84.97 16.06 4.42 6.52-12.79 5.79-29.35-.21-15.83-3.57-10.12 9.9-13.91-.12-28.4-6.42-15.77-5.14-12.41 5.14-25.07-3.51-12.26-6.42zM389.89 306.51l4.39-1.65 10.1 2.43-1.98 5.07-9.28-1.4-3.23-4.45zM443.49 302.66l10.68-2.32 4.01 6.29-9.72.26-4.97-4.23zM525.73 288.22l13.72-3.22 20.85 3.22 35.72 10.7 10.11.27 6.68 4.48-5.98 1.48-5.65.5-5.57 6.72-13.49-5.59-41.73-8.58-10.21.48-4.45-10.46zM695.94 291.47l-5.7-18.13-43.4-2.11 33.11-6.97-4.1-3.68-75.1-8.24-75.31 2.58-18.05 13.44 74.76 8.88 34.05-1.67 18.58 18.35 61.16-2.46ZM834.72 270.27l3.04-6.98-20.92-4.61-72.41-6.99-37.21 4.04-30.02 4.58 24.21 12.55 43.02 5.67 44.75-.85 7.65-6.54 3.64 4.35 34.25-5.22zM189.58 237.57l-43.07 2.16 25.33 15.68 21.12 2.84 41.92.95-13.23-16.57-32.07-5.06z" class="cb"/></g><g id="c"><path d="m239.96 31.36 54.43-.85 11.41 209.8-51.88 7.97L231.6 100.8l8.36-69.44z" class="cj"/><path d="m245.9 36.11-5.94-4.75-30.34 1.33-9.63 209.64 53.93 5.95-8.02-212.17z" class="bi"/><path d="m209.62 32.69 44.63-7.66 40.14 5.48-48.49 5.6-36.28-3.42z" class="bw"/><path d="m255.86 46.32 8.76-1.1 6.51 1.52 6.84-3.19 7.69-.96 1.16 17.46-30.26 3.03-.7-16.76zM257.72 74.25l7.77-.62 7.62 1.99 6.44-3.11 7.27-.59 1.16 18.86-29.09 3.03-1.17-19.56zM258.65 106.84l8.18-1.14 7.65 1.28 5.84-3.16 8.36-1.17 1.63 20.25-30.49 3.5-1.17-19.56z" class="bj"/><path d="m264.62 45.22 3.05 4.71 7.86-1.23 2.44-5.15-13.35 1.67zM265.49 73.63l3.41 5.1 8.38-.87 2.27-5.35-14.06 1.12zM266.83 105.7l3.99 4.81 8.03-1.4 1.47-5.29-13.49 1.88z" class="cd"/></g><g id="d"><path d="m166.75 275.82-6.76-.84-5.4-14.31 9.3 1.05 5.45 5.72-2.59 8.38z" class="o"/><path d="m121.21 281.47 6.16-1.25 2.02-14.18-9.53 1.4-.8 3.61 2.15 10.42zM73.91 274.98l6.04-.69 4.74-14.8h-7.32l-3.46 5.78v9.71zM172.69 264.42l.95 10.53-6.89.87-2.86-14.1 8.8 2.7z" class="ah"/><path d="m120.83 271.89.38 9.58-7.35-.89-1.43-12.71 8.4 4.02zM68.11 264.33l-.43 9.67 6.23.98 3.46-15.49-9.26 4.84z" class="o"/><path d="m123.1 166.99 30.59-4.27 12.09 94.48-35.56 4.75-7.12-94.96z" class="bw"/><path d="m135.31 181.69 2.38-4.03 6.4-1.07 3.32 3.56-12.1 1.54zM136.5 200.19l2.37-3.8 6.76-1.3 2.61 4.03-11.74 1.07zM138.52 219.51l2.37-4.15 6.99-1.19 2.96 3.92-12.32 1.42zM140.06 240.02l2.96-4.39 7.11-.95 2.61 3.92-12.68 1.42z" class="ba"/><path d="m122.45 183.17 35.39-5.69 1.07 3.91-36.28 4.98-.18-3.2zM123.34 201.8l37.7-5.69.18 4.45-37.52 4.62-.36-3.38zM125.12 220.65l37.34-5.15.18 4.27-36.63 4.26-.89-3.38zM124.94 240.79l36.05-4.08 5.03-.54v3.91l-40.9 4.44-.18-3.73z" class="ai"/><path d="m162.1 152.35-51.57.64-7.82 41.58 18.12 77.33 51.86-7.47-10.59-112.07Zm-39 14.64 30.59-4.27 12.09 94.48-35.57 4.74-7.11-94.96Z" class="bi"/><path d="m114.98 158.46-2.55-4.2-36.04-.62-8.28 110.69 52.72 7.56-5.85-113.43z" class="az"/><path d="m162.1 152.35-41.27-5.09-44.44 6.38 38.59 4.82 47.12-6.11z" class="cc"/><path d="m151.27 151.01-30.44-3.75-44.44 6.38 20.34 2.54 22.52-.45 32.02-4.72z" class="cb"/><path d="m142.28 149.9-.67-4.54-26.57.2-1.39 4.98 4.37 3.14 24.26-3.78z" class="ch"/><path d="m118.02 153.68-20.06-3.14 1.91-5.18 15.17.2 2.54 2.49.44 5.63z" class="ah"/><path d="m99.87 145.36 18.15-2.29 23.59 2.29-24.03 2.69-17.71-2.69z" class="cf"/><path d="m115.72 145.79-.76-15.51 7.73-2.37-1.58 17.88h-5.39z" class="ch"/><path d="m101.18 88.6 11.89-5.63 29.28-1.95 10.69 15.27-10.69 7.69-22.74-3.6-18.43-11.78z" class="bb"/><path d="m142.35 81.02-26.61-6.12-6.49 1.68-2.32 2.69-6.47-.4-12.35 3.22 10.02 13.18 11.12-7.02 33.1-7.23z" style="fill:#cc9262;fill-rule:evenodd;stroke-width:0"/><path d="m161.16 118.37-1.15 19.05-13.96-1.96-18.08 4.83-14.11-20.23 47.3-1.69z" class="ai"/><path d="m143.97 125.84 16.04 11.58-32.04 2.87 16-14.45zM127.97 140.29l-38.83-5.75 2.79-5.15-5.62-2.52-3.67-9.93 1.7-2.5-3.87-3.37-3.13-8.45 10.77-12.33 21.14-2.04 10.36 12.13 3.2 23.86 5.16 16.05z" class="ba"/><path d="m98.93 98.22-9.49 7.84-9.79-7.84 8.46-16.13 21.14 6.16-10.32 9.97z" class="ai"/><path d="m77.34 102.62 2.31-4.4 9.97 3.8 9.31-3.8 5.92 6.69-15.81 4.29-11.7-6.58zM80.47 111.07l10.39 3.2 13.99-5.07-2.55 5.45-11.62 5.04-8.04-2.75-2.17-5.87z" class="cc"/><path d="m109.25 76.58 21.62 6.95v3.09l-8.06-1.33-22.35-6.42 8.79-2.29z" class="ax"/><path d="m130.87 83.53 11.04 14.12-1.11 2.38-3.5-1.81-14.49-12.93 8.06-1.76z" class="ae"/><path d="m137.3 98.22-6.43 13.81 13.1 13.81 3.24-3.81 1.31 1.83 12.64-5.49-8.12-22.08-2.68 1.93-1.86-1.37-6.59.8-2.31 2.38-2.3-1.81z" class="ah"/><path d="m137.3 98.22 6.67 27.62-9.83-.74-1.78-2.98-3.44 2.58-6.11-.46-8.95-15.99 5.75-7.87 9.27-1.13 1.34 1.8 2.73-2.3 4.35-.53z" class="bn"/><path d="m119.61 100.38-20.68-2.16 3.37 16.43 20.51 9.59-3.2-23.86z" class="av"/><path d="m122.81 124.24-33.67 10.3-2.83-7.67 36.5-2.63z" class="ai"/><path d="m153.04 96.29-4.52 27.57-4.55 1.98 4.53-28.99 4.54-.56zM141.91 97.65l-1.28 14.38-2.36-5.97-.97-7.84 4.61-.57z" class="bk"/><path d="m137.3 98.22-8.38 26.48 5.22.4 6.49-13.07-3.33-13.81zM132.95 98.75l-8.15 25.64 4.08-25.14 4.07-.5z" class="ah"/></g><g id="e"><path d="m614.93 26.87-3.1 230.65-6.38 1.1-2.55-6.56 1.64-202.78 1.91-22.41h8.48z" class="bh"/><path d="m608.73 28.66-2.28-1.79h-4.82l-1.28 230.47 5.1 1.28 3.28-229.96z" class="bk"/><path d="m614.93 26.87-7.05-1.82-6.25 1.82 7.1 1.79 6.2-1.79z" class="cf"/><path d="m689.43 31.12-6.68.28-3.52 63.26 1.18 161.4 4.1 10.03 7.11-1.83-2.19-233.14z" class="bh"/><path d="m682.51 33.19-2.1-1.79-4.09 1.09.36 231.95 7.83 1.65-.46-53.56-1.47-2.62 1.42-3.5-.37-43.49-2.1-2.16 2.05-3.08-.37-43.25-2.26-2.47 2.21-3.62-.45-52.14-1.88-2.61 1.81-4.89-.13-15.51z" class="bk"/><path d="m689.43 31.12-7.47-1.51-5.64 2.88 6.19.7 6.92-2.07z" class="cf"/><path d="m569.49 35.68-7.36-.25-3.16 4.63-5.35 222.12 2.45 3.91 5.89-1.88 7.53-228.53z" class="bh"/><path d="m562.91 37.05-2.19-1.37h-3.67l-7.98 229.4 7 1.01 1.57-52.83 4.7-3.67-4.45-4.66 1.3-43.29 3.21-3.58-2.93-6.11 1.12-37.45 2.8-3.06-2.57-4.53 1.55-51.98 2.83-3.03-2.58-5.34.29-9.51z" class="bk"/><path d="m557.05 35.68 5.23-1.88 7.21 1.88-6.58 1.37-5.86-1.37z" class="cf"/><path d="m683.16 108.34.05 6.09-39.28 9.02-5.86-9.61 45.09-5.5z" class="bw"/><path d="m643.93 123.45-83.34-8.95.23-7.59 60.3-.19 23.17 9.64-.36 7.09z" class="bt"/><path d="m683.58 157.68.05 5.24-42.16 9.65-7.78-14.51 49.89-.38z" class="bw"/><path d="m641.47 172.57-82.28-10.93.28-9.69 56.73 3.7 25.65 9.18-.38 7.74z" class="bt"/><path d="m684 206.41.05 6.12-44.98 7.65-11.39-13.77H684z" class="bw"/><path d="m639.07 220.18-81.43-6.92.25-8.33 59.04.04 22.6 6.19-.46 9.02z" class="bt"/><path d="m684 206.41-44.47 4.75-81.64-6.23 48.41-5.74 77.7 7.22z" class="ax"/><path d="m616.58 200.15 23.19 6.26-36.18-1.55 9.01-5.08 3.98.37z" class="cb"/><path d="m683.58 157.68-41.73 7.15-82.38-12.88 48.1-5.48 76.01 11.21z" class="ax"/><path d="m629.5 148.53-1.7 9.53-36.56-3.28-16.86-4.53 10.83-1.23 44.29-.49z" class="cb"/><path d="m683.16 108.34-38.87 8.02-51.5-6.05-8.71-3.02-5.22 1.39-18.04-1.77 46.89-6.86 75.45 8.29z" class="ax"/><path d="m647.72 109.29-22.86 1.02-15.95-5.18 5.02-4.4 6.13.68 27.66 7.88zM599.02 107.48l-6.23 2.83-8.71-3.02-5.22 1.39-18.04-1.77 17.72-2.59 20.48 3.16z" class="cb"/><path d="m663.21 204.48-1.77-21.1-25.02.61 3.35 22.42 23.44-1.93z" class="am"/><path d="m640.76 186.56-6.39-3.18-15.44-.82-2.8 20.95 23.64 2.9.99-19.85z" class="cl"/><path d="m661.44 183.38-20.68-3.27-21.83 2.45 21.83 4 20.68-3.18z" class="ak"/><path d="m651.18 191.03 6.65-1.18.27 3.28-6.65 1-.27-3.1z" class="ao"/><path d="m658.53 105.64-2.07-32.28h-12.17l-1.4 2.21-1.04 12.11 5.87 21.61 10.81-3.65z" class="ai"/><path d="m647.72 109.29-28.78-3.48 4.41-17.34 3.23-2.25-1.67-3.88 2.28-8.98 7.85-.86 7.85 3.07 1.73 11.44 3.1 22.28z" class="ba"/><path d="m656.46 73.36-10.27-4.87-4.34-1.58-2.51 3.23-1.83 2.24 5.38 3.19 13.57-2.21z" class="bb"/><path d="m639.34 70.14 3.55 5.43-15.7-2.21 5.34-4.38 4.13-2.07 2.68 3.23z" class="ai"/><path d="m624.91 82.34 10.13 2.35-1.35 5.42-10.34-1.64 1.56-6.13z" class="by"/><path d="m646.19 68.49-2.43-9.71-6.25.58 1.83 10.78 6.85-1.65z" class="am"/><path d="m639.02 59.78-.23-1h-3.33l-2.93 10.2 6.81 1.16-.32-10.36z" class="cl"/><path d="m635.46 58.78 3.88-1.1 4.42 1.1-4.74 1-3.56-1z" class="bk"/><path d="m592.79 110.31-3.91-7.45V96.3l17.57-2.09-.34 3.85-1.57 1.34 1.36.92-.71 7.83-12.4 2.16z" class="bi"/><path d="m591.88 98.58-4.19-3.63-9.84-.01.27 3.64 1.71 2.16-1.47 1.16.5 6.78 13.93 1.63-.91-11.73z" class="ab"/><path d="m606.45 94.21-12.29-2.88-16.31 3.61 14.03 3.64 14.57-4.37z" class="ax"/><path d="m606.11 98.06-14.03 3.09-.84 1.48 1.08 1.63 13.58-3.94.21-2.26z" class="by"/><path d="m592.08 101.15-13.96-2.57.24 3.32 13.96 2.36-.24-3.11z" style="fill:#ac923b;fill-rule:evenodd;stroke-width:0"/><path d="m660.44 133.11-32.64-4.56-20.45-2.96-4.45 19.68 38.95-1.3 18.59-10.86z" class="ab"/><path d="m588.3 142.37-4.95-12 24-4.78 3.45 16.2-1.22 6.25-21.28-5.67z" class="cd"/><path d="m627.8 128.55.67 2.43-2.83 2.24-3.2 1.28-1.19-3.52 1.87-1.67 4.68-.76z" class="ak"/><path d="m617.66 127.91 5-3.71 5.14 4.35-5.36 2.74h-2.84l-1.94-3.38z" class="ao"/><path d="m619.39 129.13 2.7-1.92 1.03 1.28-2.82 1.88-.91-1.24z" class="ak"/><path d="m601.07 126.84 6.72.84 2.95 2.87.95 4.78-2.96 3.36-4.96 1.94-3.74-2.15 3.33-3.15.91-4.35-3.2-4.14z" class="ch"/><path d="m601.07 126.84 5.98 5.01-2.05 5.9-4.97.73-3.46-5.74 4.5-5.9z" class="ao"/><path d="m599.85 133.33 1.85-2.78 1.84 1.89-1.84 2.67-1.85-1.78z" class="ak"/><path d="m622.44 131.29.68 4.36-4.18 3.58-6.26 1.4-3.95-1.94-.94-3.59 4.89 2.13 4.74-1.27 5.02-4.67z" class="ch"/><path d="m610.74 130.55 6.92-2.64 4.78 3.38-5.15 5.54-5.01.92-4.49-2.65 2.95-4.55z" class="w"/><path d="m612.68 132.83 3.03-1.85 1.71.92-3.1 2.6-1.64-1.67z" class="bk"/><path d="m633.69 136.5 1.09 3.71-2.61 4-7.29 2.26-4.43-3.11-1.51-4.13 5.46 2.26 5.52-1.59 3.77-3.4z" class="ch"/><path d="m622.78 133.48 5.69-2.5 5.22 5.52-2.19 4.67-7.04 2.19-5.52-4.13 3.84-5.75z" class="w"/><path d="m624.4 137.75 1.39-2.83 3.28 2.25-2.76 2-1.91-1.42z" class="bk"/><path d="m660.44 133.11-36.04 4.64-2.54 8.72 5.94 11.59 28.48-4.4 4.16-20.55z" class="cd"/><path d="m624.4 137.75-41.05-7.38 1.86 18.65 42.59 9.04-3.4-20.31z" class="ab"/><path d="m596.25 139.66 17.4 3.01.73 4.82-17.85-3.46-.28-4.37z" class="by"/><path d="m682.64 48.7.07 7.5-38.78 7.09-5.86-9.61 44.57-4.98z" class="bw"/><path d="m643.93 63.29-81.56-8.36.25-8.37h58.5l23.17 9.64-.36 7.09z" class="bt"/><path d="m682.64 48.7-38.35 7.5-81.67-9.64 46.11-6.29 73.91 8.43z" class="ax"/><path d="m613.1 43.17-6.65 5.53-25.37-1.24-4.55-2.8 32.2-4.39 4.37 2.9z" class="cb"/><path d="M652.09 38.29h-6.56l-2.64 6.72-9.2 215.43 2.55 16.21 6.74-1.82 9.11-236.54z" class="bh"/><path d="m645.53 41.46-1.24-2.31-4.95.78-9.84 234.9 6.74 1.82 9.29-235.19z" class="bk"/><path d="m652.09 38.29-7.47-1.45-5.28 3.09 6.19 1.53 6.56-3.17z" class="cf"/><path d="m586.38 22.4-6.81 1.13 1.66 13.52 10.48 4.41.69-4.41-8.46-2.1-.7-8.5 5.32-.65-2.18-3.4z" class="bi"/><path d="m627.19 22.4-.6 5.49-3.24 3.23 2.6 2.68-1.33 12.21-18.17 2.69-7.43-25.26 28.17-1.04z" class="cd"/><path d="m604.54 26.45-4.19-5.25-13.97 1.2 4.86 24.13 15.21 2.17-1.91-22.25z" class="ab"/><path d="m627.19 22.4-11.32-6.46-10.93-.53-4.59 5.79 4.19 5.25 22.65-4.05z" class="ax"/><path d="m606.11 16.98-3.21-3.4-6.48 2.36-10.04 6.46 18.16 4.05 1.57-9.47z" class="bw"/><path d="m626.59 27.89-12.82 1.72 1.05 5.34 11.13-1.15.64-5.91z" class="by"/><path d="m615.87 15.94-2.77-5.65-10.2.81 3.21 5.88 9.76-1.04z" class="ai"/><path d="m606.11 16.98-9.69-1.04 2.6-5.65 5.71-.1.46 1.38.92 5.41z" class="ba"/><path d="m599.02 10.29 7.09-1.28 6.99 1.28-7.91 1.28-6.17-1.28z" class="bb"/></g><g id="f"><path d="m719.11 267.84 11.66-1.58 6.92-14.57-19.43 2.12.85 14.03z" class="ac"/><path d="m707.22 255.73-.87 10.17 12.76 1.94 5.22-13.24-17.11 1.13zM789.18 277.68l-10.09-1.82-3.39-15.55 14.82 7.53 2.55 4.25-3.89 5.59zM834.72 270.27l-9.83-1.28-5.11-10.33 13.24-2.36 2.43 6.99-.73 6.98z" class="be"/><path d="m790.52 267.84-1.34 9.84 11.29-2.19 4.01-12.63-13.96 4.98zM844.07 258.66l.97 10.15-10.32 1.46-4.25-11.61h13.6z" class="ac"/><path d="M791.21 161.82h45.94l.82 11.41-8.35 41.6 13.66 32.67.79 11.16-53.55 9.18-6.56-61.38 7.25-44.64z" class="ap"/><path d="m805.27 168.38-36.13-11.66-55.5.36-6.42 98.65 83.3 12.11 14.75-99.46z" class="ag"/><path d="m793.07 178.68-67.73-10.99-2.37 29.83 63.72 11.08 3.26-15.29-2.23-3.4 3.49-2.52 1.86-8.71zM722.97 208.6l62.26 9.14-1.53 12.13-4.11 2.56 3.36 3.39-2.27 17.99-60.48-7.83 2.77-37.38z" class="ck"/><path d="m791.21 187.39-10.71-.89-.91 4.47 10.36 2.34 1.26-5.92zM783.7 229.87l-8.3-.83-.91 4.55 8.46 2.23.75-5.95z" class="bu"/><path d="m713.64 157.08 44.38-12.02 79.13 16.76-31.88 6.56-91.63-11.3z" style="fill:#c29431;stroke-width:0"/><path d="m745.03 159.23-13.61-6.96 26.6-7.21 40.39 8.55-21.63 7.78-31.75-2.16z" style="opacity:.1;fill:#1d2432;stroke-width:0"/><path d="m837.97 173.23-20.49 5.39-7.78 73.07 33.58-4.19-5.31-74.27z" style="fill:#886822;stroke-width:0"/><path d="m736.84 110.1 35.1-3.11 6.11 13.45-8.48 20.1-24.54-10.63-8.19-19.81z" class="bg"/><path d="m808.75 111.44-16.71-2.1-20.1-2.35-3.65 30.64 22.85.36 17.61-26.55z" class="r"/><path d="m776.43 110.42 12.02 9.11-7.77 7.53-12.39-6.32 8.14-10.32z" class="ca"/><path d="m733.68 76.71-7.06 4.98-.61 3.16 10.83-4.49-3.16-3.65z" class="al"/><path d="m749.22 124.51-6.8-42.57 8.14-3.4 5.22 46.21-6.56-.24z" style="fill:#576071;stroke-width:0"/><path d="m733.68 76.71 18.1-5.22 3.27 4.62-.97 6.43-18.09 2.68-2.31-8.51z" style="fill:#7c4f24;stroke-width:0"/><path d="m751.78 71.49 8.5 1.22 1.21 7.28-7.41 2.55-2.3-11.05z" class="ca"/><path d="m755.05 76.11 4.88-6.78 3.02 4.59-1.46 6.07-6.44-3.88z" class="al"/><path d="m759.93 69.33 5.93.83 1.34 7.77-5.71 2.06-1.56-10.66zM791.21 82.06l1.19 4.98-29.57 54.71-4.81.07 16.83-38.08 9.23-18.34 7.13-3.34z" class="as"/><path d="m779.09 76.42 12.12 5.64-33.19 59.76-12.99-4.19 6.63-11.92 14.84-14.27 4.3-20.12 8.29-14.9z" class="aw"/><path d="m770.8 91.32 5.75 2.71-18.53 34.85-6.36-3.17 19.14-34.39z" style="fill:#abafb8;stroke-width:0"/><path d="m764.95 104.84 2.25-1.04.85 2.43-2.43.91-.67-2.3z" style="fill:#f6f6f7;stroke-width:0"/><path d="m831.44 115.04-.61 2.91-1 .19.72 1.15-.72 3.46-1 .15.71 1.23-.71 3.4-.8.38.52.98-.73 3.46-1.17.24.89 1.14-.89 4.26-8.14-2.31 4.55-24.83 8.38 4.19z" class="ap"/><path d="m800.47 94.88 11 3.77.21.75.79-.41 3.42 1.18.13.99.82-.67 3.34 1.15-.03.77.99-.44 3.17 1.09.42.74.63-.38 3.01 1.03.18 1.13.9-.76 3.87 1.3-1.88 8.92-33.03-11.18 2.06-8.98z" class="ag"/><path d="m812.47 98.99-1-.34-1.07 3.65.97.39 1.1-3.7zM821.14 101.97l-.96-.33-1.03 3.56 1.03.38.96-3.61zM825.36 103.42l-1.05-.36-.92 3.49 1.1.45.87-3.58zM828.37 104.45l-.73 3.51.96.58.85-3.72-1.08-.37zM816.84 100.49l-.95-.32-1.24 3.67 1.09.39 1.1-3.74z" class="aw"/><path d="m827.82 132.35-3.12-.94-.36 1.11 3.2 1.21.28-1.38zM825.49 126.51l-.18 1.45 3.24.93.28-1.36-3.34-1.02zM826.46 121.68l-.24 1.24 3.32 1.21.29-1.38-3.37-1.07zM827.31 116.98l-.3 1.04 3.54 1.27.28-1.34-3.52-.97z" class="ag"/><path d="m807.65 97.34-17.07 32.57-7.52-5.16 1.51-2.59.82-.17-.24-.81 1.58-2.73.99-.29-.21-1.04 1.66-2.85 1.1-.27-.51-.75 1.74-2.98.75-.17-.21-.76 1.64-2.8h.97l-.44-.91 1.56-2.68.82-.26-.15-.88 1.81-3.12.98-.08-.32-1.05 1.56-2.68 7.18 2.46z" class="ap"/><path d="m791.37 119.35-3.86-2.23-.78 1.33 4.03 1.99.61-1.09zM799.2 104.71l.67-1.21-3.43-1.69-.67 1.14 3.43 1.76zM784.57 122.16l3.7 1.99.61-.98-3.73-1.99-.58.98zM797.07 108.36l.67-1.03-3.53-1.7-.53.91 3.39 1.82zM792.88 116.07l.61-1.03-3.73-1.79-.59 1.02 3.71 1.8zM802.36 99.31l-3.45-1.75-.66 1.13 3.56 1.65.55-1.03zM795.13 112.18l.55-.97-3.64-1.87-.54.93 3.63 1.91z" class="ag"/><path d="m808.75 111.44-30.12 7.85-7.79 15.42 5.94 26.68 34.66-5.02-2.69-44.93z" class="bg"/><path d="m778.63 119.29-41.79-9.19 2.52 40.01 37.42 11.28 1.85-42.1z" class="r"/><path d="m751.78 119.29 11.79 2.39-.62 4.83-10.34-2.5-.83-4.72z" style="fill:#e4c824;stroke-width:0"/></g><g id="g"><path d="M698.93 255.07h-58.4v13.46l1 1.48-1 1.43v8.73c0 6.25 24.03 11.31 53.67 11.31s53.67-5.06 53.67-11.31v-7.98l-1-1.79 1-1.72v-13.59h-48.94Z" class="o"/><ellipse cx="694.2" cy="255.07" class="bz" rx="53.67" ry="11.31"/><ellipse cx="694.2" cy="254.32" class="ce" rx="22.4" ry="3.05"/><path d="m747.88 268.67-8.26 5.43-7.55-3.2-9.09 9.22-13.19-7.68-13.44 8.19-10.38-7.55-15.08 6.79-9.61-8.84-11.41 2.69-9.34-5.19v2.91l9.59 5.23 10.65-3.21 9.61 9.48 14.83-6.66 11.14 7.56 12.93-7.94 14.08 6.78 9.22-8.83 7.55 2.94 7.75-4.61v-3.51z" class="ak"/><path d="M685.89 222.96h-58.4v11.25l1.81 2.53-1.81.38v10.94c0 6.25 24.03 11.31 53.67 11.31s53.67-5.06 53.67-11.31v-11.51l-1.89-.95 1.89-1.66v-10.97h-48.94Z" class="o"/><ellipse cx="681.16" cy="222.96" class="bz" rx="53.67" ry="11.31"/><ellipse cx="681.16" cy="222.21" class="be" rx="22.4" ry="3.05"/><path d="m734.83 233.93-11.59 3.45-5.76 8.69-14.18-6.15-17.81 8.45-9.37-7.68-14.05 6.66-13.25-9.09-7.9 5.24-8.03-7.83-5.41-1.46v2.9l5.01 1.38 7.76 8.07 7.77-5.1 14.18 8.57 13.25-6.01 10.71 7.68 16.87-8.84 14.39 5.79 7.22-9.35 10.19-2.76v-2.61z" class="ak"/></g><g id="h"><path d="m261.63 182.63 59.72-2.57 3.68 50.36 3.02 40.35-56.92 9.76-11.23-64.89 1.73-33.01z" class="cd"/><path d="m268.31 190.34-9.85-8.7-30.21-.71-3.44 88.39 46.32 11.21-2.82-90.19z" class="ab"/><path d="m228.25 180.93 45.74-9.16 47.36 8.29-53.04 10.28-40.06-9.41z" class="cc"/><path d="m239.96 178.58 34.03-6.81 6.11 4.04-10.85 5.12-17.36.95-11.93-3.3z" class="cb"/><path d="m276.54 197.67 14.09-2.96 2.06 2.35 1.29-3.06 5.63-1.18 1.92 2.01 1.75-2.78 12.27-2.59 1.46 17.77-38.68 5.82-1.79-15.38z" class="cj"/><path d="m290.63 194.71 1.79 7.77 11.75-2.08-.89-8.35-3.67.77 1.18 5.01-5.73 1.13-1.08-4.96-3.35.71z" class="ba"/><path d="m282.67 151.89 1.15 6.97-3.24 3.77 4.21 2.09 2.01 12.25-17.55 3.96-4.25-16.21 3.3-10.19 7.19-3.13 7.18.49z" class="ar"/><path d="m268.3 154.53-2.48-2.64h-7.36l-4.54 23.9 15.33 5.14-.95-26.4z" class="av"/><path d="m283.82 158.86-9.02 1.65 1.1 5.9 8.89-1.69-.97-5.86z" class="bh"/><path d="m282.67 151.89-5.55-5.18-3.28-1.87-4.59 3.24-.95 6.45 14.37-2.64z" class="ak"/><path d="m271.13 148.08-7.03-2.36-5.64 6.17 9.84 2.64 2.83-6.45z" class="ar"/><path d="m274.95 136.06 9.84-.58.61 2.4-10.6 1.47.15-3.29z" class="ae"/><path d="m264.1 145.72 2.3-9.66h5.43l1.28 6.01-1.98 6.01-7.03-2.36z" class="ba"/><path d="m270.88 137.1.32-1.52 3.75.48 2.17 10.65-5.99 1.37-.25-10.98z" class="ai"/><path d="m266.4 136.06 4.48-1.24 4.07 1.24-4.07 1.04h-3.33l-1.15-1.04z" class="bb"/><path d="m266.4 136.06-12.48 7.05 2.83 1.66 14.13-7.67-4.48-1.04z" class="ae"/></g><g id="i"><path d="m276.54 233.33-35.95-5.06-4.55 21.59 40.5-16.53z" class="ak"/><path d="m189.58 237.57 51.01-9.3.86 17.83-23.99 2.47-27.88-11z" class="ch"/><path d="m233.18 194.34-1.15 2.43.52.81-.95.11-.77 1.61.28.87-.7.03-.68 1.44.46.84-.91.11-.66 1.38.44.73-.81.06-.76 1.61.35.92-.75-.08-.79 1.68.26.9-.73.1-.72 1.5.15.83-.57.08-.72 1.51.03.84-.44.03-.66 1.38.18.83-.69.26-.77 1.62.33.81-.73.04-.79 1.66-12.26 24.82 6.43 3.07 4.98-.6 21.87-46.16-3.04-5.35-5.23-2.72z" class="ax"/><path d="m238.41 197.06-23.81 52.11 5.1 2.42 24.78-51.37-6.07-3.16z" class="by"/><path d="m229.66 208.74.71-1.03-2.88-1.34-.4.84 2.57 1.53zM230.62 203.32l.49-.87-1.38-.81-.45.95 1.34.73zM234.88 198.13l-2.85-1.36-.43.92 2.73 1.36.55-.92zM231.79 201.03l.56-1.05-1.52-.68-.42.9 1.38.83zM229.32 205.42l.56-.8-1.26-.65-.37.79 1.07.66zM227.3 210.69l.54-.95-1.54-.85-.47 1 1.47.8zM225.05 218.46l.56-1.05-2.71-1.35-.51 1.09 2.66 1.31zM222.64 220.38l.44-.99-1.46-.62-.4.85 1.42.76zM225.05 215.5l.5-1.05-1.58-.64-.41.87 1.49.82zM226.15 213.05l.41-.81-1.45-.85-.42.91 1.46.75z" class="u"/><path d="m211.32 219.13-6.69-15.45-1.45-2.64-3.19-1.19-4.65-9.02 6.65-3.73 4.83 9.65-.91 3.19.82 2.55 7.87 14.98-1.33 2.52-1.95-.86z" class="ao"/><path d="m199.99 199.85 6.83-3.1-.09 5.74-2.1 1.19-4.64-3.83z" class="bk"/><path d="m221.65 242.63-6.13-8.04-3.35-10.57 8.26-2.74 10.93 23-9.71-1.65z" class="cd"/><path d="m214.6 225.72-1.58-3.13-3.88 1.43 7.04 23.18 5.47-4.57-7.05-16.91z" class="ab"/><path d="m209.14 224.02 2.18-4.89 3.28-1.66 5.83 3.81-5.83 4.44-5.46-1.7z" class="ae"/><path d="m238.15 239.83-1.6-14.11 4.9-5.16 1.57 19.72-4.87-.45zM261.63 237l-1.28-15.82-5.06-2.05 1.58 19.29 4.76-1.42z" class="ai"/><path d="m236.04 221.18 23.86-5.54.45 5.54-23.8 4.54-.51-4.54z" class="bj"/><path d="m219.89 263.62 15.05 9.31 32.48-4.77-2.78-16.57-23.19 1.04-21.56 10.99z" class="am"/><path d="m243.06 267-7.02 4.57 27.5 3.44 8.93-15.81-29.41 7.8z" class="ch"/><path d="m243.06 267-18.22-1.64-13.91-2.67 2.15 19.12 31.4 2.13-1.42-16.94z" class="ak"/><path d="m224.84 265.36-13.15 4.08-1.16-10.24 14.31 6.16z" class="cb"/><path d="m224.68 264.27 55.02-9.03-3.16-21.91-54.89 9.3-3.46 7.23 6.49 14.41z" class="ao"/><path d="m224.84 265.36-30.99-1.66-4.27-26.13 32.07 5.06 3.19 22.73zM276.54 292.16l-32.06-8.22-3.89-9.97 2.47-6.97 36.64 3.84 2.97 13.1-6.13 8.22z" class="ak"/><path d="m279.7 270.84-3.16 21.32 52.26-10.35 2.96-23.08-52.06 12.11z" class="ch"/><path d="m258.88 268.66 19.93 8.14.89-5.96-20.82-2.18zM243.06 267l1.42 16.94-6.07-.41 4.65-16.53z" class="cb"/><path d="m205.25 251.59 16.15 25.21 4.25-2.83-17.12-25.4-3.28 3.02z" class="bj"/><path d="m277.88 242.63-3.89-20.04 5.71-1.41 2.97 22.15-4.79-.7zM296.54 237.97l-2.76-20.5 5.83 3.21 2.68 18.39-5.75-1.1z" class="ai"/><path d="m273.99 222.59 24.84-7.18.78 5.27-24.74 6.47-.88-4.56z" class="bj"/><path d="m305.97 235.66 33.31 6.97-14.53 13.14-22.59 2.96-2.55-12.63 6.36-10.44z" class="ak"/><path d="m256.87 247.71 49.1-12.05-1.82 25.83h-21.48l-25.8-13.78z" class="ch"/><path d="m297 244.28 10.9 7.31-1.93 5.01L291 246.1l6-1.82z" style="fill:#e6b64e;fill-rule:evenodd;stroke-width:0"/><path d="m292.42 241.21-11.84 15.12 4.82 3.73 11.6-15.78-4.58-3.07z" style="fill:#eece88;fill-rule:evenodd;stroke-width:0"/><path d="m300.25 256.6 5.72-20.94 6.38 1.34-6.38 22.2-5.72-2.6z" style="fill:#74665b;fill-rule:evenodd;stroke-width:0"/><path d="m299.45 237.26 20 5.37v-11.08l-18.66-2.77-1.34 8.48z" class="bj"/><path d="m317.01 233.33 1.28-2.41 6.74-.5 3.02 9.86-8.6 2.35-2.44-9.3z" class="by"/><path d="m325.03 230.42-16.49-4.7-7.75 3.06 16.22 4.55 8.02-2.91z" class="ax"/><path d="m292.08 253.65-35.21-5.94 2.01 20.95 31.75 5.22 8.98-9.72-7.53-10.51z" class="ak"/><path d="m339.28 242.63-47.2 11.02-1.45 20.23 50-10.04-1.35-21.21z" class="ao"/><path d="m256.29 277.58 17.33-18.38 3.87 3.06-18.66 18.72-2.54-3.4z" class="bj"/></g><g id="j"><path d="M426.85 232.1c-1.91-17.48-12.74-30.63-24.21-29.38h-.01l-16.99 1.87 1.78 12.6c-2.03 5.57-2.86 12.32-2.08 19.45.86 7.86 3.52 14.84 7.24 20.03l1.43 12.56 16.79-3.4c10.76-2.19 17.88-16.89 16.04-33.72Z" class="ar"/><ellipse cx="389.2" cy="237" class="aq" rx="21.38" ry="32.61" transform="rotate(-6.23 388.97 236.889)"/><ellipse cx="389.2" cy="237" class="r" rx="7.78" ry="11.87" transform="rotate(-6.23 388.97 236.889)"/><path d="m389.84 239.73 18.6 6.37-3.37-5.2-6.47-3.33-10.61-3.11 1.85 5.27z" class="cj"/><path d="m399.13 202.63-12.66 35.95 3.37 1.15 12.21-26.88 4.05-9.69-6.97-.53z" class="ao"/><path d="m443.3 190.34-53.18-8.46-17.95 2.45 30.93 21 9.03-1.22 23.35-4.91 7.82-8.86z" class="ae"/><path d="m443.3 190.34-9 2.5-2.97 2.25-1.47-1.01-4.84 1.34-2.76 2.25-.92-1.23-4.43 1.23-2.37 1.41-.81-.52-5.98 1.66-4.65.3v4.81h35.28l4.92-14.99z" class="cj"/><path d="m426.93 205.33 7.37-12.49-4.44 1.24-4.84 11.06 1.91.19zM418.94 205.22l6.08-9.8-3.68 1.02-4.55 9.2 1.15.96 1-1.38zM410.9 207.28l6.01-9.61-3.18.89-4.39 8.33.55 1.76 1.01-1.37z" class="cd"/><path d="m452.09 202.48-23.43 4.45 14.64-16.59h21.93l-13.14 12.14z" class="ai"/><path d="m459.19 269.08 22.91-4.44-3.29-12.42-25.6-6.12-5.87 6.12 11.85 16.86z" class="bm"/><path d="m452.09 253.65 26.72-1.43 8.73-32.33-23.66 5.83-9.4 11.8-2.39 16.13z" style="fill:#29303e;fill-rule:evenodd;stroke-width:0"/><path d="m452.09 202.48 11.79 11.34v11.9l-42.91-6.7-17.87-13.69 48.99-2.85z" class="bw"/><path d="m463.88 225.72-11.79 27.93-22.23-1.43-31.26-14.65 4.5-32.24 60.78 20.39z" class="ai"/><path d="m452.09 253.65 7.1 15.43-9.27-1.96-12.22-4.72-12.22-.44-6.08-1.28-20.8-23.11 53.49 16.08zM450.28 229.61l3.4.61-6.44 15.3-1.94-.61 4.98-15.3zM443.36 227.3l2.67 1.22-5.35 14.81-2.3-.85 4.98-15.18zM436.68 225.12l2.3.85-4.97 14.93-2.68-.85 5.35-14.93z" class="ba"/><path d="m449.92 267.12-6.62-8.73-1.1.81-1.29-1.37-3.19-.75-1.04.75-2.08-1.48-2.87-.67-.75.67-1.12-1.11-4.38 6.72 5.66 1.2.93-.73 1.22 1.18 3.62.77.79-.6 1.15 1.01 3.26.68 1.1-.19 1.12.66 5.59 1.18z" style="fill:#2e3544;fill-rule:evenodd;stroke-width:0"/><path d="m442.11 265.47 2.22.47-1.03-7.55-2.39-.56 1.2 7.64zM437.72 257.08l-3.12-.73 2.31 8.03 1.94.41-1.13-7.71zM433.29 263.61l-1.56-7.93-1.87-.44 1.28 7.92 2.15.45z" class="ce"/><path d="m469.82 178.82-25.37 2.82 6.67 7.37 9.66-1.88 7.47-2.99 1.57-5.32zM507.9 173.68l12.21-1.27 7.77 2.43-11.05 3.98-8.93-.14v-5z" class="bn"/><path d="m453.68 186.01-5.19 3 2.63 5.11 19.32-3.78-2.19-6.2-14.57 1.87zM527.88 174.84l-1.46 7.58-18.52 2.86v-6.6l19.98-3.84z" class="m"/><path d="m444.45 181.64-1.15 8.7 7.82 3.78 2.56-8.11-9.23-4.37z" class="bm"/><path d="M527.8 251.59c-2.08-19.1-13.93-33.48-26.46-32.12h-.01l-18.57 2.04 1.94 13.77c-2.22 6.09-3.12 13.47-2.27 21.26.94 8.59 3.85 16.22 7.91 21.9l1.57 13.72 18.35-3.72c11.76-2.4 19.54-18.46 17.53-36.85Z" class="ar"/><ellipse cx="486.64" cy="256.95" class="aq" rx="23.37" ry="35.64" transform="rotate(-6.23 486.392 256.842)"/><ellipse cx="486.64" cy="256.95" class="r" rx="8.51" ry="12.98" transform="rotate(-6.23 486.392 256.842)"/><path d="m407.75 200.22-35.58-15.89-3.14 10.01 34.07 10.99 4.65-5.11z" class="bi"/><path d="m463.88 225.72 21.78 36.44 3.26-5.28-12.04-34.36-13 3.2z" class="ao"/><path d="m463.88 225.72-11.79-23.24 16.1 2.62 19.35 11.52-8.73 8.5-14.93.6z" class="bi"/><path d="m463.88 225.72 41.66 11.85-4.01-13.94-13.99-7.01-23.66 9.1z" class="ba"/><path d="m505.54 237.57 25.63-9.78-22.17-18.1-21.46 6.93 18 20.95z" class="ai"/><path d="m452.09 202.48 17.73-23.66 12.44 8.09 8.34 18.19-3.06 11.52-35.45-14.14z" class="cc"/><path d="m469.82 178.82 15.88-7.05 22.2 1.91 12.21 21.61-17.2 7.19-17.21-.95-15.88-22.71z" class="ax"/><path d="m485.7 201.53 1.84 15.09 31.62-6.93.95-14.4-34.41 6.24z" style="fill:#f6f6f7;fill-rule:evenodd;stroke-width:0"/><path d="m481.37 177.26 12.33 14.33 11.84-2.58-5.49-14.27-10.54-1.06-8.14 3.58z" class="cc"/><path d="m489.33 176.19-19.51-9.27 6.73-12.39 22.51 4.33 8.84 14.82-18.57 2.51z" class="ah"/><path d="m476.55 154.53 12.78 21.66-19.51 2.63-11.38-14.45 18.11-9.84z" class="ar"/></g><g id="k"><path d="m407.38 267.7 14.2 16.24-16.94 1.95-18.77-1.95v-8.37l4.39-4.73 17.12-3.14z" class="v"/><path d="M385.85 283.94h35.73v3.91h-35.73z" class="al"/><path d="m390.26 273.97 4.05 13.87-11.8 2.85-16.38-2.85.38-8.56 13.8-6.35 9.95 1.04z" class="az"/><path d="M366.13 287.84h28.18v3.91h-28.18z" style="fill:#ccad14;stroke-width:0"/><path d="m335.47 124.86 6.49-3.14 8.55 17.63-6.31 3.19-8.73-17.68z" class="av"/><path d="m353.97 119.23-27.89 13.53 1.16 15.32 32.55-15.18-5.82-13.67z" class="bk"/><path d="m327.24 148.08 8.23 1.2 29.88-13.22-3.65-4.06-3.34.09-31.12 15.99z" class="ar"/><path d="m363.32 165.76-12.81-26.41-6.31 3.19 12.63 26.37 6.49-3.15z" class="av"/><path d="m353.97 119.23 3.31-.12h4.74l3.33 16.95-6.99-3.97-4.39-12.86z" class="ah"/><path d="m425.59 220.82-6.49 16.7-6.36 7.78-1.18 11.64-1.3 3.35-10.95 7.41-7.27-1.13 2.16-25.12 31.39-20.63z" class="az"/><path d="m392.04 266.57 18.22-6.28-2.88 7.41-17.12 6.27-1.9-3.13 3.68-4.27zM414.46 242.04l-8.07-.95-4.27 16.58 9.44-.73 2.83-7.28.07-7.62z" class="cd"/><path d="m406.39 241.09 7.95 8.55 4.76-12.12-12.71 3.57z" class="bt"/><path d="m397.39 244.28-5.35 22.29-9.53 7.4-16.73-3.76-2.97-36.88 25.69 3.4 8.89 7.55z" class="cd"/><path d="m425.59 220.82-28.2 23.46-34.58-10.95 22.68-13.44 40.1.93z" class="cj"/><path d="m370.43 146.71 29.37 6.88 9.35 47.94-20.79 5.7-20.94-3.39-2.52-9.63 5.53-47.5z" class="ci"/><path d="m358.08 154.53 12.35-7.82 8.12 35.52-7.09.5-11.8-13.77-1.58-14.43zM361.57 207.85l34.57-23.71 23.26 20.12 2.77 7.39-43.62 9.17-16.36-3.91-.62-9.06z" class="bt"/><path d="m393.7 200.31 11.31 6.92 15.96 1.22-1.52-4.07-21.27-14.92-20.4 4.75-16.21 13.64 32.13-7.54z" style="opacity:.2;fill:#1d2432;fill-rule:evenodd;stroke-width:0"/><path d="m419.14 168.96 5.25 2.54 1.2 8.78-10.92 11.31-2.54-14.62 3.13-6.48 3.88-1.53z" class="by"/><path d="m394.1 178.82 10.91 28.41 14.44-2.85-11.7-30.93-13.65 5.37z" class="av"/><path d="m422.17 211.65-14.42.67-4.03 3.85-4.63-3.44-18.78.88-3.84 8.98 5.07 6.87 19.09-3.74 3.09-3.23 5.43 1.55 16.44-3.22-3.42-9.17z" class="az"/><path d="m399.09 212.73 1.54 12.99 8.52-1.68-1.4-11.72-8.66.41z" class="bc"/><path d="m421.64 88.42 1.88 23.11-1.63 22.13-18.71 2.4-22.26 9.66-10.79-16.09-12.85-10.52-5.9-12.39-2.57-19.75 18.75 3.59 24.18-2.92 8.02-8.5 7.99 6.44 13.89 2.84z" class="bp"/><path d="M397.17 114.55 388.8 102l-15.29-8.13 22.32-4.31 1.34 24.99zM408.86 109.91l3.69-12.16 7.32-9.15-15.48-.89 4.47 22.2z" class="x"/><path d="m423.52 111.53-47.09 5.39-2.92-23.05-6.06-4.41-9.37 11.7 3 25.94 9.35 19.61 16.05 12.15 9.35-7.82 3.26-5.32 5.71-6.01 20.79-2.67-2.07-25.51z" class="x"/><path d="m376.43 116.92 3.31 25.72 6.42 2.04 2.34 6.76-2.02 7.42-16.05-12.15-9.35-19.61-.44-3.8 5.49-5.2 10.3-1.18z" style="opacity:.15;fill:#1d2432;fill-rule:evenodd;stroke-width:0"/><path d="m404.8 139.71-28.33 3.33 10.01 15.82 12.35-2.6 5.97-16.55zM366.13 118.1l-5.05 9-3.8-7.99 4.74-4.24 4.11 3.23z" class="bx"/><path d="M394.79 113.16h2.08v26.6h-2.08z" style="fill:#8b6651;stroke-width:0" transform="rotate(-82.55 395.811 126.468)"/><path d="m373.51 93.87 21.66 3.74 2-8.05h-10.14l-13.52 4.31zM407.61 96.66l-3.22-8.95 8.2.76 7.28.13-12.26 8.06z" class="aa"/><path d="m380.902 103.324.239-2.167 9.93 1.09-.238 2.168z" class="cg"/><path d="m367.56 94.48 1.01 13.94-4.73.42-4.53-1.86-7.94-.26-9.03-18.96 14.32.55 10.9 6.17z" class="aa"/><path d="m365.48 69.47-3.61-1.87-13.49 4.04-8.01 9.08 1.97 7.04 15.74-7.41 7.4-10.88z" class="cd"/><path d="m348.38 71.64 19.18-13.63 24.62-7.53 25.87 13.86-26.97 5.13h-25.6l-7.6.96-9.5 1.21z" class="az"/><path d="m392.18 50.48-36.78 2.97-7.02 18.19 43.8-21.16z" class="bt"/><path d="M348.38 71.64 337.1 61.16l-14.04 12.75 9.17 2.48 16.15-4.75z" class="cd"/><path d="M323.06 73.91 302.4 93.1l30.93-9.76 15.05-11.7-25.32 2.27z" class="bt"/><path d="m302.4 93.1 39.94-5.34 6.04-16.12L302.4 93.1z" class="v"/><path d="M415.5 101.06a2.949 2.949 0 1 1-5.9 0 2.949 2.949 0 1 1 5.9 0Z" class="cg"/><path d="m399.09 76.39 7.83 13.54 2.26 23.24-5.84 2.47-6.17-1.09-2.52-22.84 4.44-15.32z" style="fill:#e8cab6;fill-rule:evenodd;stroke-width:0"/><path d="m351.08 185.62-10.71-22.03 17.71-9.06 13.38 28.2-7.16 6.28-13.22-3.39z" class="by"/><path d="m379.07 199.2-17.5 8.65-10.49-22.23 20.38-2.89 6.99 7.61.62 8.86z" class="ax"/><path d="m394.1 178.82-22.64 3.91 7.61 16.47 19.11-9.74.91-5.32-4.99-5.32z" class="bp"/><path d="m398.18 189.46 16.49 2.13-.21-14.62-6.71-3.52-5.73.33-7.92 5.04 4.08 10.64z" class="x"/><path d="m414.67 191.59 4.73-9.78-.26-12.85-5.75.66-5.64 3.83 6.92 18.14z" class="bx"/><path d="m392.04 266.57-26.26 3.64.73 9.07 23.75-5.31 1.78-7.4z" class="bi"/><path d="m380.31 213.61-6.8.21-3.51 35.56 8.45 21.46 7.11-3.37-5.25-53.86zM352.31 236.73l9.26 9.37 11.94-32.28-18.03 5.07-3.17 17.84z" class="bc"/><path d="m351.78 198.54 4.03 1.98-2.32 7.93-4.68 3.2v-6.63l2.97-6.48zM332.51 201.53l4.82.2 6.87 9.92-6.77.67-4.92-10.79z" class="av"/><path d="m353.49 208.45 15.08 24.1-1.15 4.18-12.23-14.14-5.72-12.86 4.02-1.28z" style="fill:#858686;fill-rule:evenodd;stroke-width:0"/><path d="m338.68 210.93 4.05-2.66 4.04-2.65-6.17-9.39 11.18 2.31-2.31 11.19 17.95 27-4.04 2.66-4.04 2.65-13.58-20.42-4.38-6.58-11.18-2.32 2.31-11.19 6.17 9.4z" class="ah"/><path d="m378.45 270.84-29.02-1.44-3.71-47.76 15.03 15.44 12.76-23.26 4.94 57.02z" class="ci"/><path d="m439.18 173.68 8.23-6.39v-9.46l-7 6.89-1.23 8.96z" class="x"/><path d="m386.48 158.86 53.11-21 6.56 7.86 1.26 12.11-53.31 20.99-7.62-19.96z" class="ah"/><path d="m439.59 137.86 8.65 4.53 2.06 3.67.82 3.53-3.71 8.24-4.11-3.7-.24-7.42-3.47-8.85z" class="av"/><path d="m448.24 142.39 7.58-3.04.13 4.27-1.47 4.62-3.36 1.35-2.88-7.2z" class="aa"/><path d="m455.82 139.35 6.26-2.5.31 3.83-1.64 5.04-6.27 2.52 1.34-8.89z" class="ah"/><path d="m462.08 136.85 6.18-2.47 1.45 4.07-2.78 4.78-6.18 2.49 1.33-8.87z" class="aa"/><path d="m468.26 134.38 5.96-2.38 2.33 3.22-3.67 5.61-5.95 2.4 1.33-8.85z" class="ah"/><path d="m474.22 132 5.92-2.37 1.23 4.03-2.56 4.79-5.84 2.36 1.25-8.81z" class="aa"/><path d="m480.14 129.63 5.56-2.27-1.44 8.85-5.45 2.24 1.33-8.82z" class="ah"/><path d="m414.67 191.59 12.47-25.78 10.14-1.29 1.9 9.16-4.88 19.16-19.63-1.25z" class="x"/><path d="m427.14 165.81 10.14-7.98h10.13l-8.23 15.85-12.04-7.87z" class="bx"/><path d="m427.14 165.81 2.98-12.68 12.94-6.42 4.35 11.12-20.27 7.98z" class="bp"/><path d="m393.906 162.43 12.868-4.9.733 1.925-12.868 4.901zM395.211 165.898l12.869-4.901.733 1.925-12.868 4.901zM396.537 169.362l12.868-4.901.733 1.925-12.868 4.9z" class="aq"/><path d="m365.48 69.47 64.97-6.33 2.37 24.12-25.9 2.67-6.93-7.51-5.42 9.3-27.01 2.76-2.21-14.33.13-10.68z" class="ci"/><path d="m372.9 74.61 23.83-2.38-7.02 13.25-15.72 1.49-1.09-12.36zM425.31 69.43l-23.84 2.26 9.44 11.65 15.72-1.57-1.32-12.34z" class="aa"/><path d="m367.56 94.48-25.22-6.72 23.14-18.29 2.08 25.01z" class="bc"/><path d="m397.17 114.55 6.68 3.57 5.33-4.95-12.01 1.38z" class="bx"/><path d="m351.37 106.72 10.7-4.58 4.06 15.96-8.85 1.01-5.91-12.39z" class="bp"/><path d="m355.19 108.63 4.12-1.65 2.71 7.89-6.83-6.24z" class="bx"/></g><g id="l"><path d="m614.41 299.01-1.6 4.66-3-.73-16.15-2.28.98-4.64 5.38-2.34 14.39 5.33z" class="az"/><path d="m598.76 295.72.29 6.6-6.07-2.47 1.66-3.83 4.12-.3z" class="cd"/><path d="m536.25 279.98.73 6.76 9.5 1.63 5.7-4.23-2.09-2.8-13.84-1.36z" class="az"/><path d="m592.54 304.31 3.07 8.06 11.99-3.62 2.21-5.81-17.27 1.37zM555.25 287.36l-3.45 9.02-11.41 1.82-3.26-8.17 18.12-2.67z" class="cd"/><path d="m551.8 296.38 34.58 8.77 3.7-9.16-38.46-6.13.18 6.52z" class="az"/><path d="m595.61 312.37-9.23-7.22.32-6.23 7.72 2.95.8 4.91.39 5.59zM540.39 298.2l-10.21-7.22 1.53-7.8 7.98 5.51.3 3.55.4 5.96z" class="ab"/><path d="m536.25 279.98 14.26-2.87 5.53 5.83 38.86 9.24 9.16-3.13 10.35 9.96-15.65-3.29-3.66 3.33 14.71 3.89-14.59 3.84-8.52-7.86-35.08-9.06-11.63 2.38-8.28-9.06 12.83 3.01 5.33-2.63-13.62-3.58z" class="ae"/><path d="m567.04 288.22 9.16 2.31-2.37 1.87-8.9-2.28 2.11-1.9z" class="bb"/><path d="m446.74 288.38.94 6.4-11.06 3.5-2.53-6.41 12.65-3.49z" class="ch"/><path d="m427.42 288.85-1.74 6.28 10.94 3.15-.47-5.01-1.63-2.79-7.1-1.63z" class="ah"/><path d="m427.42 288.85 10.13-3.26 9.19 2.79-10.59 4.89-8.73-4.42z" class="w"/><path d="m434.17 288.79 2.8-1.05 2.38.99-3.26 1.57-1.92-1.51zM469.01 298.16l-1.31 5.24-9.52 3.23-1.75-6.03 12.58-2.44z" class="ch"/><path d="m459.05 301.74-2.09-2.79-7.68-.27.87 5.59 8.03 2.36.87-4.89z" class="ah"/><path d="m469.01 298.16-10.83-3.32-8.9 3.84 9.77 3.06 9.96-3.58z" class="w"/><path d="m455.39 298.33 3.49-1.31 3.58 1.31-4.28 1.14-2.79-1.14zM410.43 304.86l.35 4.45-8.38 3.05-1.4-6.11 9.43-1.39z" class="ch"/><path d="m402.75 307.82-1.84-2.79-6.63-.17-.87 3.49 8.99 4.01.35-4.54z" class="ah"/><path d="m410.43 304.86-8.38-2.71-7.77 2.71 8.47 2.96 7.68-2.96z" class="w"/><path d="m399.69 304.77 2.27-.96 2.88.96-2.62 1.05-2.53-1.05z" class="ch"/></g></svg>